<?xml version="1.0" encoding="utf-8" standalone="no"?>
<!DOCTYPE svg PUBLIC "-//W3C//DTD SVG 1.1//EN"
  "http://www.w3.org/Graphics/SVG/1.1/DTD/svg11.dtd">
<svg xmlns:xlink="http://www.w3.org/1999/xlink" width="1152pt" height="432pt" viewBox="0 0 1152 432" xmlns="http://www.w3.org/2000/svg" version="1.1">
 <metadata>
  <rdf:RDF xmlns:dc="http://purl.org/dc/elements/1.1/" xmlns:cc="http://creativecommons.org/ns#" xmlns:rdf="http://www.w3.org/1999/02/22-rdf-syntax-ns#">
   <cc:Work>
    <dc:type rdf:resource="http://purl.org/dc/dcmitype/StillImage"/>
    <dc:date>2025-03-13T21:33:03.621693</dc:date>
    <dc:format>image/svg+xml</dc:format>
    <dc:creator>
     <cc:Agent>
      <dc:title>Matplotlib v3.10.1, https://matplotlib.org/</dc:title>
     </cc:Agent>
    </dc:creator>
   </cc:Work>
  </rdf:RDF>
 </metadata>
 <defs>
  <style type="text/css">*{stroke-linejoin: round; stroke-linecap: butt}</style>
 </defs>
 <g id="figure_1">
  <g id="patch_1">
   <path d="M 0 432 
L 1152 432 
L 1152 0 
L 0 0 
z
" style="fill: #ffffff"/>
  </g>
  <g id="axes_1">
   <g id="patch_2">
    <path d="M 60.93 346.416 
L 1139.04 346.416 
L 1139.04 30.48 
L 60.93 30.48 
z
" style="fill: #eaeaf2"/>
   </g>
   <g id="matplotlib.axis_1">
    <g id="xtick_1">
     <g id="line2d_1">
      <path d="M 107.389286 346.416 
L 107.389286 30.48 
" clip-path="url(#p00fc2f3757)" style="fill: none; stroke: #ffffff; stroke-linecap: round"/>
     </g>
     <g id="text_1">
      <!-- 2021-01 -->
      <g style="fill: #262626" transform="translate(84.408739 364.274281) scale(0.11 -0.11)">
       <defs>
        <path id="DejaVuSans-32" d="M 1228 531 
L 3431 531 
L 3431 0 
L 469 0 
L 469 531 
Q 828 903 1448 1529 
Q 2069 2156 2228 2338 
Q 2531 2678 2651 2914 
Q 2772 3150 2772 3378 
Q 2772 3750 2511 3984 
Q 2250 4219 1831 4219 
Q 1534 4219 1204 4116 
Q 875 4013 500 3803 
L 500 4441 
Q 881 4594 1212 4672 
Q 1544 4750 1819 4750 
Q 2544 4750 2975 4387 
Q 3406 4025 3406 3419 
Q 3406 3131 3298 2873 
Q 3191 2616 2906 2266 
Q 2828 2175 2409 1742 
Q 1991 1309 1228 531 
z
" transform="scale(0.015625)"/>
        <path id="DejaVuSans-30" d="M 2034 4250 
Q 1547 4250 1301 3770 
Q 1056 3291 1056 2328 
Q 1056 1369 1301 889 
Q 1547 409 2034 409 
Q 2525 409 2770 889 
Q 3016 1369 3016 2328 
Q 3016 3291 2770 3770 
Q 2525 4250 2034 4250 
z
M 2034 4750 
Q 2819 4750 3233 4129 
Q 3647 3509 3647 2328 
Q 3647 1150 3233 529 
Q 2819 -91 2034 -91 
Q 1250 -91 836 529 
Q 422 1150 422 2328 
Q 422 3509 836 4129 
Q 1250 4750 2034 4750 
z
" transform="scale(0.015625)"/>
        <path id="DejaVuSans-31" d="M 794 531 
L 1825 531 
L 1825 4091 
L 703 3866 
L 703 4441 
L 1819 4666 
L 2450 4666 
L 2450 531 
L 3481 531 
L 3481 0 
L 794 0 
L 794 531 
z
" transform="scale(0.015625)"/>
        <path id="DejaVuSans-2d" d="M 313 2009 
L 1997 2009 
L 1997 1497 
L 313 1497 
L 313 2009 
z
" transform="scale(0.015625)"/>
       </defs>
       <use xlink:href="#DejaVuSans-32"/>
       <use xlink:href="#DejaVuSans-30" transform="translate(63.623047 0)"/>
       <use xlink:href="#DejaVuSans-32" transform="translate(127.246094 0)"/>
       <use xlink:href="#DejaVuSans-31" transform="translate(190.869141 0)"/>
       <use xlink:href="#DejaVuSans-2d" transform="translate(254.492188 0)"/>
       <use xlink:href="#DejaVuSans-30" transform="translate(290.576172 0)"/>
       <use xlink:href="#DejaVuSans-31" transform="translate(354.199219 0)"/>
      </g>
     </g>
    </g>
    <g id="xtick_2">
     <g id="line2d_2">
      <path d="M 209.217857 346.416 
L 209.217857 30.48 
" clip-path="url(#p00fc2f3757)" style="fill: none; stroke: #ffffff; stroke-linecap: round"/>
     </g>
     <g id="text_2">
      <!-- 2021-05 -->
      <g style="fill: #262626" transform="translate(186.23731 364.274281) scale(0.11 -0.11)">
       <defs>
        <path id="DejaVuSans-35" d="M 691 4666 
L 3169 4666 
L 3169 4134 
L 1269 4134 
L 1269 2991 
Q 1406 3038 1543 3061 
Q 1681 3084 1819 3084 
Q 2600 3084 3056 2656 
Q 3513 2228 3513 1497 
Q 3513 744 3044 326 
Q 2575 -91 1722 -91 
Q 1428 -91 1123 -41 
Q 819 9 494 109 
L 494 744 
Q 775 591 1075 516 
Q 1375 441 1709 441 
Q 2250 441 2565 725 
Q 2881 1009 2881 1497 
Q 2881 1984 2565 2268 
Q 2250 2553 1709 2553 
Q 1456 2553 1204 2497 
Q 953 2441 691 2322 
L 691 4666 
z
" transform="scale(0.015625)"/>
       </defs>
       <use xlink:href="#DejaVuSans-32"/>
       <use xlink:href="#DejaVuSans-30" transform="translate(63.623047 0)"/>
       <use xlink:href="#DejaVuSans-32" transform="translate(127.246094 0)"/>
       <use xlink:href="#DejaVuSans-31" transform="translate(190.869141 0)"/>
       <use xlink:href="#DejaVuSans-2d" transform="translate(254.492188 0)"/>
       <use xlink:href="#DejaVuSans-30" transform="translate(290.576172 0)"/>
       <use xlink:href="#DejaVuSans-35" transform="translate(354.199219 0)"/>
      </g>
     </g>
    </g>
    <g id="xtick_3">
     <g id="line2d_3">
      <path d="M 313.592143 346.416 
L 313.592143 30.48 
" clip-path="url(#p00fc2f3757)" style="fill: none; stroke: #ffffff; stroke-linecap: round"/>
     </g>
     <g id="text_3">
      <!-- 2021-09 -->
      <g style="fill: #262626" transform="translate(290.611596 364.274281) scale(0.11 -0.11)">
       <defs>
        <path id="DejaVuSans-39" d="M 703 97 
L 703 672 
Q 941 559 1184 500 
Q 1428 441 1663 441 
Q 2288 441 2617 861 
Q 2947 1281 2994 2138 
Q 2813 1869 2534 1725 
Q 2256 1581 1919 1581 
Q 1219 1581 811 2004 
Q 403 2428 403 3163 
Q 403 3881 828 4315 
Q 1253 4750 1959 4750 
Q 2769 4750 3195 4129 
Q 3622 3509 3622 2328 
Q 3622 1225 3098 567 
Q 2575 -91 1691 -91 
Q 1453 -91 1209 -44 
Q 966 3 703 97 
z
M 1959 2075 
Q 2384 2075 2632 2365 
Q 2881 2656 2881 3163 
Q 2881 3666 2632 3958 
Q 2384 4250 1959 4250 
Q 1534 4250 1286 3958 
Q 1038 3666 1038 3163 
Q 1038 2656 1286 2365 
Q 1534 2075 1959 2075 
z
" transform="scale(0.015625)"/>
       </defs>
       <use xlink:href="#DejaVuSans-32"/>
       <use xlink:href="#DejaVuSans-30" transform="translate(63.623047 0)"/>
       <use xlink:href="#DejaVuSans-32" transform="translate(127.246094 0)"/>
       <use xlink:href="#DejaVuSans-31" transform="translate(190.869141 0)"/>
       <use xlink:href="#DejaVuSans-2d" transform="translate(254.492188 0)"/>
       <use xlink:href="#DejaVuSans-30" transform="translate(290.576172 0)"/>
       <use xlink:href="#DejaVuSans-39" transform="translate(354.199219 0)"/>
      </g>
     </g>
    </g>
    <g id="xtick_4">
     <g id="line2d_4">
      <path d="M 417.117857 346.416 
L 417.117857 30.48 
" clip-path="url(#p00fc2f3757)" style="fill: none; stroke: #ffffff; stroke-linecap: round"/>
     </g>
     <g id="text_4">
      <!-- 2022-01 -->
      <g style="fill: #262626" transform="translate(394.13731 364.274281) scale(0.11 -0.11)">
       <use xlink:href="#DejaVuSans-32"/>
       <use xlink:href="#DejaVuSans-30" transform="translate(63.623047 0)"/>
       <use xlink:href="#DejaVuSans-32" transform="translate(127.246094 0)"/>
       <use xlink:href="#DejaVuSans-32" transform="translate(190.869141 0)"/>
       <use xlink:href="#DejaVuSans-2d" transform="translate(254.492188 0)"/>
       <use xlink:href="#DejaVuSans-30" transform="translate(290.576172 0)"/>
       <use xlink:href="#DejaVuSans-31" transform="translate(354.199219 0)"/>
      </g>
     </g>
    </g>
    <g id="xtick_5">
     <g id="line2d_5">
      <path d="M 518.946429 346.416 
L 518.946429 30.48 
" clip-path="url(#p00fc2f3757)" style="fill: none; stroke: #ffffff; stroke-linecap: round"/>
     </g>
     <g id="text_5">
      <!-- 2022-05 -->
      <g style="fill: #262626" transform="translate(495.965882 364.274281) scale(0.11 -0.11)">
       <use xlink:href="#DejaVuSans-32"/>
       <use xlink:href="#DejaVuSans-30" transform="translate(63.623047 0)"/>
       <use xlink:href="#DejaVuSans-32" transform="translate(127.246094 0)"/>
       <use xlink:href="#DejaVuSans-32" transform="translate(190.869141 0)"/>
       <use xlink:href="#DejaVuSans-2d" transform="translate(254.492188 0)"/>
       <use xlink:href="#DejaVuSans-30" transform="translate(290.576172 0)"/>
       <use xlink:href="#DejaVuSans-35" transform="translate(354.199219 0)"/>
      </g>
     </g>
    </g>
    <g id="xtick_6">
     <g id="line2d_6">
      <path d="M 623.320714 346.416 
L 623.320714 30.48 
" clip-path="url(#p00fc2f3757)" style="fill: none; stroke: #ffffff; stroke-linecap: round"/>
     </g>
     <g id="text_6">
      <!-- 2022-09 -->
      <g style="fill: #262626" transform="translate(600.340167 364.274281) scale(0.11 -0.11)">
       <use xlink:href="#DejaVuSans-32"/>
       <use xlink:href="#DejaVuSans-30" transform="translate(63.623047 0)"/>
       <use xlink:href="#DejaVuSans-32" transform="translate(127.246094 0)"/>
       <use xlink:href="#DejaVuSans-32" transform="translate(190.869141 0)"/>
       <use xlink:href="#DejaVuSans-2d" transform="translate(254.492188 0)"/>
       <use xlink:href="#DejaVuSans-30" transform="translate(290.576172 0)"/>
       <use xlink:href="#DejaVuSans-39" transform="translate(354.199219 0)"/>
      </g>
     </g>
    </g>
    <g id="xtick_7">
     <g id="line2d_7">
      <path d="M 726.846429 346.416 
L 726.846429 30.48 
" clip-path="url(#p00fc2f3757)" style="fill: none; stroke: #ffffff; stroke-linecap: round"/>
     </g>
     <g id="text_7">
      <!-- 2023-01 -->
      <g style="fill: #262626" transform="translate(703.865882 364.274281) scale(0.11 -0.11)">
       <defs>
        <path id="DejaVuSans-33" d="M 2597 2516 
Q 3050 2419 3304 2112 
Q 3559 1806 3559 1356 
Q 3559 666 3084 287 
Q 2609 -91 1734 -91 
Q 1441 -91 1130 -33 
Q 819 25 488 141 
L 488 750 
Q 750 597 1062 519 
Q 1375 441 1716 441 
Q 2309 441 2620 675 
Q 2931 909 2931 1356 
Q 2931 1769 2642 2001 
Q 2353 2234 1838 2234 
L 1294 2234 
L 1294 2753 
L 1863 2753 
Q 2328 2753 2575 2939 
Q 2822 3125 2822 3475 
Q 2822 3834 2567 4026 
Q 2313 4219 1838 4219 
Q 1578 4219 1281 4162 
Q 984 4106 628 3988 
L 628 4550 
Q 988 4650 1302 4700 
Q 1616 4750 1894 4750 
Q 2613 4750 3031 4423 
Q 3450 4097 3450 3541 
Q 3450 3153 3228 2886 
Q 3006 2619 2597 2516 
z
" transform="scale(0.015625)"/>
       </defs>
       <use xlink:href="#DejaVuSans-32"/>
       <use xlink:href="#DejaVuSans-30" transform="translate(63.623047 0)"/>
       <use xlink:href="#DejaVuSans-32" transform="translate(127.246094 0)"/>
       <use xlink:href="#DejaVuSans-33" transform="translate(190.869141 0)"/>
       <use xlink:href="#DejaVuSans-2d" transform="translate(254.492188 0)"/>
       <use xlink:href="#DejaVuSans-30" transform="translate(290.576172 0)"/>
       <use xlink:href="#DejaVuSans-31" transform="translate(354.199219 0)"/>
      </g>
     </g>
    </g>
    <g id="xtick_8">
     <g id="line2d_8">
      <path d="M 828.675 346.416 
L 828.675 30.48 
" clip-path="url(#p00fc2f3757)" style="fill: none; stroke: #ffffff; stroke-linecap: round"/>
     </g>
     <g id="text_8">
      <!-- 2023-05 -->
      <g style="fill: #262626" transform="translate(805.694453 364.274281) scale(0.11 -0.11)">
       <use xlink:href="#DejaVuSans-32"/>
       <use xlink:href="#DejaVuSans-30" transform="translate(63.623047 0)"/>
       <use xlink:href="#DejaVuSans-32" transform="translate(127.246094 0)"/>
       <use xlink:href="#DejaVuSans-33" transform="translate(190.869141 0)"/>
       <use xlink:href="#DejaVuSans-2d" transform="translate(254.492188 0)"/>
       <use xlink:href="#DejaVuSans-30" transform="translate(290.576172 0)"/>
       <use xlink:href="#DejaVuSans-35" transform="translate(354.199219 0)"/>
      </g>
     </g>
    </g>
    <g id="xtick_9">
     <g id="line2d_9">
      <path d="M 933.049286 346.416 
L 933.049286 30.48 
" clip-path="url(#p00fc2f3757)" style="fill: none; stroke: #ffffff; stroke-linecap: round"/>
     </g>
     <g id="text_9">
      <!-- 2023-09 -->
      <g style="fill: #262626" transform="translate(910.068739 364.274281) scale(0.11 -0.11)">
       <use xlink:href="#DejaVuSans-32"/>
       <use xlink:href="#DejaVuSans-30" transform="translate(63.623047 0)"/>
       <use xlink:href="#DejaVuSans-32" transform="translate(127.246094 0)"/>
       <use xlink:href="#DejaVuSans-33" transform="translate(190.869141 0)"/>
       <use xlink:href="#DejaVuSans-2d" transform="translate(254.492188 0)"/>
       <use xlink:href="#DejaVuSans-30" transform="translate(290.576172 0)"/>
       <use xlink:href="#DejaVuSans-39" transform="translate(354.199219 0)"/>
      </g>
     </g>
    </g>
    <g id="xtick_10">
     <g id="line2d_10">
      <path d="M 1036.575 346.416 
L 1036.575 30.48 
" clip-path="url(#p00fc2f3757)" style="fill: none; stroke: #ffffff; stroke-linecap: round"/>
     </g>
     <g id="text_10">
      <!-- 2024-01 -->
      <g style="fill: #262626" transform="translate(1013.594453 364.274281) scale(0.11 -0.11)">
       <defs>
        <path id="DejaVuSans-34" d="M 2419 4116 
L 825 1625 
L 2419 1625 
L 2419 4116 
z
M 2253 4666 
L 3047 4666 
L 3047 1625 
L 3713 1625 
L 3713 1100 
L 3047 1100 
L 3047 0 
L 2419 0 
L 2419 1100 
L 313 1100 
L 313 1709 
L 2253 4666 
z
" transform="scale(0.015625)"/>
       </defs>
       <use xlink:href="#DejaVuSans-32"/>
       <use xlink:href="#DejaVuSans-30" transform="translate(63.623047 0)"/>
       <use xlink:href="#DejaVuSans-32" transform="translate(127.246094 0)"/>
       <use xlink:href="#DejaVuSans-34" transform="translate(190.869141 0)"/>
       <use xlink:href="#DejaVuSans-2d" transform="translate(254.492188 0)"/>
       <use xlink:href="#DejaVuSans-30" transform="translate(290.576172 0)"/>
       <use xlink:href="#DejaVuSans-31" transform="translate(354.199219 0)"/>
      </g>
     </g>
    </g>
    <g id="text_11">
     <!-- Week -->
     <g style="fill: #262626" transform="translate(580.807187 381.19975) scale(0.14 -0.14)">
      <defs>
       <path id="DejaVuSans-57" d="M 213 4666 
L 850 4666 
L 1831 722 
L 2809 4666 
L 3519 4666 
L 4500 722 
L 5478 4666 
L 6119 4666 
L 4947 0 
L 4153 0 
L 3169 4050 
L 2175 0 
L 1381 0 
L 213 4666 
z
" transform="scale(0.015625)"/>
       <path id="DejaVuSans-65" d="M 3597 1894 
L 3597 1613 
L 953 1613 
Q 991 1019 1311 708 
Q 1631 397 2203 397 
Q 2534 397 2845 478 
Q 3156 559 3463 722 
L 3463 178 
Q 3153 47 2828 -22 
Q 2503 -91 2169 -91 
Q 1331 -91 842 396 
Q 353 884 353 1716 
Q 353 2575 817 3079 
Q 1281 3584 2069 3584 
Q 2775 3584 3186 3129 
Q 3597 2675 3597 1894 
z
M 3022 2063 
Q 3016 2534 2758 2815 
Q 2500 3097 2075 3097 
Q 1594 3097 1305 2825 
Q 1016 2553 972 2059 
L 3022 2063 
z
" transform="scale(0.015625)"/>
       <path id="DejaVuSans-6b" d="M 581 4863 
L 1159 4863 
L 1159 1991 
L 2875 3500 
L 3609 3500 
L 1753 1863 
L 3688 0 
L 2938 0 
L 1159 1709 
L 1159 0 
L 581 0 
L 581 4863 
z
" transform="scale(0.015625)"/>
      </defs>
      <use xlink:href="#DejaVuSans-57"/>
      <use xlink:href="#DejaVuSans-65" transform="translate(93.001953 0)"/>
      <use xlink:href="#DejaVuSans-65" transform="translate(154.525391 0)"/>
      <use xlink:href="#DejaVuSans-6b" transform="translate(216.048828 0)"/>
     </g>
    </g>
   </g>
   <g id="matplotlib.axis_2">
    <g id="ytick_1">
     <g id="line2d_11">
      <path d="M 60.93 292.059772 
L 1139.04 292.059772 
" clip-path="url(#p00fc2f3757)" style="fill: none; stroke: #ffffff; stroke-linecap: round"/>
     </g>
     <g id="text_12">
      <!-- 40 -->
      <g style="fill: #262626" transform="translate(37.4325 296.238912) scale(0.11 -0.11)">
       <use xlink:href="#DejaVuSans-34"/>
       <use xlink:href="#DejaVuSans-30" transform="translate(63.623047 0)"/>
      </g>
     </g>
    </g>
    <g id="ytick_2">
     <g id="line2d_12">
      <path d="M 60.93 233.479756 
L 1139.04 233.479756 
" clip-path="url(#p00fc2f3757)" style="fill: none; stroke: #ffffff; stroke-linecap: round"/>
     </g>
     <g id="text_13">
      <!-- 60 -->
      <g style="fill: #262626" transform="translate(37.4325 237.658896) scale(0.11 -0.11)">
       <defs>
        <path id="DejaVuSans-36" d="M 2113 2584 
Q 1688 2584 1439 2293 
Q 1191 2003 1191 1497 
Q 1191 994 1439 701 
Q 1688 409 2113 409 
Q 2538 409 2786 701 
Q 3034 994 3034 1497 
Q 3034 2003 2786 2293 
Q 2538 2584 2113 2584 
z
M 3366 4563 
L 3366 3988 
Q 3128 4100 2886 4159 
Q 2644 4219 2406 4219 
Q 1781 4219 1451 3797 
Q 1122 3375 1075 2522 
Q 1259 2794 1537 2939 
Q 1816 3084 2150 3084 
Q 2853 3084 3261 2657 
Q 3669 2231 3669 1497 
Q 3669 778 3244 343 
Q 2819 -91 2113 -91 
Q 1303 -91 875 529 
Q 447 1150 447 2328 
Q 447 3434 972 4092 
Q 1497 4750 2381 4750 
Q 2619 4750 2861 4703 
Q 3103 4656 3366 4563 
z
" transform="scale(0.015625)"/>
       </defs>
       <use xlink:href="#DejaVuSans-36"/>
       <use xlink:href="#DejaVuSans-30" transform="translate(63.623047 0)"/>
      </g>
     </g>
    </g>
    <g id="ytick_3">
     <g id="line2d_13">
      <path d="M 60.93 174.899739 
L 1139.04 174.899739 
" clip-path="url(#p00fc2f3757)" style="fill: none; stroke: #ffffff; stroke-linecap: round"/>
     </g>
     <g id="text_14">
      <!-- 80 -->
      <g style="fill: #262626" transform="translate(37.4325 179.07888) scale(0.11 -0.11)">
       <defs>
        <path id="DejaVuSans-38" d="M 2034 2216 
Q 1584 2216 1326 1975 
Q 1069 1734 1069 1313 
Q 1069 891 1326 650 
Q 1584 409 2034 409 
Q 2484 409 2743 651 
Q 3003 894 3003 1313 
Q 3003 1734 2745 1975 
Q 2488 2216 2034 2216 
z
M 1403 2484 
Q 997 2584 770 2862 
Q 544 3141 544 3541 
Q 544 4100 942 4425 
Q 1341 4750 2034 4750 
Q 2731 4750 3128 4425 
Q 3525 4100 3525 3541 
Q 3525 3141 3298 2862 
Q 3072 2584 2669 2484 
Q 3125 2378 3379 2068 
Q 3634 1759 3634 1313 
Q 3634 634 3220 271 
Q 2806 -91 2034 -91 
Q 1263 -91 848 271 
Q 434 634 434 1313 
Q 434 1759 690 2068 
Q 947 2378 1403 2484 
z
M 1172 3481 
Q 1172 3119 1398 2916 
Q 1625 2713 2034 2713 
Q 2441 2713 2670 2916 
Q 2900 3119 2900 3481 
Q 2900 3844 2670 4047 
Q 2441 4250 2034 4250 
Q 1625 4250 1398 4047 
Q 1172 3844 1172 3481 
z
" transform="scale(0.015625)"/>
       </defs>
       <use xlink:href="#DejaVuSans-38"/>
       <use xlink:href="#DejaVuSans-30" transform="translate(63.623047 0)"/>
      </g>
     </g>
    </g>
    <g id="ytick_4">
     <g id="line2d_14">
      <path d="M 60.93 116.319723 
L 1139.04 116.319723 
" clip-path="url(#p00fc2f3757)" style="fill: none; stroke: #ffffff; stroke-linecap: round"/>
     </g>
     <g id="text_15">
      <!-- 100 -->
      <g style="fill: #262626" transform="translate(30.43375 120.498864) scale(0.11 -0.11)">
       <use xlink:href="#DejaVuSans-31"/>
       <use xlink:href="#DejaVuSans-30" transform="translate(63.623047 0)"/>
       <use xlink:href="#DejaVuSans-30" transform="translate(127.246094 0)"/>
      </g>
     </g>
    </g>
    <g id="ytick_5">
     <g id="line2d_15">
      <path d="M 60.93 57.739707 
L 1139.04 57.739707 
" clip-path="url(#p00fc2f3757)" style="fill: none; stroke: #ffffff; stroke-linecap: round"/>
     </g>
     <g id="text_16">
      <!-- 120 -->
      <g style="fill: #262626" transform="translate(30.43375 61.918848) scale(0.11 -0.11)">
       <use xlink:href="#DejaVuSans-31"/>
       <use xlink:href="#DejaVuSans-32" transform="translate(63.623047 0)"/>
       <use xlink:href="#DejaVuSans-30" transform="translate(127.246094 0)"/>
      </g>
     </g>
    </g>
    <g id="text_17">
     <!-- Index (First Period = 100) -->
     <g style="fill: #262626" transform="translate(23.522187 277.86425) rotate(-90) scale(0.14 -0.14)">
      <defs>
       <path id="DejaVuSans-49" d="M 628 4666 
L 1259 4666 
L 1259 0 
L 628 0 
L 628 4666 
z
" transform="scale(0.015625)"/>
       <path id="DejaVuSans-6e" d="M 3513 2113 
L 3513 0 
L 2938 0 
L 2938 2094 
Q 2938 2591 2744 2837 
Q 2550 3084 2163 3084 
Q 1697 3084 1428 2787 
Q 1159 2491 1159 1978 
L 1159 0 
L 581 0 
L 581 3500 
L 1159 3500 
L 1159 2956 
Q 1366 3272 1645 3428 
Q 1925 3584 2291 3584 
Q 2894 3584 3203 3211 
Q 3513 2838 3513 2113 
z
" transform="scale(0.015625)"/>
       <path id="DejaVuSans-64" d="M 2906 2969 
L 2906 4863 
L 3481 4863 
L 3481 0 
L 2906 0 
L 2906 525 
Q 2725 213 2448 61 
Q 2172 -91 1784 -91 
Q 1150 -91 751 415 
Q 353 922 353 1747 
Q 353 2572 751 3078 
Q 1150 3584 1784 3584 
Q 2172 3584 2448 3432 
Q 2725 3281 2906 2969 
z
M 947 1747 
Q 947 1113 1208 752 
Q 1469 391 1925 391 
Q 2381 391 2643 752 
Q 2906 1113 2906 1747 
Q 2906 2381 2643 2742 
Q 2381 3103 1925 3103 
Q 1469 3103 1208 2742 
Q 947 2381 947 1747 
z
" transform="scale(0.015625)"/>
       <path id="DejaVuSans-78" d="M 3513 3500 
L 2247 1797 
L 3578 0 
L 2900 0 
L 1881 1375 
L 863 0 
L 184 0 
L 1544 1831 
L 300 3500 
L 978 3500 
L 1906 2253 
L 2834 3500 
L 3513 3500 
z
" transform="scale(0.015625)"/>
       <path id="DejaVuSans-20" transform="scale(0.015625)"/>
       <path id="DejaVuSans-28" d="M 1984 4856 
Q 1566 4138 1362 3434 
Q 1159 2731 1159 2009 
Q 1159 1288 1364 580 
Q 1569 -128 1984 -844 
L 1484 -844 
Q 1016 -109 783 600 
Q 550 1309 550 2009 
Q 550 2706 781 3412 
Q 1013 4119 1484 4856 
L 1984 4856 
z
" transform="scale(0.015625)"/>
       <path id="DejaVuSans-46" d="M 628 4666 
L 3309 4666 
L 3309 4134 
L 1259 4134 
L 1259 2759 
L 3109 2759 
L 3109 2228 
L 1259 2228 
L 1259 0 
L 628 0 
L 628 4666 
z
" transform="scale(0.015625)"/>
       <path id="DejaVuSans-69" d="M 603 3500 
L 1178 3500 
L 1178 0 
L 603 0 
L 603 3500 
z
M 603 4863 
L 1178 4863 
L 1178 4134 
L 603 4134 
L 603 4863 
z
" transform="scale(0.015625)"/>
       <path id="DejaVuSans-72" d="M 2631 2963 
Q 2534 3019 2420 3045 
Q 2306 3072 2169 3072 
Q 1681 3072 1420 2755 
Q 1159 2438 1159 1844 
L 1159 0 
L 581 0 
L 581 3500 
L 1159 3500 
L 1159 2956 
Q 1341 3275 1631 3429 
Q 1922 3584 2338 3584 
Q 2397 3584 2469 3576 
Q 2541 3569 2628 3553 
L 2631 2963 
z
" transform="scale(0.015625)"/>
       <path id="DejaVuSans-73" d="M 2834 3397 
L 2834 2853 
Q 2591 2978 2328 3040 
Q 2066 3103 1784 3103 
Q 1356 3103 1142 2972 
Q 928 2841 928 2578 
Q 928 2378 1081 2264 
Q 1234 2150 1697 2047 
L 1894 2003 
Q 2506 1872 2764 1633 
Q 3022 1394 3022 966 
Q 3022 478 2636 193 
Q 2250 -91 1575 -91 
Q 1294 -91 989 -36 
Q 684 19 347 128 
L 347 722 
Q 666 556 975 473 
Q 1284 391 1588 391 
Q 1994 391 2212 530 
Q 2431 669 2431 922 
Q 2431 1156 2273 1281 
Q 2116 1406 1581 1522 
L 1381 1569 
Q 847 1681 609 1914 
Q 372 2147 372 2553 
Q 372 3047 722 3315 
Q 1072 3584 1716 3584 
Q 2034 3584 2315 3537 
Q 2597 3491 2834 3397 
z
" transform="scale(0.015625)"/>
       <path id="DejaVuSans-74" d="M 1172 4494 
L 1172 3500 
L 2356 3500 
L 2356 3053 
L 1172 3053 
L 1172 1153 
Q 1172 725 1289 603 
Q 1406 481 1766 481 
L 2356 481 
L 2356 0 
L 1766 0 
Q 1100 0 847 248 
Q 594 497 594 1153 
L 594 3053 
L 172 3053 
L 172 3500 
L 594 3500 
L 594 4494 
L 1172 4494 
z
" transform="scale(0.015625)"/>
       <path id="DejaVuSans-50" d="M 1259 4147 
L 1259 2394 
L 2053 2394 
Q 2494 2394 2734 2622 
Q 2975 2850 2975 3272 
Q 2975 3691 2734 3919 
Q 2494 4147 2053 4147 
L 1259 4147 
z
M 628 4666 
L 2053 4666 
Q 2838 4666 3239 4311 
Q 3641 3956 3641 3272 
Q 3641 2581 3239 2228 
Q 2838 1875 2053 1875 
L 1259 1875 
L 1259 0 
L 628 0 
L 628 4666 
z
" transform="scale(0.015625)"/>
       <path id="DejaVuSans-6f" d="M 1959 3097 
Q 1497 3097 1228 2736 
Q 959 2375 959 1747 
Q 959 1119 1226 758 
Q 1494 397 1959 397 
Q 2419 397 2687 759 
Q 2956 1122 2956 1747 
Q 2956 2369 2687 2733 
Q 2419 3097 1959 3097 
z
M 1959 3584 
Q 2709 3584 3137 3096 
Q 3566 2609 3566 1747 
Q 3566 888 3137 398 
Q 2709 -91 1959 -91 
Q 1206 -91 779 398 
Q 353 888 353 1747 
Q 353 2609 779 3096 
Q 1206 3584 1959 3584 
z
" transform="scale(0.015625)"/>
       <path id="DejaVuSans-3d" d="M 678 2906 
L 4684 2906 
L 4684 2381 
L 678 2381 
L 678 2906 
z
M 678 1631 
L 4684 1631 
L 4684 1100 
L 678 1100 
L 678 1631 
z
" transform="scale(0.015625)"/>
       <path id="DejaVuSans-29" d="M 513 4856 
L 1013 4856 
Q 1481 4119 1714 3412 
Q 1947 2706 1947 2009 
Q 1947 1309 1714 600 
Q 1481 -109 1013 -844 
L 513 -844 
Q 928 -128 1133 580 
Q 1338 1288 1338 2009 
Q 1338 2731 1133 3434 
Q 928 4138 513 4856 
z
" transform="scale(0.015625)"/>
      </defs>
      <use xlink:href="#DejaVuSans-49"/>
      <use xlink:href="#DejaVuSans-6e" transform="translate(29.492188 0)"/>
      <use xlink:href="#DejaVuSans-64" transform="translate(92.871094 0)"/>
      <use xlink:href="#DejaVuSans-65" transform="translate(156.347656 0)"/>
      <use xlink:href="#DejaVuSans-78" transform="translate(216.121094 0)"/>
      <use xlink:href="#DejaVuSans-20" transform="translate(275.300781 0)"/>
      <use xlink:href="#DejaVuSans-28" transform="translate(307.087891 0)"/>
      <use xlink:href="#DejaVuSans-46" transform="translate(346.101562 0)"/>
      <use xlink:href="#DejaVuSans-69" transform="translate(396.371094 0)"/>
      <use xlink:href="#DejaVuSans-72" transform="translate(424.154297 0)"/>
      <use xlink:href="#DejaVuSans-73" transform="translate(465.267578 0)"/>
      <use xlink:href="#DejaVuSans-74" transform="translate(517.367188 0)"/>
      <use xlink:href="#DejaVuSans-20" transform="translate(556.576172 0)"/>
      <use xlink:href="#DejaVuSans-50" transform="translate(588.363281 0)"/>
      <use xlink:href="#DejaVuSans-65" transform="translate(645.041016 0)"/>
      <use xlink:href="#DejaVuSans-72" transform="translate(706.564453 0)"/>
      <use xlink:href="#DejaVuSans-69" transform="translate(747.677734 0)"/>
      <use xlink:href="#DejaVuSans-6f" transform="translate(775.460938 0)"/>
      <use xlink:href="#DejaVuSans-64" transform="translate(836.642578 0)"/>
      <use xlink:href="#DejaVuSans-20" transform="translate(900.119141 0)"/>
      <use xlink:href="#DejaVuSans-3d" transform="translate(931.90625 0)"/>
      <use xlink:href="#DejaVuSans-20" transform="translate(1015.695312 0)"/>
      <use xlink:href="#DejaVuSans-31" transform="translate(1047.482422 0)"/>
      <use xlink:href="#DejaVuSans-30" transform="translate(1111.105469 0)"/>
      <use xlink:href="#DejaVuSans-30" transform="translate(1174.728516 0)"/>
      <use xlink:href="#DejaVuSans-29" transform="translate(1238.351562 0)"/>
     </g>
    </g>
   </g>
   <g id="FillBetweenPolyCollection_1">
    <defs>
     <path id="m3e42eef281" d="M 109.935 -315.680277 
L 109.935 -315.680277 
L 115.875 -312.916468 
L 121.815 -334.52691 
L 127.755 -320.932196 
L 133.695 -323.516307 
L 139.635 -320.518257 
L 145.575 -315.975318 
L 151.515 -309.017269 
L 157.455 -307.988927 
L 163.395 -316.508483 
L 169.335 -307.446496 
L 175.275 -311.223335 
L 181.215 -295.995254 
L 187.155 -307.878549 
L 193.095 -298.258362 
L 199.035 -303.501821 
L 204.975 -292.403582 
L 210.915 -290.86527 
L 216.855 -286.03177 
L 222.795 -299.789852 
L 228.735 -300.849943 
L 234.675 -287.972316 
L 240.615 -274.838693 
L 246.555 -297.053808 
L 252.495 -277.553382 
L 258.435 -274.717828 
L 264.375 -273.874071 
L 270.315 -274.675685 
L 276.255 -256.469133 
L 282.195 -273.364967 
L 288.135 -268.089545 
L 294.075 -264.602203 
L 300.015 -265.190445 
L 305.955 -271.601712 
L 311.895 -255.965993 
L 317.835 -244.713587 
L 323.775 -268.515285 
L 329.715 -263.31352 
L 335.655 -264.963608 
L 341.595 -254.064107 
L 347.535 -249.344724 
L 353.475 -258.372323 
L 359.415 -259.981247 
L 365.355 -245.184787 
L 371.295 -251.458136 
L 377.235 -263.055977 
L 383.175 -251.850902 
L 389.115 -251.391412 
L 395.055 -246.596158 
L 400.995 -239.05847 
L 406.935 -213.266179 
L 412.875 -168.968843 
L 417.117857 -186.061286 
L 418.815 -240.505306 
L 424.755 -238.633603 
L 430.695 -258.138102 
L 436.635 -264.387436 
L 442.575 -254.201905 
L 448.515 -245.999972 
L 454.455 -253.825414 
L 460.395 -248.392995 
L 466.335 -242.342178 
L 472.275 -227.254054 
L 478.215 -236.63312 
L 484.155 -223.701216 
L 490.095 -234.642961 
L 496.035 -259.26899 
L 501.975 -242.295826 
L 507.915 -232.504 
L 513.855 -236.209477 
L 519.795 -237.154137 
L 525.735 -234.223421 
L 531.675 -248.337105 
L 537.615 -241.723867 
L 543.555 -237.779553 
L 549.495 -233.420406 
L 555.435 -238.444157 
L 561.375 -231.065917 
L 567.315 -232.536815 
L 573.255 -233.162517 
L 579.195 -219.325104 
L 585.135 -232.959668 
L 591.075 -235.455988 
L 597.015 -223.256129 
L 602.955 -232.971534 
L 608.895 -215.513686 
L 614.835 -228.249576 
L 620.775 -207.178808 
L 626.715 -208.752994 
L 632.655 -212.854281 
L 638.595 -216.692434 
L 644.535 -224.724867 
L 650.475 -217.36556 
L 656.415 -209.579733 
L 662.355 -210.308606 
L 668.295 -214.841075 
L 674.235 -217.231557 
L 680.175 -218.738521 
L 686.115 -215.832456 
L 692.055 -211.145011 
L 697.995 -198.632644 
L 703.935 -186.646692 
L 709.875 -192.324925 
L 715.815 -176.908733 
L 726.846429 -105.490355 
L 727.695 -195.479874 
L 733.635 -197.349383 
L 739.575 -190.014211 
L 745.515 -178.177482 
L 751.455 -184.260549 
L 757.395 -181.583221 
L 763.335 -168.421486 
L 769.275 -167.349202 
L 775.215 -163.005797 
L 781.155 -149.387395 
L 787.095 -145.404514 
L 793.035 -151.06104 
L 798.975 -143.024331 
L 804.915 -147.89862 
L 810.855 -161.270167 
L 816.795 -149.579208 
L 822.735 -159.883145 
L 828.675 -154.919422 
L 834.615 -152.047075 
L 840.555 -144.305532 
L 846.495 -144.716019 
L 852.435 -138.603231 
L 858.375 -153.372788 
L 864.315 -154.819208 
L 870.255 -147.283066 
L 876.195 -141.399587 
L 882.135 -133.470649 
L 888.075 -147.752221 
L 894.015 -148.55895 
L 899.955 -138.829408 
L 905.895 -130.82188 
L 911.835 -136.950058 
L 917.775 -133.466555 
L 923.715 -135.123921 
L 929.655 -126.843507 
L 935.595 -128.658788 
L 941.535 -128.25907 
L 947.475 -134.347075 
L 953.415 -120.739927 
L 959.355 -121.232239 
L 965.295 -120.113385 
L 971.235 -114.553558 
L 977.175 -113.820936 
L 983.115 -117.890104 
L 989.055 -115.227122 
L 994.995 -109.987963 
L 1000.935 -111.568108 
L 1006.875 -113.742339 
L 1012.815 -102.829004 
L 1018.755 -111.414013 
L 1024.695 -99.944727 
L 1036.575 -100.932275 
L 1042.515 -104.281184 
L 1048.455 -113.409097 
L 1054.395 -113.133575 
L 1060.335 -116.384387 
L 1066.275 -107.359828 
L 1072.215 -105.500295 
L 1078.155 -112.33232 
L 1084.095 -108.208902 
L 1090.035 -116.531419 
L 1090.035 -146.885199 
L 1090.035 -146.885199 
L 1084.095 -144.389314 
L 1078.155 -158.786507 
L 1072.215 -147.790262 
L 1066.275 -163.272657 
L 1060.335 -155.340949 
L 1054.395 -158.057726 
L 1048.455 -152.015192 
L 1042.515 -140.47085 
L 1036.575 -117.77244 
L 1024.695 -130.291777 
L 1018.755 -152.889697 
L 1012.815 -151.263876 
L 1006.875 -163.332262 
L 1000.935 -148.334987 
L 994.995 -163.071672 
L 989.055 -165.328932 
L 983.115 -153.541543 
L 977.175 -163.236909 
L 971.235 -154.223367 
L 965.295 -162.126181 
L 959.355 -166.376369 
L 953.415 -174.724655 
L 947.475 -173.416611 
L 941.535 -161.86432 
L 935.595 -160.604324 
L 929.655 -158.491447 
L 923.715 -173.339873 
L 917.775 -173.793348 
L 911.835 -190.692364 
L 905.895 -194.319878 
L 899.955 -186.490894 
L 894.015 -187.597817 
L 888.075 -183.266671 
L 882.135 -204.993864 
L 876.195 -197.220651 
L 870.255 -205.385976 
L 864.315 -206.068592 
L 858.375 -211.868853 
L 852.435 -195.426659 
L 846.495 -209.357594 
L 840.555 -207.53041 
L 834.615 -212.324216 
L 828.675 -224.9953 
L 822.735 -240.966319 
L 816.795 -236.116741 
L 810.855 -239.41251 
L 804.915 -219.985458 
L 798.975 -220.968194 
L 793.035 -226.832989 
L 787.095 -246.950135 
L 781.155 -250.661307 
L 775.215 -253.972888 
L 769.275 -272.080434 
L 763.335 -264.588827 
L 757.395 -256.566489 
L 751.455 -279.080324 
L 745.515 -257.201667 
L 739.575 -248.470292 
L 733.635 -245.874236 
L 727.695 -231.773387 
L 726.846429 -113.790928 
L 715.815 -221.069678 
L 709.875 -267.061515 
L 703.935 -279.992761 
L 697.995 -301.210022 
L 692.055 -292.777094 
L 686.115 -304.693128 
L 680.175 -318.629117 
L 674.235 -288.190701 
L 668.295 -301.999201 
L 662.355 -303.869372 
L 656.415 -285.888254 
L 650.475 -294.713403 
L 644.535 -294.593954 
L 638.595 -279.282687 
L 632.655 -289.437633 
L 626.715 -253.970117 
L 620.775 -270.372772 
L 614.835 -279.024237 
L 608.895 -282.679048 
L 602.955 -287.265742 
L 597.015 -285.855957 
L 591.075 -302.145793 
L 585.135 -302.341421 
L 579.195 -287.403239 
L 573.255 -266.6723 
L 567.315 -302.296867 
L 561.375 -296.737993 
L 555.435 -297.227942 
L 549.495 -293.120919 
L 543.555 -297.434788 
L 537.615 -300.54369 
L 531.675 -316.058919 
L 525.735 -319.522002 
L 519.795 -313.257015 
L 513.855 -334.818312 
L 507.915 -308.80977 
L 501.975 -309.967727 
L 496.035 -339.987135 
L 490.095 -324.79115 
L 484.155 -315.650725 
L 478.215 -338.256393 
L 472.275 -328.088946 
L 466.335 -305.98432 
L 460.395 -316.790144 
L 454.455 -320.298321 
L 448.515 -347.477323 
L 442.575 -321.308516 
L 436.635 -330.064893 
L 430.695 -318.419143 
L 424.755 -292.644849 
L 418.815 -277.043897 
L 417.117857 -213.301733 
L 412.875 -183.695232 
L 406.935 -236.666849 
L 400.995 -286.968303 
L 395.055 -302.884608 
L 389.115 -316.471439 
L 383.175 -303.516475 
L 377.235 -322.455256 
L 371.295 -317.592749 
L 365.355 -303.267958 
L 359.415 -315.576955 
L 353.475 -333.9234 
L 347.535 -317.712626 
L 341.595 -320.856893 
L 335.655 -297.968041 
L 329.715 -307.404151 
L 323.775 -309.458064 
L 317.835 -295.595927 
L 311.895 -307.394751 
L 305.955 -319.858699 
L 300.015 -308.198835 
L 294.075 -297.565567 
L 288.135 -315.349274 
L 282.195 -302.071577 
L 276.255 -333.223357 
L 270.315 -320.615111 
L 264.375 -297.581808 
L 258.435 -308.107602 
L 252.495 -331.828441 
L 246.555 -331.450766 
L 240.615 -319.105 
L 234.675 -349.116073 
L 228.735 -348.768882 
L 222.795 -359.894299 
L 216.855 -352.41719 
L 210.915 -355.760071 
L 204.975 -366.457347 
L 199.035 -373.816013 
L 193.095 -377.567143 
L 187.155 -361.504988 
L 181.215 -337.630487 
L 175.275 -381.598057 
L 169.335 -374.809469 
L 163.395 -387.159273 
L 157.455 -382.70103 
L 151.515 -345.679762 
L 145.575 -363.562881 
L 139.635 -358.431745 
L 133.695 -379.162258 
L 127.755 -353.029608 
L 121.815 -364.850762 
L 115.875 -360.591381 
L 109.935 -315.680277 
z
" style="stroke: #000000; stroke-opacity: 0.2"/>
    </defs>
    <g clip-path="url(#p00fc2f3757)">
     <use xlink:href="#m3e42eef281" x="0" y="432" style="fill-opacity: 0.2; stroke: #000000; stroke-opacity: 0.2"/>
    </g>
   </g>
   <g id="FillBetweenPolyCollection_2"/>
   <g id="FillBetweenPolyCollection_3"/>
   <g id="FillBetweenPolyCollection_4"/>
   <g id="FillBetweenPolyCollection_5"/>
   <g id="line2d_16">
    <path d="M 109.935 116.319723 
L 115.875 99.578954 
L 121.815 85.753782 
L 127.755 97.432426 
L 133.695 87.179537 
L 139.635 94.729187 
L 145.575 98.847013 
L 151.515 107.018235 
L 157.455 93.519107 
L 163.395 87.834435 
L 169.335 95.626271 
L 175.275 96.06544 
L 181.215 121.159887 
L 187.155 105.244476 
L 193.095 101.639819 
L 199.035 99.829943 
L 204.975 107.21164 
L 210.915 112.758178 
L 216.855 115.282375 
L 222.795 108.830638 
L 228.735 114.480753 
L 234.675 121.877149 
L 240.615 136.223834 
L 246.555 123.079248 
L 252.495 134.589971 
L 258.435 143.809771 
L 264.375 148.436615 
L 270.315 137.205619 
L 276.255 142.491906 
L 282.195 144.428373 
L 288.135 145.211064 
L 294.075 152.406338 
L 300.015 149.744722 
L 305.955 139.372872 
L 311.895 151.613286 
L 317.835 165.193426 
L 323.775 145.631505 
L 329.715 148.818755 
L 335.655 152.614045 
L 341.595 150.987504 
L 347.535 151.034073 
L 353.475 142.641653 
L 359.415 147.30466 
L 365.355 161.277856 
L 371.295 150.019775 
L 377.235 141.19517 
L 383.175 156.1265 
L 389.115 149.788367 
L 395.055 157.554391 
L 400.995 168.986613 
L 406.935 203.59163 
L 412.875 254.276022 
L 417.117857 228.997583 
L 418.815 169.058595 
L 424.755 165.996814 
L 430.695 147.101037 
L 436.635 140.835236 
L 442.575 146.907214 
L 448.515 139.445555 
L 454.455 144.870032 
L 460.395 153.146283 
L 466.335 158.834363 
L 472.275 161.040889 
L 478.215 149.602812 
L 484.155 158.963173 
L 490.095 153.854409 
L 496.035 138.121185 
L 501.975 156.173516 
L 507.915 160.06035 
L 513.855 148.182897 
L 519.795 161.224986 
L 525.735 158.812599 
L 531.675 154.656108 
L 537.615 164.189772 
L 543.555 169.495532 
L 549.495 168.814213 
L 555.435 166.919413 
L 561.375 170.207986 
L 567.315 167.791226 
L 573.255 181.784222 
L 579.195 181.547061 
L 585.135 163.035063 
L 591.075 164.644536 
L 597.015 175.923137 
L 602.955 172.374461 
L 608.895 179.575398 
L 614.835 179.668794 
L 620.775 192.413949 
L 626.715 197.756247 
L 632.655 182.463188 
L 638.595 186.983778 
L 644.535 178.207182 
L 650.475 181.700245 
L 656.415 184.266007 
L 662.355 176.299226 
L 668.295 176.263712 
L 674.235 179.288871 
L 680.175 168.030717 
L 686.115 171.564302 
L 692.055 182.887629 
L 697.995 185.499519 
L 703.935 198.421394 
L 709.875 204.008851 
L 715.815 230.202592 
L 726.846429 322.72839 
L 727.695 218.733689 
L 733.635 213.807368 
L 739.575 216.634802 
L 745.515 220.333949 
L 751.455 207.822227 
L 757.395 218.198337 
L 763.335 222.964777 
L 769.275 221.948695 
L 775.215 230.448284 
L 781.155 236.822362 
L 787.095 241.981443 
L 793.035 249.649261 
L 798.975 255.702402 
L 804.915 253.830771 
L 810.855 237.255654 
L 816.795 243.947074 
L 822.735 239.628833 
L 828.675 248.602515 
L 834.615 254.209963 
L 840.555 261.211316 
L 846.495 260.16554 
L 852.435 269.095958 
L 858.375 253.910119 
L 864.315 256.189178 
L 870.255 259.674403 
L 876.195 265.804775 
L 882.135 265.595329 
L 888.075 266.339533 
L 894.015 266.927766 
L 899.955 271.861688 
L 911.835 273.431977 
L 917.775 281.856632 
L 923.715 281.034007 
L 929.655 290.318718 
L 935.595 290.736778 
L 941.535 290.912605 
L 947.475 283.307025 
L 953.415 289.646019 
L 959.355 292.677112 
L 965.295 293.29761 
L 971.235 297.611537 
L 977.175 297.239549 
L 983.115 298.178214 
L 989.055 296.841684 
L 994.995 298.607143 
L 1000.935 304.983702 
L 1006.875 296.198687 
L 1012.815 308.292521 
L 1018.755 305.384797 
L 1024.695 318.372315 
L 1036.575 323.808509 
L 1042.515 311.995558 
L 1048.455 301.826915 
L 1054.395 300.821946 
L 1060.335 299.103787 
L 1066.275 302.221708 
L 1072.215 307.412051 
L 1078.155 299.06694 
L 1084.095 307.928208 
L 1090.035 303.456513 
L 1090.035 303.456513 
" clip-path="url(#p00fc2f3757)" style="fill: none; stroke: #000000; stroke-width: 1.5; stroke-linecap: round"/>
   </g>
   <g id="line2d_17">
    <path d="M 109.935 116.319723 
L 115.875 104.958509 
L 121.815 102.965313 
L 127.755 104.46021 
L 133.695 95.49083 
L 139.635 108.74558 
L 145.575 119.508836 
L 151.515 114.426188 
L 157.455 94.394573 
L 163.395 103.961911 
L 169.335 105.955107 
L 175.275 128.876855 
L 181.215 122.000331 
L 187.155 111.536054 
L 193.095 113.628909 
L 199.035 117.117002 
L 204.975 135.155421 
L 210.915 124.093186 
L 216.855 151.001325 
L 222.795 150.802006 
L 228.735 170.036342 
L 234.675 175.61729 
L 240.615 182.892453 
L 246.555 202.22645 
L 252.495 201.528831 
L 258.435 215.979499 
L 264.375 226.842414 
L 270.315 221.161807 
L 276.255 233.718939 
L 282.195 232.323702 
L 288.135 221.161807 
L 294.075 230.529826 
L 300.015 227.141394 
L 305.955 226.045136 
L 311.895 220.464189 
L 317.835 206.312501 
L 323.775 203.920666 
L 329.715 209.800593 
L 335.655 217.175416 
L 341.595 203.621687 
L 347.535 186.579865 
L 353.475 175.41797 
L 359.415 183.191433 
L 365.355 184.188031 
L 371.295 185.483608 
L 377.235 188.67272 
L 383.175 197.343121 
L 389.115 190.765576 
L 395.055 196.944482 
L 400.995 216.178818 
L 406.935 247.372328 
L 412.875 290.624671 
L 417.117857 243.884236 
L 418.815 214.484602 
L 424.755 208.006717 
L 430.695 208.106377 
L 436.635 202.425769 
L 442.575 209.003315 
L 448.515 213.488005 
L 454.455 211.494809 
L 460.395 223.055343 
L 466.335 233.718939 
L 472.275 226.842414 
L 478.215 225.945477 
L 484.155 221.062148 
L 490.095 222.258065 
L 496.035 229.433569 
L 501.975 226.443775 
L 507.915 219.567251 
L 513.855 215.082561 
L 519.795 220.464189 
L 525.735 227.739352 
L 531.675 225.845817 
L 537.615 231.127785 
L 543.555 235.512815 
L 549.495 232.822001 
L 555.435 237.207031 
L 561.375 234.117578 
L 567.315 246.276071 
L 573.255 247.571648 
L 579.195 244.980494 
L 585.135 250.063142 
L 591.075 261.524016 
L 597.015 262.620274 
L 602.955 262.819593 
L 608.895 261.922655 
L 614.835 257.537625 
L 620.775 262.221635 
L 626.715 247.671308 
L 632.655 248.269266 
L 638.595 248.069947 
L 644.535 240.994103 
L 650.475 223.254663 
L 656.415 215.281881 
L 662.355 219.068952 
L 668.295 227.540033 
L 674.235 225.148198 
L 680.175 233.3203 
L 686.115 229.134589 
L 692.055 239.698526 
L 697.995 230.330507 
L 703.935 240.495804 
L 709.875 246.276071 
L 715.815 278.665498 
L 726.846429 265.709727 
L 727.695 242.688319 
L 733.635 245.379133 
L 739.575 248.468586 
L 745.515 247.870627 
L 751.455 250.362122 
L 757.395 245.977091 
L 763.335 253.252255 
L 769.275 248.169606 
L 775.215 248.468586 
L 781.155 239.698526 
L 787.095 244.781174 
L 793.035 247.770967 
L 798.975 243.684917 
L 804.915 255.44477 
L 810.855 234.914856 
L 816.795 224.45058 
L 822.735 224.151601 
L 828.675 217.873035 
L 834.615 224.749559 
L 846.495 231.825403 
L 852.435 242.787979 
L 858.375 245.080153 
L 864.315 243.186618 
L 870.255 246.874029 
L 876.195 253.451575 
L 882.135 256.740347 
L 888.075 255.145791 
L 894.015 250.86042 
L 899.955 261.125377 
L 905.895 266.108366 
L 911.835 264.812789 
L 917.775 273.08455 
L 923.715 274.479787 
L 929.655 278.067539 
L 935.595 267.104964 
L 941.535 263.317892 
L 947.475 243.983896 
L 953.415 245.478793 
L 959.355 238.303289 
L 965.295 237.60567 
L 971.235 237.60567 
L 977.175 229.832208 
L 983.115 228.038332 
L 989.055 236.110774 
L 994.995 214.783582 
L 1000.935 237.007712 
L 1006.875 228.63629 
L 1012.815 238.303289 
L 1018.755 244.980494 
L 1024.695 272.586251 
L 1036.575 268.79918 
L 1042.515 250.760761 
L 1048.455 247.970287 
L 1054.395 263.018913 
L 1060.335 257.836605 
L 1066.275 250.760761 
L 1072.215 254.248853 
L 1078.155 249.465184 
L 1084.095 254.248853 
L 1090.035 258.434563 
L 1090.035 258.434563 
" clip-path="url(#p00fc2f3757)" style="fill: none; stroke: #ff7f0e; stroke-width: 1.5; stroke-linecap: round"/>
   </g>
   <g id="line2d_18">
    <path d="M 109.935 116.319723 
L 115.875 130.580776 
L 121.815 140.453812 
L 127.755 143.744825 
L 133.695 145.938833 
L 139.635 138.259804 
L 145.575 141.550816 
L 151.515 156.360371 
L 157.455 103.704177 
L 163.395 116.868225 
L 169.335 147.035837 
L 175.275 150.875351 
L 181.215 132.774784 
L 187.155 136.065796 
L 193.095 123.45025 
L 199.035 139.356808 
L 204.975 135.517294 
L 210.915 142.64782 
L 216.855 109.737699 
L 222.795 130.032274 
L 228.735 114.674217 
L 234.675 141.002314 
L 240.615 151.972355 
L 246.555 153.617861 
L 252.495 182.688468 
L 258.435 178.300452 
L 264.375 199.143529 
L 270.315 188.72199 
L 276.255 192.561505 
L 282.195 199.143529 
L 288.135 179.397456 
L 294.075 177.203448 
L 300.015 168.975918 
L 305.955 214.501586 
L 311.895 190.915999 
L 317.835 186.527982 
L 323.775 188.173488 
L 329.715 183.785472 
L 335.655 171.169926 
L 341.595 182.139966 
L 347.535 205.725553 
L 353.475 188.173488 
L 359.415 196.949521 
L 365.355 207.371059 
L 371.295 179.945958 
L 377.235 178.848954 
L 383.175 212.856079 
L 395.055 177.75195 
L 400.995 222.180614 
L 406.935 230.956646 
L 412.875 267.706282 
L 417.117857 231.505148 
L 418.815 194.755513 
L 424.755 184.882476 
L 430.695 186.527982 
L 436.635 177.203448 
L 442.575 183.23697 
L 448.515 177.75195 
L 454.455 183.785472 
L 460.395 204.628549 
L 466.335 234.79616 
L 478.215 230.408144 
L 484.155 216.695594 
L 490.095 217.792598 
L 496.035 205.177051 
L 501.975 215.050088 
L 507.915 219.438104 
L 513.855 202.983043 
L 519.795 216.147092 
L 525.735 192.013003 
L 531.675 176.106444 
L 537.615 221.632112 
L 543.555 205.177051 
L 549.495 200.240533 
L 555.435 181.042962 
L 567.315 240.829683 
L 573.255 227.665634 
L 579.195 234.247658 
L 585.135 222.180614 
L 591.075 239.732679 
L 597.015 245.217699 
L 602.955 220.535108 
L 608.895 215.59859 
L 614.835 215.59859 
L 620.775 220.535108 
L 626.715 238.635675 
L 632.655 218.889602 
L 638.595 225.471626 
L 644.535 238.087173 
L 650.475 233.699156 
L 656.415 222.729116 
L 662.355 216.147092 
L 668.295 241.926687 
L 674.235 225.471626 
L 680.175 250.154217 
L 686.115 238.635675 
L 692.055 222.180614 
L 697.995 229.31114 
L 703.935 228.762638 
L 709.875 241.926687 
L 715.815 255.639237 
L 726.846429 247.960209 
L 727.695 204.628549 
L 733.635 198.046525 
L 739.575 193.658509 
L 745.515 193.110007 
L 751.455 232.05365 
L 757.395 245.766201 
L 763.335 231.505148 
L 769.275 233.699156 
L 775.215 234.79616 
L 781.155 251.251221 
L 787.095 241.378185 
L 793.035 249.605715 
L 798.975 240.281181 
L 804.915 240.281181 
L 810.855 203.531545 
L 816.795 223.277618 
L 822.735 215.59859 
L 828.675 223.82612 
L 834.615 218.889602 
L 840.555 232.602152 
L 846.495 226.56863 
L 852.435 227.117132 
L 858.375 237.538671 
L 864.315 226.020128 
L 870.255 252.348225 
L 876.195 258.930249 
L 882.135 232.602152 
L 888.075 239.184177 
L 894.015 234.247658 
L 899.955 220.535108 
L 905.895 211.210573 
L 911.835 229.31114 
L 917.775 240.829683 
L 923.715 234.247658 
L 929.655 228.762638 
L 935.595 233.150654 
L 941.535 235.893164 
L 947.475 222.180614 
L 953.415 243.572193 
L 959.355 230.956646 
L 965.295 243.023691 
L 971.235 244.669197 
L 977.175 245.217699 
L 983.115 224.923124 
L 989.055 224.923124 
L 994.995 244.669197 
L 1000.935 237.538671 
L 1006.875 242.475189 
L 1012.815 243.023691 
L 1018.755 230.408144 
L 1024.695 264.963772 
L 1036.575 253.445229 
L 1042.515 230.408144 
L 1048.455 228.214136 
L 1054.395 234.79616 
L 1060.335 232.602152 
L 1066.275 243.023691 
L 1072.215 252.348225 
L 1078.155 241.926687 
L 1084.095 216.147092 
L 1090.035 223.277618 
L 1090.035 223.277618 
" clip-path="url(#p00fc2f3757)" style="fill: none; stroke: #2ca02c; stroke-width: 1.5; stroke-linecap: round"/>
   </g>
   <g id="line2d_19">
    <path d="M 109.935 116.319723 
L 115.875 107.266448 
L 121.815 99.81081 
L 127.755 107.266448 
L 133.695 105.136266 
L 139.635 149.870096 
L 145.575 129.100818 
L 151.515 116.852269 
L 157.455 132.828637 
L 163.395 153.06537 
L 169.335 138.154093 
L 175.275 154.130461 
L 181.215 177.562467 
L 187.155 157.325735 
L 193.095 156.260643 
L 199.035 142.414458 
L 204.975 151.467733 
L 210.915 142.947003 
L 216.855 165.846464 
L 222.795 150.935187 
L 228.735 178.627559 
L 234.675 165.846464 
L 240.615 180.757741 
L 246.555 190.876107 
L 252.495 185.550651 
L 258.435 191.408653 
L 264.375 193.00629 
L 270.315 171.17192 
L 276.255 185.018106 
L 282.195 214.308114 
L 288.135 205.787384 
L 294.075 200.994474 
L 300.015 195.136472 
L 305.955 234.012301 
L 311.895 193.00629 
L 317.835 201.527019 
L 323.775 204.722293 
L 329.715 203.124656 
L 335.655 204.189747 
L 341.595 195.136472 
L 347.535 196.734109 
L 353.475 207.385021 
L 359.415 190.876107 
L 365.355 212.710477 
L 371.295 202.592111 
L 377.235 203.124656 
L 383.175 210.580295 
L 389.115 198.331746 
L 395.055 200.994474 
L 400.995 202.592111 
L 406.935 218.568479 
L 412.875 276.083404 
L 417.117857 205.787384 
L 418.815 197.266655 
L 424.755 198.331746 
L 430.695 191.941199 
L 436.635 213.775568 
L 442.575 212.177932 
L 448.515 218.568479 
L 454.455 205.254839 
L 460.395 195.669018 
L 466.335 236.142484 
L 472.275 203.657202 
L 478.215 203.657202 
L 484.155 186.083197 
L 490.095 197.266655 
L 496.035 188.745925 
L 501.975 211.11284 
L 507.915 224.959026 
L 513.855 218.035933 
L 519.795 222.296298 
L 525.735 218.035933 
L 531.675 200.994474 
L 537.615 200.994474 
L 543.555 205.254839 
L 549.495 198.864291 
L 555.435 210.047749 
L 561.375 196.201563 
L 567.315 214.308114 
L 573.255 205.787384 
L 579.195 206.852476 
L 585.135 208.450112 
L 591.075 200.461928 
L 597.015 207.385021 
L 602.955 212.177932 
L 608.895 206.852476 
L 614.835 205.254839 
L 620.775 221.763752 
L 626.715 208.450112 
L 632.655 201.527019 
L 638.595 196.734109 
L 644.535 214.84066 
L 650.475 207.917567 
L 656.415 222.828844 
L 662.355 213.243023 
L 668.295 208.450112 
L 674.235 216.970842 
L 680.175 219.101024 
L 686.115 211.645386 
L 692.055 242.000485 
L 697.995 209.515204 
L 703.935 231.882119 
L 709.875 230.817028 
L 715.815 248.391032 
L 726.846429 234.544847 
L 727.695 193.00629 
L 733.635 207.917567 
L 739.575 192.473744 
L 745.515 203.657202 
L 751.455 178.627559 
L 757.395 205.254839 
L 763.335 190.343562 
L 769.275 191.941199 
L 775.215 208.982658 
L 781.155 205.787384 
L 787.095 210.047749 
L 793.035 218.035933 
L 798.975 218.035933 
L 804.915 215.373205 
L 810.855 194.071381 
L 816.795 196.201563 
L 822.735 202.059565 
L 828.675 196.201563 
L 834.615 197.7992 
L 840.555 207.385021 
L 846.495 227.621754 
L 852.435 215.373205 
L 858.375 214.308114 
L 864.315 204.189747 
L 870.255 213.775568 
L 876.195 211.645386 
L 882.135 210.047749 
L 888.075 205.787384 
L 894.015 211.645386 
L 899.955 212.177932 
L 905.895 228.1543 
L 911.835 211.11284 
L 917.775 213.243023 
L 923.715 238.805212 
L 929.655 212.177932 
L 935.595 247.858487 
L 941.535 236.675029 
L 947.475 230.817028 
L 953.415 221.231207 
L 959.355 221.763752 
L 965.295 229.751936 
L 971.235 219.63357 
L 977.175 220.698661 
L 983.115 244.130668 
L 989.055 223.361389 
L 994.995 230.817028 
L 1000.935 242.533031 
L 1006.875 229.219391 
L 1012.815 234.544847 
L 1018.755 232.414664 
L 1024.695 241.46794 
L 1036.575 240.935394 
L 1042.515 229.751936 
L 1054.395 212.710477 
L 1060.335 228.686845 
L 1066.275 231.882119 
L 1072.215 226.024117 
L 1078.155 247.325941 
L 1084.095 236.675029 
L 1090.035 221.763752 
L 1090.035 221.763752 
" clip-path="url(#p00fc2f3757)" style="fill: none; stroke: #d62728; stroke-width: 1.5; stroke-linecap: round"/>
   </g>
   <g id="line2d_20">
    <path d="M 109.935 116.319723 
L 115.875 131.235931 
L 121.815 131.687937 
L 127.755 149.316183 
L 133.695 138.468032 
L 139.635 140.276057 
L 145.575 153.38424 
L 151.515 141.18007 
L 157.455 138.468032 
L 163.395 175.984555 
L 169.335 182.312643 
L 175.275 189.092737 
L 181.215 205.364964 
L 187.155 195.872832 
L 193.095 187.736718 
L 199.035 167.848441 
L 204.975 178.244586 
L 210.915 180.052611 
L 216.855 192.708788 
L 222.795 201.296907 
L 228.735 198.584869 
L 234.675 194.516813 
L 240.615 188.188725 
L 246.555 204.008945 
L 252.495 201.296907 
L 258.435 208.077002 
L 264.375 224.801235 
L 270.315 227.965279 
L 276.255 225.253241 
L 282.195 222.993209 
L 288.135 219.829165 
L 294.075 211.241046 
L 300.015 217.569134 
L 305.955 230.22531 
L 311.895 231.129323 
L 317.835 220.733178 
L 323.775 239.717442 
L 329.715 217.117128 
L 335.655 229.321298 
L 341.595 228.869291 
L 347.535 210.337033 
L 353.475 204.008945 
L 359.415 216.213115 
L 365.355 212.145058 
L 371.295 231.129323 
L 377.235 221.637191 
L 383.175 243.333493 
L 389.115 226.60926 
L 395.055 242.881487 
L 400.995 250.113587 
L 406.935 262.769764 
L 412.875 316.558513 
L 417.117857 256.441675 
L 418.815 234.745373 
L 424.755 233.389354 
L 430.695 221.185184 
L 436.635 224.349228 
L 442.575 245.593524 
L 448.515 225.253241 
L 454.455 221.185184 
L 460.395 240.169449 
L 466.335 265.481801 
L 472.275 257.345688 
L 478.215 259.153713 
L 484.155 251.469606 
L 490.095 236.101392 
L 496.035 252.373619 
L 501.975 240.169449 
L 507.915 189.544743 
L 513.855 151.124208 
L 519.795 199.036876 
L 525.735 235.649386 
L 531.675 224.801235 
L 537.615 232.485342 
L 543.555 237.909417 
L 549.495 214.857096 
L 555.435 266.83782 
L 561.375 252.825625 
L 567.315 254.63365 
L 573.255 252.825625 
L 579.195 241.525468 
L 585.135 261.865751 
L 591.075 239.717442 
L 597.015 245.141518 
L 602.955 232.937348 
L 608.895 222.089197 
L 614.835 213.501077 
L 620.775 230.22531 
L 626.715 244.237505 
L 632.655 224.801235 
L 638.595 229.773304 
L 644.535 237.005405 
L 650.475 232.937348 
L 656.415 228.417285 
L 662.355 230.677317 
L 668.295 204.912958 
L 674.235 218.925153 
L 680.175 244.689512 
L 686.115 241.073461 
L 692.055 260.509732 
L 697.995 245.141518 
L 703.935 255.085657 
L 709.875 260.057726 
L 715.815 252.825625 
L 726.846429 299.382274 
L 727.695 259.153713 
L 733.635 272.713902 
L 739.575 270.453871 
L 745.515 260.057726 
L 751.455 268.193839 
L 757.395 278.137978 
L 763.335 273.165908 
L 769.275 234.745373 
L 775.215 270.001864 
L 781.155 260.057726 
L 787.095 269.549858 
L 793.035 273.165908 
L 798.975 267.741833 
L 804.915 270.453871 
L 810.855 260.057726 
L 816.795 228.869291 
L 822.735 227.965279 
L 828.675 251.921612 
L 834.615 237.005405 
L 840.555 240.621455 
L 846.495 234.293367 
L 852.435 245.141518 
L 858.375 254.181644 
L 864.315 259.60572 
L 870.255 245.141518 
L 876.195 225.253241 
L 882.135 242.42948 
L 888.075 260.509732 
L 894.015 256.893682 
L 899.955 261.413745 
L 905.895 226.157254 
L 911.835 242.881487 
L 917.775 255.085657 
L 923.715 246.949543 
L 929.655 259.153713 
L 935.595 264.577789 
L 941.535 262.317757 
L 947.475 263.673776 
L 953.415 298.478261 
L 959.355 298.478261 
L 965.295 275.877946 
L 971.235 244.689512 
L 977.175 252.825625 
L 983.115 234.745373 
L 989.055 267.289827 
L 994.995 273.617915 
L 1000.935 290.342148 
L 1006.875 262.769764 
L 1012.815 278.589984 
L 1018.755 265.481801 
L 1024.695 288.534123 
L 1036.575 292.150173 
L 1042.515 284.918072 
L 1048.455 296.670236 
L 1054.395 290.342148 
L 1060.335 270.001864 
L 1066.275 292.602179 
L 1072.215 290.794154 
L 1078.155 327.85867 
L 1084.095 285.370078 
L 1090.035 274.973934 
L 1090.035 274.973934 
" clip-path="url(#p00fc2f3757)" style="fill: none; stroke: #9467bd; stroke-width: 1.5; stroke-linecap: round"/>
   </g>
   <g id="line2d_21"/>
   <g id="line2d_22"/>
   <g id="line2d_23"/>
   <g id="line2d_24"/>
   <g id="line2d_25"/>
   <g id="line2d_26">
    <path d="M 699.692143 346.416 
L 699.692143 30.48 
" clip-path="url(#p00fc2f3757)" style="fill: none; stroke-dasharray: 7.4,3.2; stroke-dashoffset: 0; stroke: #c44e52; stroke-width: 2"/>
   </g>
   <g id="patch_3">
    <path d="M 60.93 346.416 
L 60.93 30.48 
" style="fill: none; stroke: #ffffff; stroke-width: 1.25; stroke-linejoin: miter; stroke-linecap: square"/>
   </g>
   <g id="patch_4">
    <path d="M 1139.04 346.416 
L 1139.04 30.48 
" style="fill: none; stroke: #ffffff; stroke-width: 1.25; stroke-linejoin: miter; stroke-linecap: square"/>
   </g>
   <g id="patch_5">
    <path d="M 60.93 346.416 
L 1139.04 346.416 
" style="fill: none; stroke: #ffffff; stroke-width: 1.25; stroke-linejoin: miter; stroke-linecap: square"/>
   </g>
   <g id="patch_6">
    <path d="M 60.93 30.48 
L 1139.04 30.48 
" style="fill: none; stroke: #ffffff; stroke-width: 1.25; stroke-linejoin: miter; stroke-linecap: square"/>
   </g>
   <g id="text_18">
    <g id="patch_7">
     <path d="M 869.257487 71.152738 
L 1121.4778 71.152738 
L 1121.4778 42.2768 
L 869.257487 42.2768 
z
" style="fill: #ffffff; opacity: 0.4; stroke: #ffffff; stroke-linejoin: miter"/>
    </g>
    <!-- Note: Shaded regions represent the variation in -->
    <g style="fill: #262626" transform="translate(879.079362 53.875237) scale(0.1 -0.1)">
     <defs>
      <path id="DejaVuSans-4e" d="M 628 4666 
L 1478 4666 
L 3547 763 
L 3547 4666 
L 4159 4666 
L 4159 0 
L 3309 0 
L 1241 3903 
L 1241 0 
L 628 0 
L 628 4666 
z
" transform="scale(0.015625)"/>
      <path id="DejaVuSans-3a" d="M 750 794 
L 1409 794 
L 1409 0 
L 750 0 
L 750 794 
z
M 750 3309 
L 1409 3309 
L 1409 2516 
L 750 2516 
L 750 3309 
z
" transform="scale(0.015625)"/>
      <path id="DejaVuSans-53" d="M 3425 4513 
L 3425 3897 
Q 3066 4069 2747 4153 
Q 2428 4238 2131 4238 
Q 1616 4238 1336 4038 
Q 1056 3838 1056 3469 
Q 1056 3159 1242 3001 
Q 1428 2844 1947 2747 
L 2328 2669 
Q 3034 2534 3370 2195 
Q 3706 1856 3706 1288 
Q 3706 609 3251 259 
Q 2797 -91 1919 -91 
Q 1588 -91 1214 -16 
Q 841 59 441 206 
L 441 856 
Q 825 641 1194 531 
Q 1563 422 1919 422 
Q 2459 422 2753 634 
Q 3047 847 3047 1241 
Q 3047 1584 2836 1778 
Q 2625 1972 2144 2069 
L 1759 2144 
Q 1053 2284 737 2584 
Q 422 2884 422 3419 
Q 422 4038 858 4394 
Q 1294 4750 2059 4750 
Q 2388 4750 2728 4690 
Q 3069 4631 3425 4513 
z
" transform="scale(0.015625)"/>
      <path id="DejaVuSans-68" d="M 3513 2113 
L 3513 0 
L 2938 0 
L 2938 2094 
Q 2938 2591 2744 2837 
Q 2550 3084 2163 3084 
Q 1697 3084 1428 2787 
Q 1159 2491 1159 1978 
L 1159 0 
L 581 0 
L 581 4863 
L 1159 4863 
L 1159 2956 
Q 1366 3272 1645 3428 
Q 1925 3584 2291 3584 
Q 2894 3584 3203 3211 
Q 3513 2838 3513 2113 
z
" transform="scale(0.015625)"/>
      <path id="DejaVuSans-61" d="M 2194 1759 
Q 1497 1759 1228 1600 
Q 959 1441 959 1056 
Q 959 750 1161 570 
Q 1363 391 1709 391 
Q 2188 391 2477 730 
Q 2766 1069 2766 1631 
L 2766 1759 
L 2194 1759 
z
M 3341 1997 
L 3341 0 
L 2766 0 
L 2766 531 
Q 2569 213 2275 61 
Q 1981 -91 1556 -91 
Q 1019 -91 701 211 
Q 384 513 384 1019 
Q 384 1609 779 1909 
Q 1175 2209 1959 2209 
L 2766 2209 
L 2766 2266 
Q 2766 2663 2505 2880 
Q 2244 3097 1772 3097 
Q 1472 3097 1187 3025 
Q 903 2953 641 2809 
L 641 3341 
Q 956 3463 1253 3523 
Q 1550 3584 1831 3584 
Q 2591 3584 2966 3190 
Q 3341 2797 3341 1997 
z
" transform="scale(0.015625)"/>
      <path id="DejaVuSans-67" d="M 2906 1791 
Q 2906 2416 2648 2759 
Q 2391 3103 1925 3103 
Q 1463 3103 1205 2759 
Q 947 2416 947 1791 
Q 947 1169 1205 825 
Q 1463 481 1925 481 
Q 2391 481 2648 825 
Q 2906 1169 2906 1791 
z
M 3481 434 
Q 3481 -459 3084 -895 
Q 2688 -1331 1869 -1331 
Q 1566 -1331 1297 -1286 
Q 1028 -1241 775 -1147 
L 775 -588 
Q 1028 -725 1275 -790 
Q 1522 -856 1778 -856 
Q 2344 -856 2625 -561 
Q 2906 -266 2906 331 
L 2906 616 
Q 2728 306 2450 153 
Q 2172 0 1784 0 
Q 1141 0 747 490 
Q 353 981 353 1791 
Q 353 2603 747 3093 
Q 1141 3584 1784 3584 
Q 2172 3584 2450 3431 
Q 2728 3278 2906 2969 
L 2906 3500 
L 3481 3500 
L 3481 434 
z
" transform="scale(0.015625)"/>
      <path id="DejaVuSans-70" d="M 1159 525 
L 1159 -1331 
L 581 -1331 
L 581 3500 
L 1159 3500 
L 1159 2969 
Q 1341 3281 1617 3432 
Q 1894 3584 2278 3584 
Q 2916 3584 3314 3078 
Q 3713 2572 3713 1747 
Q 3713 922 3314 415 
Q 2916 -91 2278 -91 
Q 1894 -91 1617 61 
Q 1341 213 1159 525 
z
M 3116 1747 
Q 3116 2381 2855 2742 
Q 2594 3103 2138 3103 
Q 1681 3103 1420 2742 
Q 1159 2381 1159 1747 
Q 1159 1113 1420 752 
Q 1681 391 2138 391 
Q 2594 391 2855 752 
Q 3116 1113 3116 1747 
z
" transform="scale(0.015625)"/>
      <path id="DejaVuSans-76" d="M 191 3500 
L 800 3500 
L 1894 563 
L 2988 3500 
L 3597 3500 
L 2284 0 
L 1503 0 
L 191 3500 
z
" transform="scale(0.015625)"/>
     </defs>
     <use xlink:href="#DejaVuSans-4e"/>
     <use xlink:href="#DejaVuSans-6f" transform="translate(74.804688 0)"/>
     <use xlink:href="#DejaVuSans-74" transform="translate(135.986328 0)"/>
     <use xlink:href="#DejaVuSans-65" transform="translate(175.195312 0)"/>
     <use xlink:href="#DejaVuSans-3a" transform="translate(236.71875 0)"/>
     <use xlink:href="#DejaVuSans-20" transform="translate(270.410156 0)"/>
     <use xlink:href="#DejaVuSans-53" transform="translate(302.197266 0)"/>
     <use xlink:href="#DejaVuSans-68" transform="translate(365.673828 0)"/>
     <use xlink:href="#DejaVuSans-61" transform="translate(429.052734 0)"/>
     <use xlink:href="#DejaVuSans-64" transform="translate(490.332031 0)"/>
     <use xlink:href="#DejaVuSans-65" transform="translate(553.808594 0)"/>
     <use xlink:href="#DejaVuSans-64" transform="translate(615.332031 0)"/>
     <use xlink:href="#DejaVuSans-20" transform="translate(678.808594 0)"/>
     <use xlink:href="#DejaVuSans-72" transform="translate(710.595703 0)"/>
     <use xlink:href="#DejaVuSans-65" transform="translate(749.458984 0)"/>
     <use xlink:href="#DejaVuSans-67" transform="translate(810.982422 0)"/>
     <use xlink:href="#DejaVuSans-69" transform="translate(874.458984 0)"/>
     <use xlink:href="#DejaVuSans-6f" transform="translate(902.242188 0)"/>
     <use xlink:href="#DejaVuSans-6e" transform="translate(963.423828 0)"/>
     <use xlink:href="#DejaVuSans-73" transform="translate(1026.802734 0)"/>
     <use xlink:href="#DejaVuSans-20" transform="translate(1078.902344 0)"/>
     <use xlink:href="#DejaVuSans-72" transform="translate(1110.689453 0)"/>
     <use xlink:href="#DejaVuSans-65" transform="translate(1149.552734 0)"/>
     <use xlink:href="#DejaVuSans-70" transform="translate(1211.076172 0)"/>
     <use xlink:href="#DejaVuSans-72" transform="translate(1274.552734 0)"/>
     <use xlink:href="#DejaVuSans-65" transform="translate(1313.416016 0)"/>
     <use xlink:href="#DejaVuSans-73" transform="translate(1374.939453 0)"/>
     <use xlink:href="#DejaVuSans-65" transform="translate(1427.039062 0)"/>
     <use xlink:href="#DejaVuSans-6e" transform="translate(1488.5625 0)"/>
     <use xlink:href="#DejaVuSans-74" transform="translate(1551.941406 0)"/>
     <use xlink:href="#DejaVuSans-20" transform="translate(1591.150391 0)"/>
     <use xlink:href="#DejaVuSans-74" transform="translate(1622.9375 0)"/>
     <use xlink:href="#DejaVuSans-68" transform="translate(1662.146484 0)"/>
     <use xlink:href="#DejaVuSans-65" transform="translate(1725.525391 0)"/>
     <use xlink:href="#DejaVuSans-20" transform="translate(1787.048828 0)"/>
     <use xlink:href="#DejaVuSans-76" transform="translate(1818.835938 0)"/>
     <use xlink:href="#DejaVuSans-61" transform="translate(1878.015625 0)"/>
     <use xlink:href="#DejaVuSans-72" transform="translate(1939.294922 0)"/>
     <use xlink:href="#DejaVuSans-69" transform="translate(1980.408203 0)"/>
     <use xlink:href="#DejaVuSans-61" transform="translate(2008.191406 0)"/>
     <use xlink:href="#DejaVuSans-74" transform="translate(2069.470703 0)"/>
     <use xlink:href="#DejaVuSans-69" transform="translate(2108.679688 0)"/>
     <use xlink:href="#DejaVuSans-6f" transform="translate(2136.462891 0)"/>
     <use xlink:href="#DejaVuSans-6e" transform="translate(2197.644531 0)"/>
     <use xlink:href="#DejaVuSans-20" transform="translate(2261.023438 0)"/>
     <use xlink:href="#DejaVuSans-69" transform="translate(2292.810547 0)"/>
     <use xlink:href="#DejaVuSans-6e" transform="translate(2320.59375 0)"/>
    </g>
    <!-- question counts across programming languages. -->
    <g style="fill: #262626" transform="translate(873.257487 65.07305) scale(0.1 -0.1)">
     <defs>
      <path id="DejaVuSans-71" d="M 947 1747 
Q 947 1113 1208 752 
Q 1469 391 1925 391 
Q 2381 391 2643 752 
Q 2906 1113 2906 1747 
Q 2906 2381 2643 2742 
Q 2381 3103 1925 3103 
Q 1469 3103 1208 2742 
Q 947 2381 947 1747 
z
M 2906 525 
Q 2725 213 2448 61 
Q 2172 -91 1784 -91 
Q 1150 -91 751 415 
Q 353 922 353 1747 
Q 353 2572 751 3078 
Q 1150 3584 1784 3584 
Q 2172 3584 2448 3432 
Q 2725 3281 2906 2969 
L 2906 3500 
L 3481 3500 
L 3481 -1331 
L 2906 -1331 
L 2906 525 
z
" transform="scale(0.015625)"/>
      <path id="DejaVuSans-75" d="M 544 1381 
L 544 3500 
L 1119 3500 
L 1119 1403 
Q 1119 906 1312 657 
Q 1506 409 1894 409 
Q 2359 409 2629 706 
Q 2900 1003 2900 1516 
L 2900 3500 
L 3475 3500 
L 3475 0 
L 2900 0 
L 2900 538 
Q 2691 219 2414 64 
Q 2138 -91 1772 -91 
Q 1169 -91 856 284 
Q 544 659 544 1381 
z
M 1991 3584 
L 1991 3584 
z
" transform="scale(0.015625)"/>
      <path id="DejaVuSans-63" d="M 3122 3366 
L 3122 2828 
Q 2878 2963 2633 3030 
Q 2388 3097 2138 3097 
Q 1578 3097 1268 2742 
Q 959 2388 959 1747 
Q 959 1106 1268 751 
Q 1578 397 2138 397 
Q 2388 397 2633 464 
Q 2878 531 3122 666 
L 3122 134 
Q 2881 22 2623 -34 
Q 2366 -91 2075 -91 
Q 1284 -91 818 406 
Q 353 903 353 1747 
Q 353 2603 823 3093 
Q 1294 3584 2113 3584 
Q 2378 3584 2631 3529 
Q 2884 3475 3122 3366 
z
" transform="scale(0.015625)"/>
      <path id="DejaVuSans-6d" d="M 3328 2828 
Q 3544 3216 3844 3400 
Q 4144 3584 4550 3584 
Q 5097 3584 5394 3201 
Q 5691 2819 5691 2113 
L 5691 0 
L 5113 0 
L 5113 2094 
Q 5113 2597 4934 2840 
Q 4756 3084 4391 3084 
Q 3944 3084 3684 2787 
Q 3425 2491 3425 1978 
L 3425 0 
L 2847 0 
L 2847 2094 
Q 2847 2600 2669 2842 
Q 2491 3084 2119 3084 
Q 1678 3084 1418 2786 
Q 1159 2488 1159 1978 
L 1159 0 
L 581 0 
L 581 3500 
L 1159 3500 
L 1159 2956 
Q 1356 3278 1631 3431 
Q 1906 3584 2284 3584 
Q 2666 3584 2933 3390 
Q 3200 3197 3328 2828 
z
" transform="scale(0.015625)"/>
      <path id="DejaVuSans-6c" d="M 603 4863 
L 1178 4863 
L 1178 0 
L 603 0 
L 603 4863 
z
" transform="scale(0.015625)"/>
      <path id="DejaVuSans-2e" d="M 684 794 
L 1344 794 
L 1344 0 
L 684 0 
L 684 794 
z
" transform="scale(0.015625)"/>
     </defs>
     <use xlink:href="#DejaVuSans-71"/>
     <use xlink:href="#DejaVuSans-75" transform="translate(63.476562 0)"/>
     <use xlink:href="#DejaVuSans-65" transform="translate(126.855469 0)"/>
     <use xlink:href="#DejaVuSans-73" transform="translate(188.378906 0)"/>
     <use xlink:href="#DejaVuSans-74" transform="translate(240.478516 0)"/>
     <use xlink:href="#DejaVuSans-69" transform="translate(279.6875 0)"/>
     <use xlink:href="#DejaVuSans-6f" transform="translate(307.470703 0)"/>
     <use xlink:href="#DejaVuSans-6e" transform="translate(368.652344 0)"/>
     <use xlink:href="#DejaVuSans-20" transform="translate(432.03125 0)"/>
     <use xlink:href="#DejaVuSans-63" transform="translate(463.818359 0)"/>
     <use xlink:href="#DejaVuSans-6f" transform="translate(518.798828 0)"/>
     <use xlink:href="#DejaVuSans-75" transform="translate(579.980469 0)"/>
     <use xlink:href="#DejaVuSans-6e" transform="translate(643.359375 0)"/>
     <use xlink:href="#DejaVuSans-74" transform="translate(706.738281 0)"/>
     <use xlink:href="#DejaVuSans-73" transform="translate(745.947266 0)"/>
     <use xlink:href="#DejaVuSans-20" transform="translate(798.046875 0)"/>
     <use xlink:href="#DejaVuSans-61" transform="translate(829.833984 0)"/>
     <use xlink:href="#DejaVuSans-63" transform="translate(891.113281 0)"/>
     <use xlink:href="#DejaVuSans-72" transform="translate(946.09375 0)"/>
     <use xlink:href="#DejaVuSans-6f" transform="translate(984.957031 0)"/>
     <use xlink:href="#DejaVuSans-73" transform="translate(1046.138672 0)"/>
     <use xlink:href="#DejaVuSans-73" transform="translate(1098.238281 0)"/>
     <use xlink:href="#DejaVuSans-20" transform="translate(1150.337891 0)"/>
     <use xlink:href="#DejaVuSans-70" transform="translate(1182.125 0)"/>
     <use xlink:href="#DejaVuSans-72" transform="translate(1245.601562 0)"/>
     <use xlink:href="#DejaVuSans-6f" transform="translate(1284.464844 0)"/>
     <use xlink:href="#DejaVuSans-67" transform="translate(1345.646484 0)"/>
     <use xlink:href="#DejaVuSans-72" transform="translate(1409.123047 0)"/>
     <use xlink:href="#DejaVuSans-61" transform="translate(1450.236328 0)"/>
     <use xlink:href="#DejaVuSans-6d" transform="translate(1511.515625 0)"/>
     <use xlink:href="#DejaVuSans-6d" transform="translate(1608.927734 0)"/>
     <use xlink:href="#DejaVuSans-69" transform="translate(1706.339844 0)"/>
     <use xlink:href="#DejaVuSans-6e" transform="translate(1734.123047 0)"/>
     <use xlink:href="#DejaVuSans-67" transform="translate(1797.501953 0)"/>
     <use xlink:href="#DejaVuSans-20" transform="translate(1860.978516 0)"/>
     <use xlink:href="#DejaVuSans-6c" transform="translate(1892.765625 0)"/>
     <use xlink:href="#DejaVuSans-61" transform="translate(1920.548828 0)"/>
     <use xlink:href="#DejaVuSans-6e" transform="translate(1981.828125 0)"/>
     <use xlink:href="#DejaVuSans-67" transform="translate(2045.207031 0)"/>
     <use xlink:href="#DejaVuSans-75" transform="translate(2108.683594 0)"/>
     <use xlink:href="#DejaVuSans-61" transform="translate(2172.0625 0)"/>
     <use xlink:href="#DejaVuSans-67" transform="translate(2233.341797 0)"/>
     <use xlink:href="#DejaVuSans-65" transform="translate(2296.818359 0)"/>
     <use xlink:href="#DejaVuSans-73" transform="translate(2358.341797 0)"/>
     <use xlink:href="#DejaVuSans-2e" transform="translate(2410.441406 0)"/>
    </g>
   </g>
   <g id="text_19">
    <!-- Indexed Question Counts (First Period = 100) -->
    <g style="fill: #262626" transform="translate(419.2525 24.48) scale(0.16 -0.16)">
     <defs>
      <path id="DejaVuSans-51" d="M 2522 4238 
Q 1834 4238 1429 3725 
Q 1025 3213 1025 2328 
Q 1025 1447 1429 934 
Q 1834 422 2522 422 
Q 3209 422 3611 934 
Q 4013 1447 4013 2328 
Q 4013 3213 3611 3725 
Q 3209 4238 2522 4238 
z
M 3406 84 
L 4238 -825 
L 3475 -825 
L 2784 -78 
Q 2681 -84 2626 -87 
Q 2572 -91 2522 -91 
Q 1538 -91 948 567 
Q 359 1225 359 2328 
Q 359 3434 948 4092 
Q 1538 4750 2522 4750 
Q 3503 4750 4090 4092 
Q 4678 3434 4678 2328 
Q 4678 1516 4351 937 
Q 4025 359 3406 84 
z
" transform="scale(0.015625)"/>
      <path id="DejaVuSans-43" d="M 4122 4306 
L 4122 3641 
Q 3803 3938 3442 4084 
Q 3081 4231 2675 4231 
Q 1875 4231 1450 3742 
Q 1025 3253 1025 2328 
Q 1025 1406 1450 917 
Q 1875 428 2675 428 
Q 3081 428 3442 575 
Q 3803 722 4122 1019 
L 4122 359 
Q 3791 134 3420 21 
Q 3050 -91 2638 -91 
Q 1578 -91 968 557 
Q 359 1206 359 2328 
Q 359 3453 968 4101 
Q 1578 4750 2638 4750 
Q 3056 4750 3426 4639 
Q 3797 4528 4122 4306 
z
" transform="scale(0.015625)"/>
     </defs>
     <use xlink:href="#DejaVuSans-49"/>
     <use xlink:href="#DejaVuSans-6e" transform="translate(29.492188 0)"/>
     <use xlink:href="#DejaVuSans-64" transform="translate(92.871094 0)"/>
     <use xlink:href="#DejaVuSans-65" transform="translate(156.347656 0)"/>
     <use xlink:href="#DejaVuSans-78" transform="translate(216.121094 0)"/>
     <use xlink:href="#DejaVuSans-65" transform="translate(272.175781 0)"/>
     <use xlink:href="#DejaVuSans-64" transform="translate(333.699219 0)"/>
     <use xlink:href="#DejaVuSans-20" transform="translate(397.175781 0)"/>
     <use xlink:href="#DejaVuSans-51" transform="translate(428.962891 0)"/>
     <use xlink:href="#DejaVuSans-75" transform="translate(507.673828 0)"/>
     <use xlink:href="#DejaVuSans-65" transform="translate(571.052734 0)"/>
     <use xlink:href="#DejaVuSans-73" transform="translate(632.576172 0)"/>
     <use xlink:href="#DejaVuSans-74" transform="translate(684.675781 0)"/>
     <use xlink:href="#DejaVuSans-69" transform="translate(723.884766 0)"/>
     <use xlink:href="#DejaVuSans-6f" transform="translate(751.667969 0)"/>
     <use xlink:href="#DejaVuSans-6e" transform="translate(812.849609 0)"/>
     <use xlink:href="#DejaVuSans-20" transform="translate(876.228516 0)"/>
     <use xlink:href="#DejaVuSans-43" transform="translate(908.015625 0)"/>
     <use xlink:href="#DejaVuSans-6f" transform="translate(977.839844 0)"/>
     <use xlink:href="#DejaVuSans-75" transform="translate(1039.021484 0)"/>
     <use xlink:href="#DejaVuSans-6e" transform="translate(1102.400391 0)"/>
     <use xlink:href="#DejaVuSans-74" transform="translate(1165.779297 0)"/>
     <use xlink:href="#DejaVuSans-73" transform="translate(1204.988281 0)"/>
     <use xlink:href="#DejaVuSans-20" transform="translate(1257.087891 0)"/>
     <use xlink:href="#DejaVuSans-28" transform="translate(1288.875 0)"/>
     <use xlink:href="#DejaVuSans-46" transform="translate(1327.888672 0)"/>
     <use xlink:href="#DejaVuSans-69" transform="translate(1378.158203 0)"/>
     <use xlink:href="#DejaVuSans-72" transform="translate(1405.941406 0)"/>
     <use xlink:href="#DejaVuSans-73" transform="translate(1447.054688 0)"/>
     <use xlink:href="#DejaVuSans-74" transform="translate(1499.154297 0)"/>
     <use xlink:href="#DejaVuSans-20" transform="translate(1538.363281 0)"/>
     <use xlink:href="#DejaVuSans-50" transform="translate(1570.150391 0)"/>
     <use xlink:href="#DejaVuSans-65" transform="translate(1626.828125 0)"/>
     <use xlink:href="#DejaVuSans-72" transform="translate(1688.351562 0)"/>
     <use xlink:href="#DejaVuSans-69" transform="translate(1729.464844 0)"/>
     <use xlink:href="#DejaVuSans-6f" transform="translate(1757.248047 0)"/>
     <use xlink:href="#DejaVuSans-64" transform="translate(1818.429688 0)"/>
     <use xlink:href="#DejaVuSans-20" transform="translate(1881.90625 0)"/>
     <use xlink:href="#DejaVuSans-3d" transform="translate(1913.693359 0)"/>
     <use xlink:href="#DejaVuSans-20" transform="translate(1997.482422 0)"/>
     <use xlink:href="#DejaVuSans-31" transform="translate(2029.269531 0)"/>
     <use xlink:href="#DejaVuSans-30" transform="translate(2092.892578 0)"/>
     <use xlink:href="#DejaVuSans-30" transform="translate(2156.515625 0)"/>
     <use xlink:href="#DejaVuSans-29" transform="translate(2220.138672 0)"/>
    </g>
   </g>
   <g id="legend_1">
    <g id="patch_8">
     <path d="M 181.288125 421.02015 
L 1018.681875 421.02015 
Q 1021.081875 421.02015 1021.081875 418.62015 
L 1021.081875 402.2064 
Q 1021.081875 399.8064 1018.681875 399.8064 
L 181.288125 399.8064 
Q 178.888125 399.8064 178.888125 402.2064 
L 178.888125 418.62015 
Q 178.888125 421.02015 181.288125 421.02015 
z
" style="fill: #eaeaf2; opacity: 0.8; stroke: #cccccc; stroke-linejoin: miter"/>
    </g>
    <g id="line2d_27">
     <path d="M 183.688125 409.524525 
L 195.688125 409.524525 
L 207.688125 409.524525 
" style="fill: none; stroke: #000000; stroke-width: 1.5; stroke-linecap: round"/>
    </g>
    <g id="text_20">
     <!-- Stack Overflow -->
     <g style="fill: #262626" transform="translate(217.288125 413.724525) scale(0.12 -0.12)">
      <defs>
       <path id="DejaVuSans-4f" d="M 2522 4238 
Q 1834 4238 1429 3725 
Q 1025 3213 1025 2328 
Q 1025 1447 1429 934 
Q 1834 422 2522 422 
Q 3209 422 3611 934 
Q 4013 1447 4013 2328 
Q 4013 3213 3611 3725 
Q 3209 4238 2522 4238 
z
M 2522 4750 
Q 3503 4750 4090 4092 
Q 4678 3434 4678 2328 
Q 4678 1225 4090 567 
Q 3503 -91 2522 -91 
Q 1538 -91 948 565 
Q 359 1222 359 2328 
Q 359 3434 948 4092 
Q 1538 4750 2522 4750 
z
" transform="scale(0.015625)"/>
       <path id="DejaVuSans-66" d="M 2375 4863 
L 2375 4384 
L 1825 4384 
Q 1516 4384 1395 4259 
Q 1275 4134 1275 3809 
L 1275 3500 
L 2222 3500 
L 2222 3053 
L 1275 3053 
L 1275 0 
L 697 0 
L 697 3053 
L 147 3053 
L 147 3500 
L 697 3500 
L 697 3744 
Q 697 4328 969 4595 
Q 1241 4863 1831 4863 
L 2375 4863 
z
" transform="scale(0.015625)"/>
       <path id="DejaVuSans-77" d="M 269 3500 
L 844 3500 
L 1563 769 
L 2278 3500 
L 2956 3500 
L 3675 769 
L 4391 3500 
L 4966 3500 
L 4050 0 
L 3372 0 
L 2619 2869 
L 1863 0 
L 1184 0 
L 269 3500 
z
" transform="scale(0.015625)"/>
      </defs>
      <use xlink:href="#DejaVuSans-53"/>
      <use xlink:href="#DejaVuSans-74" transform="translate(63.476562 0)"/>
      <use xlink:href="#DejaVuSans-61" transform="translate(102.685547 0)"/>
      <use xlink:href="#DejaVuSans-63" transform="translate(163.964844 0)"/>
      <use xlink:href="#DejaVuSans-6b" transform="translate(218.945312 0)"/>
      <use xlink:href="#DejaVuSans-20" transform="translate(276.855469 0)"/>
      <use xlink:href="#DejaVuSans-4f" transform="translate(308.642578 0)"/>
      <use xlink:href="#DejaVuSans-76" transform="translate(387.353516 0)"/>
      <use xlink:href="#DejaVuSans-65" transform="translate(446.533203 0)"/>
      <use xlink:href="#DejaVuSans-72" transform="translate(508.056641 0)"/>
      <use xlink:href="#DejaVuSans-66" transform="translate(549.169922 0)"/>
      <use xlink:href="#DejaVuSans-6c" transform="translate(584.375 0)"/>
      <use xlink:href="#DejaVuSans-6f" transform="translate(612.158203 0)"/>
      <use xlink:href="#DejaVuSans-77" transform="translate(673.339844 0)"/>
     </g>
    </g>
    <g id="line2d_28">
     <path d="M 331.905 409.524525 
L 343.905 409.524525 
L 355.905 409.524525 
" style="fill: none; stroke: #ff7f0e; stroke-width: 1.5; stroke-linecap: round"/>
    </g>
    <g id="text_21">
     <!-- Mathematics -->
     <g style="fill: #262626" transform="translate(365.505 413.724525) scale(0.12 -0.12)">
      <defs>
       <path id="DejaVuSans-4d" d="M 628 4666 
L 1569 4666 
L 2759 1491 
L 3956 4666 
L 4897 4666 
L 4897 0 
L 4281 0 
L 4281 4097 
L 3078 897 
L 2444 897 
L 1241 4097 
L 1241 0 
L 628 0 
L 628 4666 
z
" transform="scale(0.015625)"/>
      </defs>
      <use xlink:href="#DejaVuSans-4d"/>
      <use xlink:href="#DejaVuSans-61" transform="translate(86.279297 0)"/>
      <use xlink:href="#DejaVuSans-74" transform="translate(147.558594 0)"/>
      <use xlink:href="#DejaVuSans-68" transform="translate(186.767578 0)"/>
      <use xlink:href="#DejaVuSans-65" transform="translate(250.146484 0)"/>
      <use xlink:href="#DejaVuSans-6d" transform="translate(311.669922 0)"/>
      <use xlink:href="#DejaVuSans-61" transform="translate(409.082031 0)"/>
      <use xlink:href="#DejaVuSans-74" transform="translate(470.361328 0)"/>
      <use xlink:href="#DejaVuSans-69" transform="translate(509.570312 0)"/>
      <use xlink:href="#DejaVuSans-63" transform="translate(537.353516 0)"/>
      <use xlink:href="#DejaVuSans-73" transform="translate(592.333984 0)"/>
     </g>
    </g>
    <g id="line2d_29">
     <path d="M 466.835625 409.524525 
L 478.835625 409.524525 
L 490.835625 409.524525 
" style="fill: none; stroke: #2ca02c; stroke-width: 1.5; stroke-linecap: round"/>
    </g>
    <g id="text_22">
     <!-- Physics -->
     <g style="fill: #262626" transform="translate(500.435625 413.724525) scale(0.12 -0.12)">
      <defs>
       <path id="DejaVuSans-79" d="M 2059 -325 
Q 1816 -950 1584 -1140 
Q 1353 -1331 966 -1331 
L 506 -1331 
L 506 -850 
L 844 -850 
Q 1081 -850 1212 -737 
Q 1344 -625 1503 -206 
L 1606 56 
L 191 3500 
L 800 3500 
L 1894 763 
L 2988 3500 
L 3597 3500 
L 2059 -325 
z
" transform="scale(0.015625)"/>
      </defs>
      <use xlink:href="#DejaVuSans-50"/>
      <use xlink:href="#DejaVuSans-68" transform="translate(60.302734 0)"/>
      <use xlink:href="#DejaVuSans-79" transform="translate(123.681641 0)"/>
      <use xlink:href="#DejaVuSans-73" transform="translate(182.861328 0)"/>
      <use xlink:href="#DejaVuSans-69" transform="translate(234.960938 0)"/>
      <use xlink:href="#DejaVuSans-63" transform="translate(262.744141 0)"/>
      <use xlink:href="#DejaVuSans-73" transform="translate(317.724609 0)"/>
     </g>
    </g>
    <g id="line2d_30">
     <path d="M 568.813125 409.524525 
L 580.813125 409.524525 
L 592.813125 409.524525 
" style="fill: none; stroke: #d62728; stroke-width: 1.5; stroke-linecap: round"/>
    </g>
    <g id="text_23">
     <!-- Superuser -->
     <g style="fill: #262626" transform="translate(602.413125 413.724525) scale(0.12 -0.12)">
      <use xlink:href="#DejaVuSans-53"/>
      <use xlink:href="#DejaVuSans-75" transform="translate(63.476562 0)"/>
      <use xlink:href="#DejaVuSans-70" transform="translate(126.855469 0)"/>
      <use xlink:href="#DejaVuSans-65" transform="translate(190.332031 0)"/>
      <use xlink:href="#DejaVuSans-72" transform="translate(251.855469 0)"/>
      <use xlink:href="#DejaVuSans-75" transform="translate(292.96875 0)"/>
      <use xlink:href="#DejaVuSans-73" transform="translate(356.347656 0)"/>
      <use xlink:href="#DejaVuSans-65" transform="translate(408.447266 0)"/>
      <use xlink:href="#DejaVuSans-72" transform="translate(469.970703 0)"/>
     </g>
    </g>
    <g id="line2d_31">
     <path d="M 687.744375 409.524525 
L 699.744375 409.524525 
L 711.744375 409.524525 
" style="fill: none; stroke: #9467bd; stroke-width: 1.5; stroke-linecap: round"/>
    </g>
    <g id="text_24">
     <!-- Askubuntu -->
     <g style="fill: #262626" transform="translate(721.344375 413.724525) scale(0.12 -0.12)">
      <defs>
       <path id="DejaVuSans-41" d="M 2188 4044 
L 1331 1722 
L 3047 1722 
L 2188 4044 
z
M 1831 4666 
L 2547 4666 
L 4325 0 
L 3669 0 
L 3244 1197 
L 1141 1197 
L 716 0 
L 50 0 
L 1831 4666 
z
" transform="scale(0.015625)"/>
       <path id="DejaVuSans-62" d="M 3116 1747 
Q 3116 2381 2855 2742 
Q 2594 3103 2138 3103 
Q 1681 3103 1420 2742 
Q 1159 2381 1159 1747 
Q 1159 1113 1420 752 
Q 1681 391 2138 391 
Q 2594 391 2855 752 
Q 3116 1113 3116 1747 
z
M 1159 2969 
Q 1341 3281 1617 3432 
Q 1894 3584 2278 3584 
Q 2916 3584 3314 3078 
Q 3713 2572 3713 1747 
Q 3713 922 3314 415 
Q 2916 -91 2278 -91 
Q 1894 -91 1617 61 
Q 1341 213 1159 525 
L 1159 0 
L 581 0 
L 581 4863 
L 1159 4863 
L 1159 2969 
z
" transform="scale(0.015625)"/>
      </defs>
      <use xlink:href="#DejaVuSans-41"/>
      <use xlink:href="#DejaVuSans-73" transform="translate(68.408203 0)"/>
      <use xlink:href="#DejaVuSans-6b" transform="translate(120.507812 0)"/>
      <use xlink:href="#DejaVuSans-75" transform="translate(175.292969 0)"/>
      <use xlink:href="#DejaVuSans-62" transform="translate(238.671875 0)"/>
      <use xlink:href="#DejaVuSans-75" transform="translate(302.148438 0)"/>
      <use xlink:href="#DejaVuSans-6e" transform="translate(365.527344 0)"/>
      <use xlink:href="#DejaVuSans-74" transform="translate(428.90625 0)"/>
      <use xlink:href="#DejaVuSans-75" transform="translate(468.115234 0)"/>
     </g>
    </g>
    <g id="line2d_32">
     <path d="M 809.120625 409.524525 
L 821.120625 409.524525 
L 833.120625 409.524525 
" style="fill: none; stroke-dasharray: 7.4,3.2; stroke-dashoffset: 0; stroke: #c44e52; stroke-width: 2"/>
    </g>
    <g id="text_25">
     <!-- ChatGPT Release (Nov 2022) -->
     <g style="fill: #262626" transform="translate(842.720625 413.724525) scale(0.12 -0.12)">
      <defs>
       <path id="DejaVuSans-47" d="M 3809 666 
L 3809 1919 
L 2778 1919 
L 2778 2438 
L 4434 2438 
L 4434 434 
Q 4069 175 3628 42 
Q 3188 -91 2688 -91 
Q 1594 -91 976 548 
Q 359 1188 359 2328 
Q 359 3472 976 4111 
Q 1594 4750 2688 4750 
Q 3144 4750 3555 4637 
Q 3966 4525 4313 4306 
L 4313 3634 
Q 3963 3931 3569 4081 
Q 3175 4231 2741 4231 
Q 1884 4231 1454 3753 
Q 1025 3275 1025 2328 
Q 1025 1384 1454 906 
Q 1884 428 2741 428 
Q 3075 428 3337 486 
Q 3600 544 3809 666 
z
" transform="scale(0.015625)"/>
       <path id="DejaVuSans-54" d="M -19 4666 
L 3928 4666 
L 3928 4134 
L 2272 4134 
L 2272 0 
L 1638 0 
L 1638 4134 
L -19 4134 
L -19 4666 
z
" transform="scale(0.015625)"/>
       <path id="DejaVuSans-52" d="M 2841 2188 
Q 3044 2119 3236 1894 
Q 3428 1669 3622 1275 
L 4263 0 
L 3584 0 
L 2988 1197 
Q 2756 1666 2539 1819 
Q 2322 1972 1947 1972 
L 1259 1972 
L 1259 0 
L 628 0 
L 628 4666 
L 2053 4666 
Q 2853 4666 3247 4331 
Q 3641 3997 3641 3322 
Q 3641 2881 3436 2590 
Q 3231 2300 2841 2188 
z
M 1259 4147 
L 1259 2491 
L 2053 2491 
Q 2509 2491 2742 2702 
Q 2975 2913 2975 3322 
Q 2975 3731 2742 3939 
Q 2509 4147 2053 4147 
L 1259 4147 
z
" transform="scale(0.015625)"/>
      </defs>
      <use xlink:href="#DejaVuSans-43"/>
      <use xlink:href="#DejaVuSans-68" transform="translate(69.824219 0)"/>
      <use xlink:href="#DejaVuSans-61" transform="translate(133.203125 0)"/>
      <use xlink:href="#DejaVuSans-74" transform="translate(194.482422 0)"/>
      <use xlink:href="#DejaVuSans-47" transform="translate(233.691406 0)"/>
      <use xlink:href="#DejaVuSans-50" transform="translate(311.181641 0)"/>
      <use xlink:href="#DejaVuSans-54" transform="translate(371.484375 0)"/>
      <use xlink:href="#DejaVuSans-20" transform="translate(432.568359 0)"/>
      <use xlink:href="#DejaVuSans-52" transform="translate(464.355469 0)"/>
      <use xlink:href="#DejaVuSans-65" transform="translate(529.337891 0)"/>
      <use xlink:href="#DejaVuSans-6c" transform="translate(590.861328 0)"/>
      <use xlink:href="#DejaVuSans-65" transform="translate(618.644531 0)"/>
      <use xlink:href="#DejaVuSans-61" transform="translate(680.167969 0)"/>
      <use xlink:href="#DejaVuSans-73" transform="translate(741.447266 0)"/>
      <use xlink:href="#DejaVuSans-65" transform="translate(793.546875 0)"/>
      <use xlink:href="#DejaVuSans-20" transform="translate(855.070312 0)"/>
      <use xlink:href="#DejaVuSans-28" transform="translate(886.857422 0)"/>
      <use xlink:href="#DejaVuSans-4e" transform="translate(925.871094 0)"/>
      <use xlink:href="#DejaVuSans-6f" transform="translate(1000.675781 0)"/>
      <use xlink:href="#DejaVuSans-76" transform="translate(1061.857422 0)"/>
      <use xlink:href="#DejaVuSans-20" transform="translate(1121.037109 0)"/>
      <use xlink:href="#DejaVuSans-32" transform="translate(1152.824219 0)"/>
      <use xlink:href="#DejaVuSans-30" transform="translate(1216.447266 0)"/>
      <use xlink:href="#DejaVuSans-32" transform="translate(1280.070312 0)"/>
      <use xlink:href="#DejaVuSans-32" transform="translate(1343.693359 0)"/>
      <use xlink:href="#DejaVuSans-29" transform="translate(1407.316406 0)"/>
     </g>
    </g>
   </g>
  </g>
 </g>
 <defs>
  <clipPath id="p00fc2f3757">
   <rect x="60.93" y="30.48" width="1078.11" height="315.936"/>
  </clipPath>
 </defs>
</svg>
