<?xml version="1.0" encoding="utf-8" standalone="no"?>
<!DOCTYPE svg PUBLIC "-//W3C//DTD SVG 1.1//EN"
  "http://www.w3.org/Graphics/SVG/1.1/DTD/svg11.dtd">
<svg xmlns:xlink="http://www.w3.org/1999/xlink" width="1080pt" height="576pt" viewBox="0 0 1080 576" xmlns="http://www.w3.org/2000/svg" version="1.1">
 <metadata>
  <rdf:RDF xmlns:dc="http://purl.org/dc/elements/1.1/" xmlns:cc="http://creativecommons.org/ns#" xmlns:rdf="http://www.w3.org/1999/02/22-rdf-syntax-ns#">
   <cc:Work>
    <dc:type rdf:resource="http://purl.org/dc/dcmitype/StillImage"/>
    <dc:date>2025-03-06T01:45:36.740602</dc:date>
    <dc:format>image/svg+xml</dc:format>
    <dc:creator>
     <cc:Agent>
      <dc:title>Matplotlib v3.10.1, https://matplotlib.org/</dc:title>
     </cc:Agent>
    </dc:creator>
   </cc:Work>
  </rdf:RDF>
 </metadata>
 <defs>
  <style type="text/css">*{stroke-linejoin: round; stroke-linecap: butt}</style>
 </defs>
 <g id="figure_1">
  <g id="patch_1">
   <path d="M 0 576 
L 1080 576 
L 1080 0 
L 0 0 
z
" style="fill: #ffffff"/>
  </g>
  <g id="axes_1">
   <g id="patch_2">
    <path d="M 56.9 396.285 
L 1069.2 396.285 
L 1069.2 34.56 
L 56.9 34.56 
z
" style="fill: #e5e5e5"/>
   </g>
   <g id="matplotlib.axis_1">
    <g id="xtick_1">
     <g id="line2d_1">
      <path d="M 101.129009 396.285 
L 101.129009 34.56 
" clip-path="url(#pd99d7c7786)" style="fill: none; stroke: #ffffff; stroke-width: 0.8; stroke-linecap: square"/>
     </g>
     <g id="line2d_2">
      <defs>
       <path id="m7f63b11d07" d="M 0 0 
L 0 3.5 
" style="stroke: #555555; stroke-width: 0.8"/>
      </defs>
      <g>
       <use xlink:href="#m7f63b11d07" x="101.129009" y="396.285" style="fill: #555555; stroke: #555555; stroke-width: 0.8"/>
      </g>
     </g>
    </g>
    <g id="xtick_2">
     <g id="line2d_3">
      <path d="M 249.847937 396.285 
L 249.847937 34.56 
" clip-path="url(#pd99d7c7786)" style="fill: none; stroke: #ffffff; stroke-width: 0.8; stroke-linecap: square"/>
     </g>
     <g id="line2d_4">
      <g>
       <use xlink:href="#m7f63b11d07" x="249.847937" y="396.285" style="fill: #555555; stroke: #555555; stroke-width: 0.8"/>
      </g>
     </g>
    </g>
    <g id="xtick_3">
     <g id="line2d_5">
      <path d="M 398.566865 396.285 
L 398.566865 34.56 
" clip-path="url(#pd99d7c7786)" style="fill: none; stroke: #ffffff; stroke-width: 0.8; stroke-linecap: square"/>
     </g>
     <g id="line2d_6">
      <g>
       <use xlink:href="#m7f63b11d07" x="398.566865" y="396.285" style="fill: #555555; stroke: #555555; stroke-width: 0.8"/>
      </g>
     </g>
    </g>
    <g id="xtick_4">
     <g id="line2d_7">
      <path d="M 547.285794 396.285 
L 547.285794 34.56 
" clip-path="url(#pd99d7c7786)" style="fill: none; stroke: #ffffff; stroke-width: 0.8; stroke-linecap: square"/>
     </g>
     <g id="line2d_8">
      <g>
       <use xlink:href="#m7f63b11d07" x="547.285794" y="396.285" style="fill: #555555; stroke: #555555; stroke-width: 0.8"/>
      </g>
     </g>
    </g>
    <g id="xtick_5">
     <g id="line2d_9">
      <path d="M 696.004722 396.285 
L 696.004722 34.56 
" clip-path="url(#pd99d7c7786)" style="fill: none; stroke: #ffffff; stroke-width: 0.8; stroke-linecap: square"/>
     </g>
     <g id="line2d_10">
      <g>
       <use xlink:href="#m7f63b11d07" x="696.004722" y="396.285" style="fill: #555555; stroke: #555555; stroke-width: 0.8"/>
      </g>
     </g>
    </g>
    <g id="xtick_6">
     <g id="line2d_11">
      <path d="M 844.72365 396.285 
L 844.72365 34.56 
" clip-path="url(#pd99d7c7786)" style="fill: none; stroke: #ffffff; stroke-width: 0.8; stroke-linecap: square"/>
     </g>
     <g id="line2d_12">
      <g>
       <use xlink:href="#m7f63b11d07" x="844.72365" y="396.285" style="fill: #555555; stroke: #555555; stroke-width: 0.8"/>
      </g>
     </g>
    </g>
    <g id="xtick_7">
     <g id="line2d_13">
      <path d="M 993.442578 396.285 
L 993.442578 34.56 
" clip-path="url(#pd99d7c7786)" style="fill: none; stroke: #ffffff; stroke-width: 0.8; stroke-linecap: square"/>
     </g>
     <g id="line2d_14">
      <g>
       <use xlink:href="#m7f63b11d07" x="993.442578" y="396.285" style="fill: #555555; stroke: #555555; stroke-width: 0.8"/>
      </g>
     </g>
    </g>
   </g>
   <g id="matplotlib.axis_2">
    <g id="ytick_1">
     <g id="line2d_15">
      <path d="M 56.9 367.444721 
L 1069.2 367.444721 
" clip-path="url(#pd99d7c7786)" style="fill: none; stroke: #ffffff; stroke-width: 0.8; stroke-linecap: square"/>
     </g>
     <g id="line2d_16">
      <defs>
       <path id="m28d262c180" d="M 0 0 
L -3.5 0 
" style="stroke: #555555; stroke-width: 0.8"/>
      </defs>
      <g>
       <use xlink:href="#m28d262c180" x="56.9" y="367.444721" style="fill: #555555; stroke: #555555; stroke-width: 0.8"/>
      </g>
     </g>
     <g id="text_1">
      <!-- 6 -->
      <g style="fill: #555555" transform="translate(43.5375 371.24394) scale(0.1 -0.1)">
       <defs>
        <path id="DejaVuSans-36" d="M 2113 2584 
Q 1688 2584 1439 2293 
Q 1191 2003 1191 1497 
Q 1191 994 1439 701 
Q 1688 409 2113 409 
Q 2538 409 2786 701 
Q 3034 994 3034 1497 
Q 3034 2003 2786 2293 
Q 2538 2584 2113 2584 
z
M 3366 4563 
L 3366 3988 
Q 3128 4100 2886 4159 
Q 2644 4219 2406 4219 
Q 1781 4219 1451 3797 
Q 1122 3375 1075 2522 
Q 1259 2794 1537 2939 
Q 1816 3084 2150 3084 
Q 2853 3084 3261 2657 
Q 3669 2231 3669 1497 
Q 3669 778 3244 343 
Q 2819 -91 2113 -91 
Q 1303 -91 875 529 
Q 447 1150 447 2328 
Q 447 3434 972 4092 
Q 1497 4750 2381 4750 
Q 2619 4750 2861 4703 
Q 3103 4656 3366 4563 
z
" transform="scale(0.015625)"/>
       </defs>
       <use xlink:href="#DejaVuSans-36"/>
      </g>
     </g>
    </g>
    <g id="ytick_2">
     <g id="line2d_17">
      <path d="M 56.9 296.011846 
L 1069.2 296.011846 
" clip-path="url(#pd99d7c7786)" style="fill: none; stroke: #ffffff; stroke-width: 0.8; stroke-linecap: square"/>
     </g>
     <g id="line2d_18">
      <g>
       <use xlink:href="#m28d262c180" x="56.9" y="296.011846" style="fill: #555555; stroke: #555555; stroke-width: 0.8"/>
      </g>
     </g>
     <g id="text_2">
      <!-- 7 -->
      <g style="fill: #555555" transform="translate(43.5375 299.811065) scale(0.1 -0.1)">
       <defs>
        <path id="DejaVuSans-37" d="M 525 4666 
L 3525 4666 
L 3525 4397 
L 1831 0 
L 1172 0 
L 2766 4134 
L 525 4134 
L 525 4666 
z
" transform="scale(0.015625)"/>
       </defs>
       <use xlink:href="#DejaVuSans-37"/>
      </g>
     </g>
    </g>
    <g id="ytick_3">
     <g id="line2d_19">
      <path d="M 56.9 224.578972 
L 1069.2 224.578972 
" clip-path="url(#pd99d7c7786)" style="fill: none; stroke: #ffffff; stroke-width: 0.8; stroke-linecap: square"/>
     </g>
     <g id="line2d_20">
      <g>
       <use xlink:href="#m28d262c180" x="56.9" y="224.578972" style="fill: #555555; stroke: #555555; stroke-width: 0.8"/>
      </g>
     </g>
     <g id="text_3">
      <!-- 8 -->
      <g style="fill: #555555" transform="translate(43.5375 228.378191) scale(0.1 -0.1)">
       <defs>
        <path id="DejaVuSans-38" d="M 2034 2216 
Q 1584 2216 1326 1975 
Q 1069 1734 1069 1313 
Q 1069 891 1326 650 
Q 1584 409 2034 409 
Q 2484 409 2743 651 
Q 3003 894 3003 1313 
Q 3003 1734 2745 1975 
Q 2488 2216 2034 2216 
z
M 1403 2484 
Q 997 2584 770 2862 
Q 544 3141 544 3541 
Q 544 4100 942 4425 
Q 1341 4750 2034 4750 
Q 2731 4750 3128 4425 
Q 3525 4100 3525 3541 
Q 3525 3141 3298 2862 
Q 3072 2584 2669 2484 
Q 3125 2378 3379 2068 
Q 3634 1759 3634 1313 
Q 3634 634 3220 271 
Q 2806 -91 2034 -91 
Q 1263 -91 848 271 
Q 434 634 434 1313 
Q 434 1759 690 2068 
Q 947 2378 1403 2484 
z
M 1172 3481 
Q 1172 3119 1398 2916 
Q 1625 2713 2034 2713 
Q 2441 2713 2670 2916 
Q 2900 3119 2900 3481 
Q 2900 3844 2670 4047 
Q 2441 4250 2034 4250 
Q 1625 4250 1398 4047 
Q 1172 3844 1172 3481 
z
" transform="scale(0.015625)"/>
       </defs>
       <use xlink:href="#DejaVuSans-38"/>
      </g>
     </g>
    </g>
    <g id="ytick_4">
     <g id="line2d_21">
      <path d="M 56.9 153.146098 
L 1069.2 153.146098 
" clip-path="url(#pd99d7c7786)" style="fill: none; stroke: #ffffff; stroke-width: 0.8; stroke-linecap: square"/>
     </g>
     <g id="line2d_22">
      <g>
       <use xlink:href="#m28d262c180" x="56.9" y="153.146098" style="fill: #555555; stroke: #555555; stroke-width: 0.8"/>
      </g>
     </g>
     <g id="text_4">
      <!-- 9 -->
      <g style="fill: #555555" transform="translate(43.5375 156.945316) scale(0.1 -0.1)">
       <defs>
        <path id="DejaVuSans-39" d="M 703 97 
L 703 672 
Q 941 559 1184 500 
Q 1428 441 1663 441 
Q 2288 441 2617 861 
Q 2947 1281 2994 2138 
Q 2813 1869 2534 1725 
Q 2256 1581 1919 1581 
Q 1219 1581 811 2004 
Q 403 2428 403 3163 
Q 403 3881 828 4315 
Q 1253 4750 1959 4750 
Q 2769 4750 3195 4129 
Q 3622 3509 3622 2328 
Q 3622 1225 3098 567 
Q 2575 -91 1691 -91 
Q 1453 -91 1209 -44 
Q 966 3 703 97 
z
M 1959 2075 
Q 2384 2075 2632 2365 
Q 2881 2656 2881 3163 
Q 2881 3666 2632 3958 
Q 2384 4250 1959 4250 
Q 1534 4250 1286 3958 
Q 1038 3666 1038 3163 
Q 1038 2656 1286 2365 
Q 1534 2075 1959 2075 
z
" transform="scale(0.015625)"/>
       </defs>
       <use xlink:href="#DejaVuSans-39"/>
      </g>
     </g>
    </g>
    <g id="ytick_5">
     <g id="line2d_23">
      <path d="M 56.9 81.713223 
L 1069.2 81.713223 
" clip-path="url(#pd99d7c7786)" style="fill: none; stroke: #ffffff; stroke-width: 0.8; stroke-linecap: square"/>
     </g>
     <g id="line2d_24">
      <g>
       <use xlink:href="#m28d262c180" x="56.9" y="81.713223" style="fill: #555555; stroke: #555555; stroke-width: 0.8"/>
      </g>
     </g>
     <g id="text_5">
      <!-- 10 -->
      <g style="fill: #555555" transform="translate(37.175 85.512442) scale(0.1 -0.1)">
       <defs>
        <path id="DejaVuSans-31" d="M 794 531 
L 1825 531 
L 1825 4091 
L 703 3866 
L 703 4441 
L 1819 4666 
L 2450 4666 
L 2450 531 
L 3481 531 
L 3481 0 
L 794 0 
L 794 531 
z
" transform="scale(0.015625)"/>
        <path id="DejaVuSans-30" d="M 2034 4250 
Q 1547 4250 1301 3770 
Q 1056 3291 1056 2328 
Q 1056 1369 1301 889 
Q 1547 409 2034 409 
Q 2525 409 2770 889 
Q 3016 1369 3016 2328 
Q 3016 3291 2770 3770 
Q 2525 4250 2034 4250 
z
M 2034 4750 
Q 2819 4750 3233 4129 
Q 3647 3509 3647 2328 
Q 3647 1150 3233 529 
Q 2819 -91 2034 -91 
Q 1250 -91 836 529 
Q 422 1150 422 2328 
Q 422 3509 836 4129 
Q 1250 4750 2034 4750 
z
" transform="scale(0.015625)"/>
       </defs>
       <use xlink:href="#DejaVuSans-31"/>
       <use xlink:href="#DejaVuSans-30" transform="translate(63.623047 0)"/>
      </g>
     </g>
    </g>
    <g id="text_6">
     <!-- Log Question Count -->
     <g style="fill: #555555" transform="translate(30.679375 274.60875) rotate(-90) scale(0.12 -0.12)">
      <defs>
       <path id="DejaVuSans-4c" d="M 628 4666 
L 1259 4666 
L 1259 531 
L 3531 531 
L 3531 0 
L 628 0 
L 628 4666 
z
" transform="scale(0.015625)"/>
       <path id="DejaVuSans-6f" d="M 1959 3097 
Q 1497 3097 1228 2736 
Q 959 2375 959 1747 
Q 959 1119 1226 758 
Q 1494 397 1959 397 
Q 2419 397 2687 759 
Q 2956 1122 2956 1747 
Q 2956 2369 2687 2733 
Q 2419 3097 1959 3097 
z
M 1959 3584 
Q 2709 3584 3137 3096 
Q 3566 2609 3566 1747 
Q 3566 888 3137 398 
Q 2709 -91 1959 -91 
Q 1206 -91 779 398 
Q 353 888 353 1747 
Q 353 2609 779 3096 
Q 1206 3584 1959 3584 
z
" transform="scale(0.015625)"/>
       <path id="DejaVuSans-67" d="M 2906 1791 
Q 2906 2416 2648 2759 
Q 2391 3103 1925 3103 
Q 1463 3103 1205 2759 
Q 947 2416 947 1791 
Q 947 1169 1205 825 
Q 1463 481 1925 481 
Q 2391 481 2648 825 
Q 2906 1169 2906 1791 
z
M 3481 434 
Q 3481 -459 3084 -895 
Q 2688 -1331 1869 -1331 
Q 1566 -1331 1297 -1286 
Q 1028 -1241 775 -1147 
L 775 -588 
Q 1028 -725 1275 -790 
Q 1522 -856 1778 -856 
Q 2344 -856 2625 -561 
Q 2906 -266 2906 331 
L 2906 616 
Q 2728 306 2450 153 
Q 2172 0 1784 0 
Q 1141 0 747 490 
Q 353 981 353 1791 
Q 353 2603 747 3093 
Q 1141 3584 1784 3584 
Q 2172 3584 2450 3431 
Q 2728 3278 2906 2969 
L 2906 3500 
L 3481 3500 
L 3481 434 
z
" transform="scale(0.015625)"/>
       <path id="DejaVuSans-20" transform="scale(0.015625)"/>
       <path id="DejaVuSans-51" d="M 2522 4238 
Q 1834 4238 1429 3725 
Q 1025 3213 1025 2328 
Q 1025 1447 1429 934 
Q 1834 422 2522 422 
Q 3209 422 3611 934 
Q 4013 1447 4013 2328 
Q 4013 3213 3611 3725 
Q 3209 4238 2522 4238 
z
M 3406 84 
L 4238 -825 
L 3475 -825 
L 2784 -78 
Q 2681 -84 2626 -87 
Q 2572 -91 2522 -91 
Q 1538 -91 948 567 
Q 359 1225 359 2328 
Q 359 3434 948 4092 
Q 1538 4750 2522 4750 
Q 3503 4750 4090 4092 
Q 4678 3434 4678 2328 
Q 4678 1516 4351 937 
Q 4025 359 3406 84 
z
" transform="scale(0.015625)"/>
       <path id="DejaVuSans-75" d="M 544 1381 
L 544 3500 
L 1119 3500 
L 1119 1403 
Q 1119 906 1312 657 
Q 1506 409 1894 409 
Q 2359 409 2629 706 
Q 2900 1003 2900 1516 
L 2900 3500 
L 3475 3500 
L 3475 0 
L 2900 0 
L 2900 538 
Q 2691 219 2414 64 
Q 2138 -91 1772 -91 
Q 1169 -91 856 284 
Q 544 659 544 1381 
z
M 1991 3584 
L 1991 3584 
z
" transform="scale(0.015625)"/>
       <path id="DejaVuSans-65" d="M 3597 1894 
L 3597 1613 
L 953 1613 
Q 991 1019 1311 708 
Q 1631 397 2203 397 
Q 2534 397 2845 478 
Q 3156 559 3463 722 
L 3463 178 
Q 3153 47 2828 -22 
Q 2503 -91 2169 -91 
Q 1331 -91 842 396 
Q 353 884 353 1716 
Q 353 2575 817 3079 
Q 1281 3584 2069 3584 
Q 2775 3584 3186 3129 
Q 3597 2675 3597 1894 
z
M 3022 2063 
Q 3016 2534 2758 2815 
Q 2500 3097 2075 3097 
Q 1594 3097 1305 2825 
Q 1016 2553 972 2059 
L 3022 2063 
z
" transform="scale(0.015625)"/>
       <path id="DejaVuSans-73" d="M 2834 3397 
L 2834 2853 
Q 2591 2978 2328 3040 
Q 2066 3103 1784 3103 
Q 1356 3103 1142 2972 
Q 928 2841 928 2578 
Q 928 2378 1081 2264 
Q 1234 2150 1697 2047 
L 1894 2003 
Q 2506 1872 2764 1633 
Q 3022 1394 3022 966 
Q 3022 478 2636 193 
Q 2250 -91 1575 -91 
Q 1294 -91 989 -36 
Q 684 19 347 128 
L 347 722 
Q 666 556 975 473 
Q 1284 391 1588 391 
Q 1994 391 2212 530 
Q 2431 669 2431 922 
Q 2431 1156 2273 1281 
Q 2116 1406 1581 1522 
L 1381 1569 
Q 847 1681 609 1914 
Q 372 2147 372 2553 
Q 372 3047 722 3315 
Q 1072 3584 1716 3584 
Q 2034 3584 2315 3537 
Q 2597 3491 2834 3397 
z
" transform="scale(0.015625)"/>
       <path id="DejaVuSans-74" d="M 1172 4494 
L 1172 3500 
L 2356 3500 
L 2356 3053 
L 1172 3053 
L 1172 1153 
Q 1172 725 1289 603 
Q 1406 481 1766 481 
L 2356 481 
L 2356 0 
L 1766 0 
Q 1100 0 847 248 
Q 594 497 594 1153 
L 594 3053 
L 172 3053 
L 172 3500 
L 594 3500 
L 594 4494 
L 1172 4494 
z
" transform="scale(0.015625)"/>
       <path id="DejaVuSans-69" d="M 603 3500 
L 1178 3500 
L 1178 0 
L 603 0 
L 603 3500 
z
M 603 4863 
L 1178 4863 
L 1178 4134 
L 603 4134 
L 603 4863 
z
" transform="scale(0.015625)"/>
       <path id="DejaVuSans-6e" d="M 3513 2113 
L 3513 0 
L 2938 0 
L 2938 2094 
Q 2938 2591 2744 2837 
Q 2550 3084 2163 3084 
Q 1697 3084 1428 2787 
Q 1159 2491 1159 1978 
L 1159 0 
L 581 0 
L 581 3500 
L 1159 3500 
L 1159 2956 
Q 1366 3272 1645 3428 
Q 1925 3584 2291 3584 
Q 2894 3584 3203 3211 
Q 3513 2838 3513 2113 
z
" transform="scale(0.015625)"/>
       <path id="DejaVuSans-43" d="M 4122 4306 
L 4122 3641 
Q 3803 3938 3442 4084 
Q 3081 4231 2675 4231 
Q 1875 4231 1450 3742 
Q 1025 3253 1025 2328 
Q 1025 1406 1450 917 
Q 1875 428 2675 428 
Q 3081 428 3442 575 
Q 3803 722 4122 1019 
L 4122 359 
Q 3791 134 3420 21 
Q 3050 -91 2638 -91 
Q 1578 -91 968 557 
Q 359 1206 359 2328 
Q 359 3453 968 4101 
Q 1578 4750 2638 4750 
Q 3056 4750 3426 4639 
Q 3797 4528 4122 4306 
z
" transform="scale(0.015625)"/>
      </defs>
      <use xlink:href="#DejaVuSans-4c"/>
      <use xlink:href="#DejaVuSans-6f" transform="translate(53.962891 0)"/>
      <use xlink:href="#DejaVuSans-67" transform="translate(115.144531 0)"/>
      <use xlink:href="#DejaVuSans-20" transform="translate(178.621094 0)"/>
      <use xlink:href="#DejaVuSans-51" transform="translate(210.408203 0)"/>
      <use xlink:href="#DejaVuSans-75" transform="translate(289.119141 0)"/>
      <use xlink:href="#DejaVuSans-65" transform="translate(352.498047 0)"/>
      <use xlink:href="#DejaVuSans-73" transform="translate(414.021484 0)"/>
      <use xlink:href="#DejaVuSans-74" transform="translate(466.121094 0)"/>
      <use xlink:href="#DejaVuSans-69" transform="translate(505.330078 0)"/>
      <use xlink:href="#DejaVuSans-6f" transform="translate(533.113281 0)"/>
      <use xlink:href="#DejaVuSans-6e" transform="translate(594.294922 0)"/>
      <use xlink:href="#DejaVuSans-20" transform="translate(657.673828 0)"/>
      <use xlink:href="#DejaVuSans-43" transform="translate(689.460938 0)"/>
      <use xlink:href="#DejaVuSans-6f" transform="translate(759.285156 0)"/>
      <use xlink:href="#DejaVuSans-75" transform="translate(820.466797 0)"/>
      <use xlink:href="#DejaVuSans-6e" transform="translate(883.845703 0)"/>
      <use xlink:href="#DejaVuSans-74" transform="translate(947.224609 0)"/>
     </g>
    </g>
   </g>
   <g id="line2d_25">
    <path d="M 104.103388 312.877163 
L 107.077766 313.476758 
L 110.052145 313.597338 
L 113.026523 315.509069 
L 116.000902 314.284802 
L 118.975281 317.498845 
L 121.949659 317.885607 
L 124.924038 316.995804 
L 127.898416 313.272802 
L 130.872795 318.622863 
L 133.847173 320.162779 
L 136.821552 323.452022 
L 139.795931 324.898059 
L 142.770309 322.169344 
L 145.744688 320.748404 
L 148.719066 319.498688 
L 151.693445 321.784803 
L 154.667823 321.109293 
L 157.642202 323.419048 
L 160.61658 324.317591 
L 163.590959 326.533811 
L 166.565338 327.32207 
L 169.539716 329.239936 
L 172.514095 333.078703 
L 175.488473 334.506648 
L 178.462852 336.515631 
L 181.43723 340.911186 
L 184.411609 338.095538 
L 187.385988 340.445032 
L 190.360366 343.12949 
L 193.334745 339.374856 
L 196.309123 338.912685 
L 199.283502 338.041112 
L 202.25788 346.462441 
L 205.232259 340.235323 
L 208.206637 338.295901 
L 211.181016 340.386056 
L 214.155395 338.186351 
L 217.129773 339.150458 
L 223.07853 336.882169 
L 226.052909 334.893175 
L 229.027287 335.910388 
L 232.001666 338.391 
L 234.976045 337.134999 
L 237.950423 336.427146 
L 240.924802 342.833793 
L 243.89918 337.986577 
L 246.873559 338.982697 
L 249.847937 345.402859 
L 252.822316 352.313308 
L 255.796694 376.504093 
L 401.541244 340.714657 
L 404.515623 339.28065 
L 407.490001 337.693425 
L 410.46438 338.654204 
L 413.438758 341.729913 
L 416.413137 340.2072 
L 419.387515 338.905032 
L 422.361894 342.786223 
L 425.336273 353.310219 
L 428.310651 348.358259 
L 431.28503 348.264133 
L 434.259408 344.128639 
L 437.233787 343.604585 
L 440.208165 344.222335 
L 443.182544 345.382285 
L 446.156922 341.753425 
L 449.131301 336.325705 
L 452.10568 342.063567 
L 455.080058 343.675901 
L 458.054437 339.630893 
L 461.028815 344.780729 
L 464.003194 344.651762 
L 466.977572 341.153091 
L 469.951951 346.55247 
L 472.92633 345.843042 
L 475.900708 351.850896 
L 478.875087 349.684253 
L 481.849465 348.908987 
L 484.823844 350.726335 
L 487.798222 350.625968 
L 490.772601 352.524449 
L 493.746979 349.203055 
L 496.721358 347.095347 
L 499.695737 345.632311 
L 502.670115 349.746516 
L 505.644494 350.087497 
L 508.618872 345.616005 
L 511.593251 346.301058 
L 514.567629 349.119527 
L 517.542008 345.840329 
L 523.490765 343.996634 
L 526.465144 344.529794 
L 529.439522 344.664421 
L 532.413901 350.832542 
L 535.388279 348.096198 
L 538.362658 352.693201 
L 541.337036 347.512841 
L 544.311415 351.731412 
L 547.285794 354.179205 
L 550.260172 360.659352 
L 553.234551 350.078797 
L 698.9791 346.67584 
L 701.953479 349.361452 
L 704.927857 347.725877 
L 707.902236 347.271894 
L 710.876615 350.039739 
L 713.850993 354.475172 
L 716.825372 351.880293 
L 719.79975 347.230845 
L 722.774129 352.85012 
L 725.748507 352.155597 
L 728.722886 353.167387 
L 731.697265 355.585375 
L 734.671643 353.43289 
L 737.646022 354.846281 
L 740.6204 345.961897 
L 743.594779 343.514501 
L 746.569157 343.172693 
L 749.543536 345.378488 
L 752.517914 344.084447 
L 755.492293 346.960961 
L 758.466672 347.945558 
L 761.44105 349.115559 
L 764.415429 351.323853 
L 767.389807 349.695727 
L 770.364186 352.067825 
L 773.338564 351.337785 
L 776.312943 350.448023 
L 779.287322 352.604659 
L 782.2617 351.698236 
L 785.236079 352.135298 
L 788.210457 349.58306 
L 791.184836 351.233893 
L 794.159214 355.013954 
L 797.133593 356.087862 
L 800.107971 354.827016 
L 803.08235 358.045048 
L 806.056729 356.386289 
L 809.031107 352.380518 
L 812.005486 358.636175 
L 814.979864 356.614635 
L 817.954243 355.260857 
L 820.928621 350.719327 
L 823.903 350.991544 
L 826.877379 349.151785 
L 829.851757 351.531637 
L 832.826136 353.016326 
L 835.800514 357.979266 
L 838.774893 352.571052 
L 841.749271 356.181227 
L 844.72365 353.67214 
L 847.698028 364.824865 
L 850.672407 362.921342 
L 996.416957 363.454881 
L 999.391335 356.631124 
L 1002.365714 357.043377 
L 1005.340092 357.688786 
L 1008.314471 355.543918 
L 1011.288849 359.281465 
L 1014.263228 359.854007 
L 1017.237607 367.040237 
L 1020.211985 356.427306 
L 1023.186364 354.67578 
L 1023.186364 354.67578 
" clip-path="url(#pd99d7c7786)" style="fill: none; stroke-dasharray: 11.1,4.8; stroke-dashoffset: 0; stroke: #348abd; stroke-width: 3"/>
   </g>
   <g id="line2d_26">
    <path d="M 104.103388 54.886496 
L 107.077766 53.599422 
L 110.052145 51.037921 
L 113.026523 52.513762 
L 116.000902 52.2492 
L 118.975281 52.972069 
L 121.949659 52.214857 
L 124.924038 53.019798 
L 127.898416 51.002045 
L 130.872795 51.359491 
L 133.847173 51.582476 
L 136.821552 52.582752 
L 139.795931 58.306365 
L 142.770309 55.344637 
L 145.744688 55.078334 
L 148.719066 54.52652 
L 151.693445 55.733562 
L 154.667823 57.310793 
L 157.642202 58.533407 
L 160.61658 55.817019 
L 163.590959 57.513885 
L 166.565338 60.342532 
L 169.539716 58.819994 
L 172.514095 59.474988 
L 175.488473 60.895296 
L 178.462852 61.785277 
L 181.43723 64.439668 
L 184.411609 62.41369 
L 187.385988 65.37006 
L 190.360366 63.591662 
L 193.334745 65.030332 
L 196.309123 65.071425 
L 199.283502 65.714004 
L 202.25788 63.833645 
L 205.232259 66.01274 
L 208.206637 67.818527 
L 211.181016 63.563987 
L 214.155395 64.056186 
L 217.129773 65.771057 
L 223.07853 66.315345 
L 226.052909 64.215931 
L 229.027287 65.13568 
L 232.001666 68.03243 
L 234.976045 63.604245 
L 237.950423 63.378088 
L 240.924802 65.94249 
L 243.89918 64.958475 
L 246.873559 65.833348 
L 249.847937 67.230927 
L 252.822316 79.100559 
L 255.796694 100.909042 
L 401.541244 68.486417 
L 407.490001 62.743658 
L 410.46438 62.696426 
L 413.438758 62.828256 
L 416.413137 61.787731 
L 419.387515 61.318178 
L 422.361894 64.572206 
L 425.336273 66.711183 
L 428.310651 67.177988 
L 431.28503 65.025197 
L 434.259408 64.533948 
L 437.233787 64.541598 
L 440.208165 63.9423 
L 443.182544 68.927037 
L 446.156922 68.273839 
L 449.131301 66.341491 
L 452.10568 70.196404 
L 455.080058 67.797172 
L 458.054437 66.734845 
L 461.028815 68.637489 
L 464.003194 71.009743 
L 466.977572 70.047511 
L 469.951951 69.915422 
L 472.92633 69.956673 
L 475.900708 70.232296 
L 478.875087 72.143779 
L 481.849465 70.811803 
L 484.823844 67.693157 
L 487.798222 69.885186 
L 490.772601 70.658844 
L 493.746979 70.35944 
L 496.721358 72.362519 
L 499.695737 71.770347 
L 502.670115 75.816167 
L 505.644494 75.822139 
L 508.618872 73.608106 
L 511.593251 75.236243 
L 514.567629 73.912749 
L 517.542008 75.568751 
L 520.516387 73.149248 
L 523.490765 71.33152 
L 526.465144 73.463493 
L 529.439522 72.302796 
L 532.413901 69.822006 
L 535.388279 68.367941 
L 538.362658 73.561798 
L 541.337036 73.071621 
L 544.311415 75.503315 
L 547.285794 76.636052 
L 550.260172 85.013396 
L 553.234551 86.225951 
L 698.9791 82.14085 
L 701.953479 78.682822 
L 704.927857 80.285932 
L 707.902236 82.176747 
L 710.876615 80.092283 
L 713.850993 81.307265 
L 722.774129 85.733653 
L 725.748507 87.484053 
L 728.722886 88.979805 
L 731.697265 92.128689 
L 734.671643 93.286165 
L 737.646022 95.293262 
L 740.6204 83.774333 
L 743.594779 84.344056 
L 746.569157 86.263961 
L 749.543536 90.419572 
L 752.517914 89.195549 
L 755.492293 91.579246 
L 758.466672 91.408176 
L 761.44105 95.062233 
L 764.415429 88.922383 
L 767.389807 89.401111 
L 770.364186 90.108858 
L 773.338564 93.019724 
L 776.312943 91.96753 
L 779.287322 89.777704 
L 782.2617 91.873999 
L 785.236079 92.297734 
L 788.210457 95.301107 
L 791.184836 96.503616 
L 794.159214 100.26702 
L 797.133593 97.532196 
L 800.107971 102.548486 
L 803.08235 104.618639 
L 806.056729 102.184739 
L 809.031107 101.24928 
L 812.005486 104.239778 
L 814.979864 104.954604 
L 817.954243 104.213111 
L 820.928621 103.871761 
L 823.903 105.07594 
L 826.877379 108.154825 
L 829.851757 106.958079 
L 832.826136 107.249595 
L 835.800514 109.181157 
L 838.774893 106.113416 
L 841.749271 111.549475 
L 844.72365 113.047304 
L 847.698028 119.324519 
L 850.672407 128.342559 
L 996.416957 125.646889 
L 999.391335 113.567148 
L 1002.365714 109.923386 
L 1005.340092 110.848739 
L 1008.314471 107.203244 
L 1011.288849 109.143057 
L 1014.263228 113.007085 
L 1017.237607 110.251458 
L 1020.211985 110.97075 
L 1023.186364 117.150707 
L 1023.186364 117.150707 
" clip-path="url(#pd99d7c7786)" style="fill: none; stroke: #e24a33; stroke-width: 3; stroke-linecap: square"/>
   </g>
   <g id="line2d_27">
    <path d="M 104.103388 316.754455 
L 107.077766 317.386615 
L 110.052145 317.501386 
L 113.026523 319.421033 
L 116.000902 318.279792 
L 118.975281 321.691432 
L 121.949659 321.819578 
L 124.924038 320.958304 
L 127.898416 317.345324 
L 130.872795 322.724224 
L 133.847173 324.208337 
L 136.821552 327.438043 
L 139.795931 329.029459 
L 142.770309 326.249513 
L 145.744688 324.789938 
L 148.719066 323.506753 
L 151.693445 325.680947 
L 154.667823 325.04524 
L 157.642202 327.183055 
L 160.61658 327.996104 
L 163.590959 330.232318 
L 166.565338 330.948215 
L 169.539716 332.976031 
L 172.514095 336.665779 
L 175.488473 338.160983 
L 178.462852 340.025695 
L 181.43723 344.331322 
L 184.411609 341.338574 
L 187.385988 343.678509 
L 190.360366 346.697319 
L 193.334745 342.928876 
L 196.309123 342.324813 
L 199.283502 341.389991 
L 202.25788 350.362506 
L 205.232259 343.678814 
L 208.206637 342.001345 
L 211.181016 344.089366 
L 214.155395 341.870233 
L 217.129773 342.67444 
L 220.104152 341.589333 
L 223.07853 340.857482 
L 226.052909 339.032825 
L 229.027287 339.810753 
L 232.001666 342.549534 
L 234.976045 341.010204 
L 237.950423 340.303709 
L 240.924802 346.751538 
L 243.89918 341.840159 
L 246.873559 342.674271 
L 249.847937 349.046854 
L 252.822316 355.714069 
L 255.796694 379.842955 
L 401.541244 344.270271 
L 404.515623 342.887133 
L 407.490001 341.286154 
L 410.46438 342.479047 
L 413.438758 345.412009 
L 419.387515 342.577549 
L 422.361894 346.245414 
L 425.336273 357.094472 
L 428.310651 351.904236 
L 431.28503 351.803407 
L 434.259408 347.530334 
L 437.233787 347.158565 
L 440.208165 347.494597 
L 443.182544 348.995742 
L 446.156922 345.777886 
L 449.131301 340.358917 
L 452.10568 346.006657 
L 455.080058 347.268653 
L 458.054437 343.052966 
L 461.028815 348.291481 
L 464.003194 348.059336 
L 466.977572 344.591166 
L 469.951951 349.778524 
L 472.92633 349.146698 
L 475.900708 355.302916 
L 478.875087 352.976503 
L 481.849465 352.321443 
L 484.823844 353.948801 
L 487.798222 353.770922 
L 490.772601 355.728119 
L 493.746979 352.380432 
L 496.721358 350.248048 
L 499.695737 348.862632 
L 502.670115 353.043432 
L 505.644494 353.489985 
L 508.618872 348.919744 
L 511.593251 349.573644 
L 514.567629 352.702128 
L 517.542008 349.570013 
L 520.516387 348.876108 
L 523.490765 347.759162 
L 526.465144 348.344139 
L 529.439522 348.473777 
L 532.413901 354.592236 
L 535.388279 351.786136 
L 538.362658 356.43261 
L 541.337036 351.106751 
L 544.311415 355.393397 
L 547.285794 357.793587 
L 550.260172 364.087839 
L 553.234551 353.424774 
L 698.9791 349.786493 
L 701.953479 352.495208 
L 704.927857 350.66048 
L 707.902236 350.364773 
L 710.876615 352.995426 
L 713.850993 357.761759 
L 716.825372 354.875614 
L 719.79975 350.47749 
L 722.774129 356.123033 
L 725.748507 355.640484 
L 728.722886 356.535824 
L 731.697265 359.021038 
L 734.671643 356.901621 
L 737.646022 358.110037 
L 740.6204 349.17649 
L 743.594779 347.081485 
L 746.569157 346.769234 
L 749.543536 348.941333 
L 752.517914 347.615007 
L 755.492293 350.59164 
L 758.466672 351.740215 
L 761.44105 352.598062 
L 764.415429 354.777983 
L 767.389807 352.997059 
L 770.364186 355.601917 
L 773.338564 354.86397 
L 776.312943 353.715243 
L 779.287322 355.812644 
L 782.2617 355.017922 
L 785.236079 355.229057 
L 788.210457 352.864065 
L 791.184836 354.373183 
L 794.159214 358.050731 
L 797.133593 359.384489 
L 800.107971 357.695273 
L 803.08235 361.494817 
L 806.056729 359.782025 
L 809.031107 355.91828 
L 812.005486 361.979024 
L 814.979864 359.998288 
L 817.954243 358.915148 
L 820.928621 354.401331 
L 823.903 354.755419 
L 826.877379 353.177515 
L 832.826136 356.980884 
L 835.800514 361.692634 
L 838.774893 356.388852 
L 841.749271 359.868423 
L 844.72365 357.244167 
L 847.698028 368.161138 
L 850.672407 366.134809 
L 996.416957 366.763309 
L 999.391335 360.00256 
L 1002.365714 360.288306 
L 1005.340092 360.689364 
L 1008.314471 358.881679 
L 1011.288849 362.698247 
L 1014.263228 363.212681 
L 1017.237607 370.431051 
L 1020.211985 359.762513 
L 1023.186364 357.863232 
L 1023.186364 357.863232 
" clip-path="url(#pd99d7c7786)" style="fill: none; stroke: #348abd; stroke-opacity: 0.8; stroke-width: 1.5; stroke-linecap: square"/>
   </g>
   <g id="LineCollection_1">
    <path d="M 544.311415 376.504093 
L 544.311415 51.002045 
" clip-path="url(#pd99d7c7786)" style="fill: none; stroke-dasharray: 1.5,2.475; stroke-dashoffset: 0; stroke: #000000; stroke-width: 1.5"/>
   </g>
   <g id="patch_3">
    <path d="M 56.9 396.285 
L 56.9 34.56 
" style="fill: none; stroke: #ffffff; stroke-linejoin: miter; stroke-linecap: square"/>
   </g>
   <g id="patch_4">
    <path d="M 1069.2 396.285 
L 1069.2 34.56 
" style="fill: none; stroke: #ffffff; stroke-linejoin: miter; stroke-linecap: square"/>
   </g>
   <g id="patch_5">
    <path d="M 56.9 396.285 
L 1069.2 396.285 
" style="fill: none; stroke: #ffffff; stroke-linejoin: miter; stroke-linecap: square"/>
   </g>
   <g id="patch_6">
    <path d="M 56.9 34.56 
L 1069.2 34.56 
" style="fill: none; stroke: #ffffff; stroke-linejoin: miter; stroke-linecap: square"/>
   </g>
   <g id="legend_1">
    <g id="patch_7">
     <path d="M 907.9875 101.2725 
L 1062.2 101.2725 
Q 1064.2 101.2725 1064.2 99.2725 
L 1064.2 41.56 
Q 1064.2 39.56 1062.2 39.56 
L 907.9875 39.56 
Q 905.9875 39.56 905.9875 41.56 
L 905.9875 99.2725 
Q 905.9875 101.2725 907.9875 101.2725 
z
" style="fill: #e5e5e5; opacity: 0.8; stroke: #cccccc; stroke-width: 0.5; stroke-linejoin: miter"/>
    </g>
    <g id="line2d_28">
     <path d="M 909.9875 47.658437 
L 919.9875 47.658437 
L 929.9875 47.658437 
" style="fill: none; stroke-dasharray: 11.1,4.8; stroke-dashoffset: 0; stroke: #348abd; stroke-width: 3"/>
    </g>
    <g id="text_7">
     <!-- Control Avg. -->
     <g transform="translate(937.9875 51.158437) scale(0.1 -0.1)">
      <defs>
       <path id="DejaVuSans-72" d="M 2631 2963 
Q 2534 3019 2420 3045 
Q 2306 3072 2169 3072 
Q 1681 3072 1420 2755 
Q 1159 2438 1159 1844 
L 1159 0 
L 581 0 
L 581 3500 
L 1159 3500 
L 1159 2956 
Q 1341 3275 1631 3429 
Q 1922 3584 2338 3584 
Q 2397 3584 2469 3576 
Q 2541 3569 2628 3553 
L 2631 2963 
z
" transform="scale(0.015625)"/>
       <path id="DejaVuSans-6c" d="M 603 4863 
L 1178 4863 
L 1178 0 
L 603 0 
L 603 4863 
z
" transform="scale(0.015625)"/>
       <path id="DejaVuSans-41" d="M 2188 4044 
L 1331 1722 
L 3047 1722 
L 2188 4044 
z
M 1831 4666 
L 2547 4666 
L 4325 0 
L 3669 0 
L 3244 1197 
L 1141 1197 
L 716 0 
L 50 0 
L 1831 4666 
z
" transform="scale(0.015625)"/>
       <path id="DejaVuSans-76" d="M 191 3500 
L 800 3500 
L 1894 563 
L 2988 3500 
L 3597 3500 
L 2284 0 
L 1503 0 
L 191 3500 
z
" transform="scale(0.015625)"/>
       <path id="DejaVuSans-2e" d="M 684 794 
L 1344 794 
L 1344 0 
L 684 0 
L 684 794 
z
" transform="scale(0.015625)"/>
      </defs>
      <use xlink:href="#DejaVuSans-43"/>
      <use xlink:href="#DejaVuSans-6f" transform="translate(69.824219 0)"/>
      <use xlink:href="#DejaVuSans-6e" transform="translate(131.005859 0)"/>
      <use xlink:href="#DejaVuSans-74" transform="translate(194.384766 0)"/>
      <use xlink:href="#DejaVuSans-72" transform="translate(233.59375 0)"/>
      <use xlink:href="#DejaVuSans-6f" transform="translate(272.457031 0)"/>
      <use xlink:href="#DejaVuSans-6c" transform="translate(333.638672 0)"/>
      <use xlink:href="#DejaVuSans-20" transform="translate(361.421875 0)"/>
      <use xlink:href="#DejaVuSans-41" transform="translate(393.208984 0)"/>
      <use xlink:href="#DejaVuSans-76" transform="translate(455.742188 0)"/>
      <use xlink:href="#DejaVuSans-67" transform="translate(514.921875 0)"/>
      <use xlink:href="#DejaVuSans-2e" transform="translate(578.398438 0)"/>
     </g>
    </g>
    <g id="line2d_29">
     <path d="M 909.9875 62.336562 
L 919.9875 62.336562 
L 929.9875 62.336562 
" style="fill: none; stroke: #e24a33; stroke-width: 3; stroke-linecap: square"/>
    </g>
    <g id="text_8">
     <!-- Treatment Group -->
     <g transform="translate(937.9875 65.836562) scale(0.1 -0.1)">
      <defs>
       <path id="DejaVuSans-54" d="M -19 4666 
L 3928 4666 
L 3928 4134 
L 2272 4134 
L 2272 0 
L 1638 0 
L 1638 4134 
L -19 4134 
L -19 4666 
z
" transform="scale(0.015625)"/>
       <path id="DejaVuSans-61" d="M 2194 1759 
Q 1497 1759 1228 1600 
Q 959 1441 959 1056 
Q 959 750 1161 570 
Q 1363 391 1709 391 
Q 2188 391 2477 730 
Q 2766 1069 2766 1631 
L 2766 1759 
L 2194 1759 
z
M 3341 1997 
L 3341 0 
L 2766 0 
L 2766 531 
Q 2569 213 2275 61 
Q 1981 -91 1556 -91 
Q 1019 -91 701 211 
Q 384 513 384 1019 
Q 384 1609 779 1909 
Q 1175 2209 1959 2209 
L 2766 2209 
L 2766 2266 
Q 2766 2663 2505 2880 
Q 2244 3097 1772 3097 
Q 1472 3097 1187 3025 
Q 903 2953 641 2809 
L 641 3341 
Q 956 3463 1253 3523 
Q 1550 3584 1831 3584 
Q 2591 3584 2966 3190 
Q 3341 2797 3341 1997 
z
" transform="scale(0.015625)"/>
       <path id="DejaVuSans-6d" d="M 3328 2828 
Q 3544 3216 3844 3400 
Q 4144 3584 4550 3584 
Q 5097 3584 5394 3201 
Q 5691 2819 5691 2113 
L 5691 0 
L 5113 0 
L 5113 2094 
Q 5113 2597 4934 2840 
Q 4756 3084 4391 3084 
Q 3944 3084 3684 2787 
Q 3425 2491 3425 1978 
L 3425 0 
L 2847 0 
L 2847 2094 
Q 2847 2600 2669 2842 
Q 2491 3084 2119 3084 
Q 1678 3084 1418 2786 
Q 1159 2488 1159 1978 
L 1159 0 
L 581 0 
L 581 3500 
L 1159 3500 
L 1159 2956 
Q 1356 3278 1631 3431 
Q 1906 3584 2284 3584 
Q 2666 3584 2933 3390 
Q 3200 3197 3328 2828 
z
" transform="scale(0.015625)"/>
       <path id="DejaVuSans-47" d="M 3809 666 
L 3809 1919 
L 2778 1919 
L 2778 2438 
L 4434 2438 
L 4434 434 
Q 4069 175 3628 42 
Q 3188 -91 2688 -91 
Q 1594 -91 976 548 
Q 359 1188 359 2328 
Q 359 3472 976 4111 
Q 1594 4750 2688 4750 
Q 3144 4750 3555 4637 
Q 3966 4525 4313 4306 
L 4313 3634 
Q 3963 3931 3569 4081 
Q 3175 4231 2741 4231 
Q 1884 4231 1454 3753 
Q 1025 3275 1025 2328 
Q 1025 1384 1454 906 
Q 1884 428 2741 428 
Q 3075 428 3337 486 
Q 3600 544 3809 666 
z
" transform="scale(0.015625)"/>
       <path id="DejaVuSans-70" d="M 1159 525 
L 1159 -1331 
L 581 -1331 
L 581 3500 
L 1159 3500 
L 1159 2969 
Q 1341 3281 1617 3432 
Q 1894 3584 2278 3584 
Q 2916 3584 3314 3078 
Q 3713 2572 3713 1747 
Q 3713 922 3314 415 
Q 2916 -91 2278 -91 
Q 1894 -91 1617 61 
Q 1341 213 1159 525 
z
M 3116 1747 
Q 3116 2381 2855 2742 
Q 2594 3103 2138 3103 
Q 1681 3103 1420 2742 
Q 1159 2381 1159 1747 
Q 1159 1113 1420 752 
Q 1681 391 2138 391 
Q 2594 391 2855 752 
Q 3116 1113 3116 1747 
z
" transform="scale(0.015625)"/>
      </defs>
      <use xlink:href="#DejaVuSans-54"/>
      <use xlink:href="#DejaVuSans-72" transform="translate(46.333984 0)"/>
      <use xlink:href="#DejaVuSans-65" transform="translate(85.197266 0)"/>
      <use xlink:href="#DejaVuSans-61" transform="translate(146.720703 0)"/>
      <use xlink:href="#DejaVuSans-74" transform="translate(208 0)"/>
      <use xlink:href="#DejaVuSans-6d" transform="translate(247.208984 0)"/>
      <use xlink:href="#DejaVuSans-65" transform="translate(344.621094 0)"/>
      <use xlink:href="#DejaVuSans-6e" transform="translate(406.144531 0)"/>
      <use xlink:href="#DejaVuSans-74" transform="translate(469.523438 0)"/>
      <use xlink:href="#DejaVuSans-20" transform="translate(508.732422 0)"/>
      <use xlink:href="#DejaVuSans-47" transform="translate(540.519531 0)"/>
      <use xlink:href="#DejaVuSans-72" transform="translate(618.009766 0)"/>
      <use xlink:href="#DejaVuSans-6f" transform="translate(656.873047 0)"/>
      <use xlink:href="#DejaVuSans-75" transform="translate(718.054688 0)"/>
      <use xlink:href="#DejaVuSans-70" transform="translate(781.433594 0)"/>
     </g>
    </g>
    <g id="line2d_30">
     <path d="M 909.9875 77.014687 
L 919.9875 77.014687 
L 929.9875 77.014687 
" style="fill: none; stroke: #348abd; stroke-opacity: 0.8; stroke-width: 1.5; stroke-linecap: square"/>
    </g>
    <g id="text_9">
     <!-- Synthetic Control (SDID) -->
     <g transform="translate(937.9875 80.514687) scale(0.1 -0.1)">
      <defs>
       <path id="DejaVuSans-53" d="M 3425 4513 
L 3425 3897 
Q 3066 4069 2747 4153 
Q 2428 4238 2131 4238 
Q 1616 4238 1336 4038 
Q 1056 3838 1056 3469 
Q 1056 3159 1242 3001 
Q 1428 2844 1947 2747 
L 2328 2669 
Q 3034 2534 3370 2195 
Q 3706 1856 3706 1288 
Q 3706 609 3251 259 
Q 2797 -91 1919 -91 
Q 1588 -91 1214 -16 
Q 841 59 441 206 
L 441 856 
Q 825 641 1194 531 
Q 1563 422 1919 422 
Q 2459 422 2753 634 
Q 3047 847 3047 1241 
Q 3047 1584 2836 1778 
Q 2625 1972 2144 2069 
L 1759 2144 
Q 1053 2284 737 2584 
Q 422 2884 422 3419 
Q 422 4038 858 4394 
Q 1294 4750 2059 4750 
Q 2388 4750 2728 4690 
Q 3069 4631 3425 4513 
z
" transform="scale(0.015625)"/>
       <path id="DejaVuSans-79" d="M 2059 -325 
Q 1816 -950 1584 -1140 
Q 1353 -1331 966 -1331 
L 506 -1331 
L 506 -850 
L 844 -850 
Q 1081 -850 1212 -737 
Q 1344 -625 1503 -206 
L 1606 56 
L 191 3500 
L 800 3500 
L 1894 763 
L 2988 3500 
L 3597 3500 
L 2059 -325 
z
" transform="scale(0.015625)"/>
       <path id="DejaVuSans-68" d="M 3513 2113 
L 3513 0 
L 2938 0 
L 2938 2094 
Q 2938 2591 2744 2837 
Q 2550 3084 2163 3084 
Q 1697 3084 1428 2787 
Q 1159 2491 1159 1978 
L 1159 0 
L 581 0 
L 581 4863 
L 1159 4863 
L 1159 2956 
Q 1366 3272 1645 3428 
Q 1925 3584 2291 3584 
Q 2894 3584 3203 3211 
Q 3513 2838 3513 2113 
z
" transform="scale(0.015625)"/>
       <path id="DejaVuSans-63" d="M 3122 3366 
L 3122 2828 
Q 2878 2963 2633 3030 
Q 2388 3097 2138 3097 
Q 1578 3097 1268 2742 
Q 959 2388 959 1747 
Q 959 1106 1268 751 
Q 1578 397 2138 397 
Q 2388 397 2633 464 
Q 2878 531 3122 666 
L 3122 134 
Q 2881 22 2623 -34 
Q 2366 -91 2075 -91 
Q 1284 -91 818 406 
Q 353 903 353 1747 
Q 353 2603 823 3093 
Q 1294 3584 2113 3584 
Q 2378 3584 2631 3529 
Q 2884 3475 3122 3366 
z
" transform="scale(0.015625)"/>
       <path id="DejaVuSans-28" d="M 1984 4856 
Q 1566 4138 1362 3434 
Q 1159 2731 1159 2009 
Q 1159 1288 1364 580 
Q 1569 -128 1984 -844 
L 1484 -844 
Q 1016 -109 783 600 
Q 550 1309 550 2009 
Q 550 2706 781 3412 
Q 1013 4119 1484 4856 
L 1984 4856 
z
" transform="scale(0.015625)"/>
       <path id="DejaVuSans-44" d="M 1259 4147 
L 1259 519 
L 2022 519 
Q 2988 519 3436 956 
Q 3884 1394 3884 2338 
Q 3884 3275 3436 3711 
Q 2988 4147 2022 4147 
L 1259 4147 
z
M 628 4666 
L 1925 4666 
Q 3281 4666 3915 4102 
Q 4550 3538 4550 2338 
Q 4550 1131 3912 565 
Q 3275 0 1925 0 
L 628 0 
L 628 4666 
z
" transform="scale(0.015625)"/>
       <path id="DejaVuSans-49" d="M 628 4666 
L 1259 4666 
L 1259 0 
L 628 0 
L 628 4666 
z
" transform="scale(0.015625)"/>
       <path id="DejaVuSans-29" d="M 513 4856 
L 1013 4856 
Q 1481 4119 1714 3412 
Q 1947 2706 1947 2009 
Q 1947 1309 1714 600 
Q 1481 -109 1013 -844 
L 513 -844 
Q 928 -128 1133 580 
Q 1338 1288 1338 2009 
Q 1338 2731 1133 3434 
Q 928 4138 513 4856 
z
" transform="scale(0.015625)"/>
      </defs>
      <use xlink:href="#DejaVuSans-53"/>
      <use xlink:href="#DejaVuSans-79" transform="translate(63.476562 0)"/>
      <use xlink:href="#DejaVuSans-6e" transform="translate(122.65625 0)"/>
      <use xlink:href="#DejaVuSans-74" transform="translate(186.035156 0)"/>
      <use xlink:href="#DejaVuSans-68" transform="translate(225.244141 0)"/>
      <use xlink:href="#DejaVuSans-65" transform="translate(288.623047 0)"/>
      <use xlink:href="#DejaVuSans-74" transform="translate(350.146484 0)"/>
      <use xlink:href="#DejaVuSans-69" transform="translate(389.355469 0)"/>
      <use xlink:href="#DejaVuSans-63" transform="translate(417.138672 0)"/>
      <use xlink:href="#DejaVuSans-20" transform="translate(472.119141 0)"/>
      <use xlink:href="#DejaVuSans-43" transform="translate(503.90625 0)"/>
      <use xlink:href="#DejaVuSans-6f" transform="translate(573.730469 0)"/>
      <use xlink:href="#DejaVuSans-6e" transform="translate(634.912109 0)"/>
      <use xlink:href="#DejaVuSans-74" transform="translate(698.291016 0)"/>
      <use xlink:href="#DejaVuSans-72" transform="translate(737.5 0)"/>
      <use xlink:href="#DejaVuSans-6f" transform="translate(776.363281 0)"/>
      <use xlink:href="#DejaVuSans-6c" transform="translate(837.544922 0)"/>
      <use xlink:href="#DejaVuSans-20" transform="translate(865.328125 0)"/>
      <use xlink:href="#DejaVuSans-28" transform="translate(897.115234 0)"/>
      <use xlink:href="#DejaVuSans-53" transform="translate(936.128906 0)"/>
      <use xlink:href="#DejaVuSans-44" transform="translate(999.605469 0)"/>
      <use xlink:href="#DejaVuSans-49" transform="translate(1076.607422 0)"/>
      <use xlink:href="#DejaVuSans-44" transform="translate(1106.099609 0)"/>
      <use xlink:href="#DejaVuSans-29" transform="translate(1183.101562 0)"/>
     </g>
    </g>
    <g id="line2d_31">
     <path d="M 909.9875 91.692812 
L 929.9875 91.692812 
" style="fill: none; stroke-dasharray: 1.5,2.475; stroke-dashoffset: 0; stroke: #000000; stroke-width: 1.5"/>
    </g>
    <g id="text_10">
     <!-- Treatment Start -->
     <g transform="translate(937.9875 95.192812) scale(0.1 -0.1)">
      <use xlink:href="#DejaVuSans-54"/>
      <use xlink:href="#DejaVuSans-72" transform="translate(46.333984 0)"/>
      <use xlink:href="#DejaVuSans-65" transform="translate(85.197266 0)"/>
      <use xlink:href="#DejaVuSans-61" transform="translate(146.720703 0)"/>
      <use xlink:href="#DejaVuSans-74" transform="translate(208 0)"/>
      <use xlink:href="#DejaVuSans-6d" transform="translate(247.208984 0)"/>
      <use xlink:href="#DejaVuSans-65" transform="translate(344.621094 0)"/>
      <use xlink:href="#DejaVuSans-6e" transform="translate(406.144531 0)"/>
      <use xlink:href="#DejaVuSans-74" transform="translate(469.523438 0)"/>
      <use xlink:href="#DejaVuSans-20" transform="translate(508.732422 0)"/>
      <use xlink:href="#DejaVuSans-53" transform="translate(540.519531 0)"/>
      <use xlink:href="#DejaVuSans-74" transform="translate(603.996094 0)"/>
      <use xlink:href="#DejaVuSans-61" transform="translate(643.205078 0)"/>
      <use xlink:href="#DejaVuSans-72" transform="translate(704.484375 0)"/>
      <use xlink:href="#DejaVuSans-74" transform="translate(745.597656 0)"/>
     </g>
    </g>
   </g>
  </g>
  <g id="axes_2">
   <g id="patch_8">
    <path d="M 56.9 531.16 
L 1069.2 531.16 
L 1069.2 410.585 
L 56.9 410.585 
z
" style="fill: #e5e5e5"/>
   </g>
   <g id="matplotlib.axis_3">
    <g id="xtick_8">
     <g id="line2d_32">
      <path d="M 101.129009 531.16 
L 101.129009 410.585 
" clip-path="url(#pa68ff39e08)" style="fill: none; stroke: #ffffff; stroke-width: 0.8; stroke-linecap: square"/>
     </g>
     <g id="line2d_33">
      <g>
       <use xlink:href="#m7f63b11d07" x="101.129009" y="531.16" style="fill: #555555; stroke: #555555; stroke-width: 0.8"/>
      </g>
     </g>
     <g id="text_11">
      <!-- 202100 -->
      <g style="fill: #555555" transform="translate(82.041509 545.758438) scale(0.1 -0.1)">
       <defs>
        <path id="DejaVuSans-32" d="M 1228 531 
L 3431 531 
L 3431 0 
L 469 0 
L 469 531 
Q 828 903 1448 1529 
Q 2069 2156 2228 2338 
Q 2531 2678 2651 2914 
Q 2772 3150 2772 3378 
Q 2772 3750 2511 3984 
Q 2250 4219 1831 4219 
Q 1534 4219 1204 4116 
Q 875 4013 500 3803 
L 500 4441 
Q 881 4594 1212 4672 
Q 1544 4750 1819 4750 
Q 2544 4750 2975 4387 
Q 3406 4025 3406 3419 
Q 3406 3131 3298 2873 
Q 3191 2616 2906 2266 
Q 2828 2175 2409 1742 
Q 1991 1309 1228 531 
z
" transform="scale(0.015625)"/>
       </defs>
       <use xlink:href="#DejaVuSans-32"/>
       <use xlink:href="#DejaVuSans-30" transform="translate(63.623047 0)"/>
       <use xlink:href="#DejaVuSans-32" transform="translate(127.246094 0)"/>
       <use xlink:href="#DejaVuSans-31" transform="translate(190.869141 0)"/>
       <use xlink:href="#DejaVuSans-30" transform="translate(254.492188 0)"/>
       <use xlink:href="#DejaVuSans-30" transform="translate(318.115234 0)"/>
      </g>
     </g>
    </g>
    <g id="xtick_9">
     <g id="line2d_34">
      <path d="M 249.847937 531.16 
L 249.847937 410.585 
" clip-path="url(#pa68ff39e08)" style="fill: none; stroke: #ffffff; stroke-width: 0.8; stroke-linecap: square"/>
     </g>
     <g id="line2d_35">
      <g>
       <use xlink:href="#m7f63b11d07" x="249.847937" y="531.16" style="fill: #555555; stroke: #555555; stroke-width: 0.8"/>
      </g>
     </g>
     <g id="text_12">
      <!-- 202150 -->
      <g style="fill: #555555" transform="translate(230.760437 545.758438) scale(0.1 -0.1)">
       <defs>
        <path id="DejaVuSans-35" d="M 691 4666 
L 3169 4666 
L 3169 4134 
L 1269 4134 
L 1269 2991 
Q 1406 3038 1543 3061 
Q 1681 3084 1819 3084 
Q 2600 3084 3056 2656 
Q 3513 2228 3513 1497 
Q 3513 744 3044 326 
Q 2575 -91 1722 -91 
Q 1428 -91 1123 -41 
Q 819 9 494 109 
L 494 744 
Q 775 591 1075 516 
Q 1375 441 1709 441 
Q 2250 441 2565 725 
Q 2881 1009 2881 1497 
Q 2881 1984 2565 2268 
Q 2250 2553 1709 2553 
Q 1456 2553 1204 2497 
Q 953 2441 691 2322 
L 691 4666 
z
" transform="scale(0.015625)"/>
       </defs>
       <use xlink:href="#DejaVuSans-32"/>
       <use xlink:href="#DejaVuSans-30" transform="translate(63.623047 0)"/>
       <use xlink:href="#DejaVuSans-32" transform="translate(127.246094 0)"/>
       <use xlink:href="#DejaVuSans-31" transform="translate(190.869141 0)"/>
       <use xlink:href="#DejaVuSans-35" transform="translate(254.492188 0)"/>
       <use xlink:href="#DejaVuSans-30" transform="translate(318.115234 0)"/>
      </g>
     </g>
    </g>
    <g id="xtick_10">
     <g id="line2d_36">
      <path d="M 398.566865 531.16 
L 398.566865 410.585 
" clip-path="url(#pa68ff39e08)" style="fill: none; stroke: #ffffff; stroke-width: 0.8; stroke-linecap: square"/>
     </g>
     <g id="line2d_37">
      <g>
       <use xlink:href="#m7f63b11d07" x="398.566865" y="531.16" style="fill: #555555; stroke: #555555; stroke-width: 0.8"/>
      </g>
     </g>
     <g id="text_13">
      <!-- 202200 -->
      <g style="fill: #555555" transform="translate(379.479365 545.758438) scale(0.1 -0.1)">
       <use xlink:href="#DejaVuSans-32"/>
       <use xlink:href="#DejaVuSans-30" transform="translate(63.623047 0)"/>
       <use xlink:href="#DejaVuSans-32" transform="translate(127.246094 0)"/>
       <use xlink:href="#DejaVuSans-32" transform="translate(190.869141 0)"/>
       <use xlink:href="#DejaVuSans-30" transform="translate(254.492188 0)"/>
       <use xlink:href="#DejaVuSans-30" transform="translate(318.115234 0)"/>
      </g>
     </g>
    </g>
    <g id="xtick_11">
     <g id="line2d_38">
      <path d="M 547.285794 531.16 
L 547.285794 410.585 
" clip-path="url(#pa68ff39e08)" style="fill: none; stroke: #ffffff; stroke-width: 0.8; stroke-linecap: square"/>
     </g>
     <g id="line2d_39">
      <g>
       <use xlink:href="#m7f63b11d07" x="547.285794" y="531.16" style="fill: #555555; stroke: #555555; stroke-width: 0.8"/>
      </g>
     </g>
     <g id="text_14">
      <!-- 202250 -->
      <g style="fill: #555555" transform="translate(528.198294 545.758438) scale(0.1 -0.1)">
       <use xlink:href="#DejaVuSans-32"/>
       <use xlink:href="#DejaVuSans-30" transform="translate(63.623047 0)"/>
       <use xlink:href="#DejaVuSans-32" transform="translate(127.246094 0)"/>
       <use xlink:href="#DejaVuSans-32" transform="translate(190.869141 0)"/>
       <use xlink:href="#DejaVuSans-35" transform="translate(254.492188 0)"/>
       <use xlink:href="#DejaVuSans-30" transform="translate(318.115234 0)"/>
      </g>
     </g>
    </g>
    <g id="xtick_12">
     <g id="line2d_40">
      <path d="M 696.004722 531.16 
L 696.004722 410.585 
" clip-path="url(#pa68ff39e08)" style="fill: none; stroke: #ffffff; stroke-width: 0.8; stroke-linecap: square"/>
     </g>
     <g id="line2d_41">
      <g>
       <use xlink:href="#m7f63b11d07" x="696.004722" y="531.16" style="fill: #555555; stroke: #555555; stroke-width: 0.8"/>
      </g>
     </g>
     <g id="text_15">
      <!-- 202300 -->
      <g style="fill: #555555" transform="translate(676.917222 545.758438) scale(0.1 -0.1)">
       <defs>
        <path id="DejaVuSans-33" d="M 2597 2516 
Q 3050 2419 3304 2112 
Q 3559 1806 3559 1356 
Q 3559 666 3084 287 
Q 2609 -91 1734 -91 
Q 1441 -91 1130 -33 
Q 819 25 488 141 
L 488 750 
Q 750 597 1062 519 
Q 1375 441 1716 441 
Q 2309 441 2620 675 
Q 2931 909 2931 1356 
Q 2931 1769 2642 2001 
Q 2353 2234 1838 2234 
L 1294 2234 
L 1294 2753 
L 1863 2753 
Q 2328 2753 2575 2939 
Q 2822 3125 2822 3475 
Q 2822 3834 2567 4026 
Q 2313 4219 1838 4219 
Q 1578 4219 1281 4162 
Q 984 4106 628 3988 
L 628 4550 
Q 988 4650 1302 4700 
Q 1616 4750 1894 4750 
Q 2613 4750 3031 4423 
Q 3450 4097 3450 3541 
Q 3450 3153 3228 2886 
Q 3006 2619 2597 2516 
z
" transform="scale(0.015625)"/>
       </defs>
       <use xlink:href="#DejaVuSans-32"/>
       <use xlink:href="#DejaVuSans-30" transform="translate(63.623047 0)"/>
       <use xlink:href="#DejaVuSans-32" transform="translate(127.246094 0)"/>
       <use xlink:href="#DejaVuSans-33" transform="translate(190.869141 0)"/>
       <use xlink:href="#DejaVuSans-30" transform="translate(254.492188 0)"/>
       <use xlink:href="#DejaVuSans-30" transform="translate(318.115234 0)"/>
      </g>
     </g>
    </g>
    <g id="xtick_13">
     <g id="line2d_42">
      <path d="M 844.72365 531.16 
L 844.72365 410.585 
" clip-path="url(#pa68ff39e08)" style="fill: none; stroke: #ffffff; stroke-width: 0.8; stroke-linecap: square"/>
     </g>
     <g id="line2d_43">
      <g>
       <use xlink:href="#m7f63b11d07" x="844.72365" y="531.16" style="fill: #555555; stroke: #555555; stroke-width: 0.8"/>
      </g>
     </g>
     <g id="text_16">
      <!-- 202350 -->
      <g style="fill: #555555" transform="translate(825.63615 545.758438) scale(0.1 -0.1)">
       <use xlink:href="#DejaVuSans-32"/>
       <use xlink:href="#DejaVuSans-30" transform="translate(63.623047 0)"/>
       <use xlink:href="#DejaVuSans-32" transform="translate(127.246094 0)"/>
       <use xlink:href="#DejaVuSans-33" transform="translate(190.869141 0)"/>
       <use xlink:href="#DejaVuSans-35" transform="translate(254.492188 0)"/>
       <use xlink:href="#DejaVuSans-30" transform="translate(318.115234 0)"/>
      </g>
     </g>
    </g>
    <g id="xtick_14">
     <g id="line2d_44">
      <path d="M 993.442578 531.16 
L 993.442578 410.585 
" clip-path="url(#pa68ff39e08)" style="fill: none; stroke: #ffffff; stroke-width: 0.8; stroke-linecap: square"/>
     </g>
     <g id="line2d_45">
      <g>
       <use xlink:href="#m7f63b11d07" x="993.442578" y="531.16" style="fill: #555555; stroke: #555555; stroke-width: 0.8"/>
      </g>
     </g>
     <g id="text_17">
      <!-- 202400 -->
      <g style="fill: #555555" transform="translate(974.355078 545.758438) scale(0.1 -0.1)">
       <defs>
        <path id="DejaVuSans-34" d="M 2419 4116 
L 825 1625 
L 2419 1625 
L 2419 4116 
z
M 2253 4666 
L 3047 4666 
L 3047 1625 
L 3713 1625 
L 3713 1100 
L 3047 1100 
L 3047 0 
L 2419 0 
L 2419 1100 
L 313 1100 
L 313 1709 
L 2253 4666 
z
" transform="scale(0.015625)"/>
       </defs>
       <use xlink:href="#DejaVuSans-32"/>
       <use xlink:href="#DejaVuSans-30" transform="translate(63.623047 0)"/>
       <use xlink:href="#DejaVuSans-32" transform="translate(127.246094 0)"/>
       <use xlink:href="#DejaVuSans-34" transform="translate(190.869141 0)"/>
       <use xlink:href="#DejaVuSans-30" transform="translate(254.492188 0)"/>
       <use xlink:href="#DejaVuSans-30" transform="translate(318.115234 0)"/>
      </g>
     </g>
    </g>
    <g id="text_18">
     <!-- Time -->
     <g style="fill: #555555" transform="translate(548.369688 560.95625) scale(0.12 -0.12)">
      <use xlink:href="#DejaVuSans-54"/>
      <use xlink:href="#DejaVuSans-69" transform="translate(57.958984 0)"/>
      <use xlink:href="#DejaVuSans-6d" transform="translate(85.742188 0)"/>
      <use xlink:href="#DejaVuSans-65" transform="translate(183.154297 0)"/>
     </g>
    </g>
   </g>
   <g id="matplotlib.axis_4">
    <g id="ytick_6">
     <g id="line2d_46">
      <path d="M 56.9 531.16 
L 1069.2 531.16 
" clip-path="url(#pa68ff39e08)" style="fill: none; stroke: #ffffff; stroke-width: 0.8; stroke-linecap: square"/>
     </g>
     <g id="line2d_47">
      <g>
       <use xlink:href="#m28d262c180" x="56.9" y="531.16" style="fill: #555555; stroke: #555555; stroke-width: 0.8"/>
      </g>
     </g>
     <g id="text_19">
      <!-- 0.000 -->
      <g style="fill: #555555" transform="translate(21.271875 534.959219) scale(0.1 -0.1)">
       <use xlink:href="#DejaVuSans-30"/>
       <use xlink:href="#DejaVuSans-2e" transform="translate(63.623047 0)"/>
       <use xlink:href="#DejaVuSans-30" transform="translate(95.410156 0)"/>
       <use xlink:href="#DejaVuSans-30" transform="translate(159.033203 0)"/>
       <use xlink:href="#DejaVuSans-30" transform="translate(222.65625 0)"/>
      </g>
     </g>
    </g>
    <g id="ytick_7">
     <g id="line2d_48">
      <path d="M 56.9 507.831334 
L 1069.2 507.831334 
" clip-path="url(#pa68ff39e08)" style="fill: none; stroke: #ffffff; stroke-width: 0.8; stroke-linecap: square"/>
     </g>
     <g id="line2d_49">
      <g>
       <use xlink:href="#m28d262c180" x="56.9" y="507.831334" style="fill: #555555; stroke: #555555; stroke-width: 0.8"/>
      </g>
     </g>
     <g id="text_20">
      <!-- 0.025 -->
      <g style="fill: #555555" transform="translate(21.271875 511.630552) scale(0.1 -0.1)">
       <use xlink:href="#DejaVuSans-30"/>
       <use xlink:href="#DejaVuSans-2e" transform="translate(63.623047 0)"/>
       <use xlink:href="#DejaVuSans-30" transform="translate(95.410156 0)"/>
       <use xlink:href="#DejaVuSans-32" transform="translate(159.033203 0)"/>
       <use xlink:href="#DejaVuSans-35" transform="translate(222.65625 0)"/>
      </g>
     </g>
    </g>
    <g id="ytick_8">
     <g id="line2d_50">
      <path d="M 56.9 484.502667 
L 1069.2 484.502667 
" clip-path="url(#pa68ff39e08)" style="fill: none; stroke: #ffffff; stroke-width: 0.8; stroke-linecap: square"/>
     </g>
     <g id="line2d_51">
      <g>
       <use xlink:href="#m28d262c180" x="56.9" y="484.502667" style="fill: #555555; stroke: #555555; stroke-width: 0.8"/>
      </g>
     </g>
     <g id="text_21">
      <!-- 0.050 -->
      <g style="fill: #555555" transform="translate(21.271875 488.301886) scale(0.1 -0.1)">
       <use xlink:href="#DejaVuSans-30"/>
       <use xlink:href="#DejaVuSans-2e" transform="translate(63.623047 0)"/>
       <use xlink:href="#DejaVuSans-30" transform="translate(95.410156 0)"/>
       <use xlink:href="#DejaVuSans-35" transform="translate(159.033203 0)"/>
       <use xlink:href="#DejaVuSans-30" transform="translate(222.65625 0)"/>
      </g>
     </g>
    </g>
    <g id="ytick_9">
     <g id="line2d_52">
      <path d="M 56.9 461.174001 
L 1069.2 461.174001 
" clip-path="url(#pa68ff39e08)" style="fill: none; stroke: #ffffff; stroke-width: 0.8; stroke-linecap: square"/>
     </g>
     <g id="line2d_53">
      <g>
       <use xlink:href="#m28d262c180" x="56.9" y="461.174001" style="fill: #555555; stroke: #555555; stroke-width: 0.8"/>
      </g>
     </g>
     <g id="text_22">
      <!-- 0.075 -->
      <g style="fill: #555555" transform="translate(21.271875 464.97322) scale(0.1 -0.1)">
       <use xlink:href="#DejaVuSans-30"/>
       <use xlink:href="#DejaVuSans-2e" transform="translate(63.623047 0)"/>
       <use xlink:href="#DejaVuSans-30" transform="translate(95.410156 0)"/>
       <use xlink:href="#DejaVuSans-37" transform="translate(159.033203 0)"/>
       <use xlink:href="#DejaVuSans-35" transform="translate(222.65625 0)"/>
      </g>
     </g>
    </g>
    <g id="ytick_10">
     <g id="line2d_54">
      <path d="M 56.9 437.845335 
L 1069.2 437.845335 
" clip-path="url(#pa68ff39e08)" style="fill: none; stroke: #ffffff; stroke-width: 0.8; stroke-linecap: square"/>
     </g>
     <g id="line2d_55">
      <g>
       <use xlink:href="#m28d262c180" x="56.9" y="437.845335" style="fill: #555555; stroke: #555555; stroke-width: 0.8"/>
      </g>
     </g>
     <g id="text_23">
      <!-- 0.100 -->
      <g style="fill: #555555" transform="translate(21.271875 441.644553) scale(0.1 -0.1)">
       <use xlink:href="#DejaVuSans-30"/>
       <use xlink:href="#DejaVuSans-2e" transform="translate(63.623047 0)"/>
       <use xlink:href="#DejaVuSans-31" transform="translate(95.410156 0)"/>
       <use xlink:href="#DejaVuSans-30" transform="translate(159.033203 0)"/>
       <use xlink:href="#DejaVuSans-30" transform="translate(222.65625 0)"/>
      </g>
     </g>
    </g>
    <g id="ytick_11">
     <g id="line2d_56">
      <path d="M 56.9 414.516668 
L 1069.2 414.516668 
" clip-path="url(#pa68ff39e08)" style="fill: none; stroke: #ffffff; stroke-width: 0.8; stroke-linecap: square"/>
     </g>
     <g id="line2d_57">
      <g>
       <use xlink:href="#m28d262c180" x="56.9" y="414.516668" style="fill: #555555; stroke: #555555; stroke-width: 0.8"/>
      </g>
     </g>
     <g id="text_24">
      <!-- 0.125 -->
      <g style="fill: #555555" transform="translate(21.271875 418.315887) scale(0.1 -0.1)">
       <use xlink:href="#DejaVuSans-30"/>
       <use xlink:href="#DejaVuSans-2e" transform="translate(63.623047 0)"/>
       <use xlink:href="#DejaVuSans-31" transform="translate(95.410156 0)"/>
       <use xlink:href="#DejaVuSans-32" transform="translate(159.033203 0)"/>
       <use xlink:href="#DejaVuSans-35" transform="translate(222.65625 0)"/>
      </g>
     </g>
    </g>
    <g id="text_25">
     <!-- Time Weights -->
     <g style="fill: #555555" transform="translate(14.77625 511.487812) rotate(-90) scale(0.12 -0.12)">
      <defs>
       <path id="DejaVuSans-57" d="M 213 4666 
L 850 4666 
L 1831 722 
L 2809 4666 
L 3519 4666 
L 4500 722 
L 5478 4666 
L 6119 4666 
L 4947 0 
L 4153 0 
L 3169 4050 
L 2175 0 
L 1381 0 
L 213 4666 
z
" transform="scale(0.015625)"/>
      </defs>
      <use xlink:href="#DejaVuSans-54"/>
      <use xlink:href="#DejaVuSans-69" transform="translate(57.958984 0)"/>
      <use xlink:href="#DejaVuSans-6d" transform="translate(85.742188 0)"/>
      <use xlink:href="#DejaVuSans-65" transform="translate(183.154297 0)"/>
      <use xlink:href="#DejaVuSans-20" transform="translate(244.677734 0)"/>
      <use xlink:href="#DejaVuSans-57" transform="translate(276.464844 0)"/>
      <use xlink:href="#DejaVuSans-65" transform="translate(369.466797 0)"/>
      <use xlink:href="#DejaVuSans-69" transform="translate(430.990234 0)"/>
      <use xlink:href="#DejaVuSans-67" transform="translate(458.773438 0)"/>
      <use xlink:href="#DejaVuSans-68" transform="translate(522.25 0)"/>
      <use xlink:href="#DejaVuSans-74" transform="translate(585.628906 0)"/>
      <use xlink:href="#DejaVuSans-73" transform="translate(624.837891 0)"/>
     </g>
    </g>
   </g>
   <g id="patch_9">
    <path d="M 102.913636 531.16 
L 105.293139 531.16 
L 105.293139 530.986858 
L 102.913636 530.986858 
z
" clip-path="url(#pa68ff39e08)" style="fill: #87ceeb"/>
   </g>
   <g id="patch_10">
    <path d="M 105.888015 531.16 
L 108.267518 531.16 
L 108.267518 530.337623 
L 105.888015 530.337623 
z
" clip-path="url(#pa68ff39e08)" style="fill: #87ceeb"/>
   </g>
   <g id="patch_11">
    <path d="M 108.862393 531.16 
L 111.241896 531.16 
L 111.241896 529.590779 
L 108.862393 529.590779 
z
" clip-path="url(#pa68ff39e08)" style="fill: #87ceeb"/>
   </g>
   <g id="patch_12">
    <path d="M 111.836772 531.16 
L 114.216275 531.16 
L 114.216275 528.349719 
L 111.836772 528.349719 
z
" clip-path="url(#pa68ff39e08)" style="fill: #87ceeb"/>
   </g>
   <g id="patch_13">
    <path d="M 114.811151 531.16 
L 117.190653 531.16 
L 117.190653 529.556107 
L 114.811151 529.556107 
z
" clip-path="url(#pa68ff39e08)" style="fill: #87ceeb"/>
   </g>
   <g id="patch_14">
    <path d="M 117.785529 531.16 
L 120.165032 531.16 
L 120.165032 531.102245 
L 117.785529 531.102245 
z
" clip-path="url(#pa68ff39e08)" style="fill: #87ceeb"/>
   </g>
   <g id="patch_15">
    <path d="M 120.759908 531.16 
L 123.139411 531.16 
L 123.139411 530.370297 
L 120.759908 530.370297 
z
" clip-path="url(#pa68ff39e08)" style="fill: #87ceeb"/>
   </g>
   <g id="patch_16">
    <path d="M 123.734286 531.16 
L 126.113789 531.16 
L 126.113789 530.096681 
L 123.734286 530.096681 
z
" clip-path="url(#pa68ff39e08)" style="fill: #87ceeb"/>
   </g>
   <g id="patch_17">
    <path d="M 126.708665 531.16 
L 129.088168 531.16 
L 129.088168 531.031388 
L 126.708665 531.031388 
z
" clip-path="url(#pa68ff39e08)" style="fill: #87ceeb"/>
   </g>
   <g id="patch_18">
    <path d="M 129.683043 531.16 
L 132.062546 531.16 
L 132.062546 530.819036 
L 129.683043 530.819036 
z
" clip-path="url(#pa68ff39e08)" style="fill: #87ceeb"/>
   </g>
   <g id="patch_19">
    <path d="M 132.657422 531.16 
L 135.036925 531.16 
L 135.036925 528.605963 
L 132.657422 528.605963 
z
" clip-path="url(#pa68ff39e08)" style="fill: #87ceeb"/>
   </g>
   <g id="patch_20">
    <path d="M 135.631801 531.16 
L 138.011303 531.16 
L 138.011303 529.732825 
L 135.631801 529.732825 
z
" clip-path="url(#pa68ff39e08)" style="fill: #87ceeb"/>
   </g>
   <g id="patch_21">
    <path d="M 138.606179 531.16 
L 140.985682 531.16 
L 140.985682 530.690468 
L 138.606179 530.690468 
z
" clip-path="url(#pa68ff39e08)" style="fill: #87ceeb"/>
   </g>
   <g id="patch_22">
    <path d="M 141.580558 531.16 
L 143.960061 531.16 
L 143.960061 529.850956 
L 141.580558 529.850956 
z
" clip-path="url(#pa68ff39e08)" style="fill: #87ceeb"/>
   </g>
   <g id="patch_23">
    <path d="M 144.554936 531.16 
L 146.934439 531.16 
L 146.934439 530.46257 
L 144.554936 530.46257 
z
" clip-path="url(#pa68ff39e08)" style="fill: #87ceeb"/>
   </g>
   <g id="patch_24">
    <path d="M 147.529315 531.16 
L 149.908818 531.16 
L 149.908818 530.487327 
L 147.529315 530.487327 
z
" clip-path="url(#pa68ff39e08)" style="fill: #87ceeb"/>
   </g>
   <g id="patch_25">
    <path d="M 150.503693 531.16 
L 152.883196 531.16 
L 152.883196 530.42642 
L 150.503693 530.42642 
z
" clip-path="url(#pa68ff39e08)" style="fill: #87ceeb"/>
   </g>
   <g id="patch_26">
    <path d="M 153.478072 531.16 
L 155.857575 531.16 
L 155.857575 529.511408 
L 153.478072 529.511408 
z
" clip-path="url(#pa68ff39e08)" style="fill: #87ceeb"/>
   </g>
   <g id="patch_27">
    <path d="M 156.45245 531.16 
L 158.831953 531.16 
L 158.831953 530.622173 
L 156.45245 530.622173 
z
" clip-path="url(#pa68ff39e08)" style="fill: #87ceeb"/>
   </g>
   <g id="patch_28">
    <path d="M 159.426829 531.16 
L 161.806332 531.16 
L 161.806332 526.527497 
L 159.426829 526.527497 
z
" clip-path="url(#pa68ff39e08)" style="fill: #87ceeb"/>
   </g>
   <g id="patch_29">
    <path d="M 162.401208 531.16 
L 164.78071 531.16 
L 164.78071 530.826983 
L 162.401208 530.826983 
z
" clip-path="url(#pa68ff39e08)" style="fill: #87ceeb"/>
   </g>
   <g id="patch_30">
    <path d="M 165.375586 531.16 
L 167.755089 531.16 
L 167.755089 530.055116 
L 165.375586 530.055116 
z
" clip-path="url(#pa68ff39e08)" style="fill: #87ceeb"/>
   </g>
   <g id="patch_31">
    <path d="M 168.349965 531.16 
L 170.729468 531.16 
L 170.729468 530.94571 
L 168.349965 530.94571 
z
" clip-path="url(#pa68ff39e08)" style="fill: #87ceeb"/>
   </g>
   <g id="patch_32">
    <path d="M 171.324343 531.16 
L 173.703846 531.16 
L 173.703846 530.817373 
L 171.324343 530.817373 
z
" clip-path="url(#pa68ff39e08)" style="fill: #87ceeb"/>
   </g>
   <g id="patch_33">
    <path d="M 174.298722 531.16 
L 176.678225 531.16 
L 176.678225 530.49865 
L 174.298722 530.49865 
z
" clip-path="url(#pa68ff39e08)" style="fill: #87ceeb"/>
   </g>
   <g id="patch_34">
    <path d="M 177.2731 531.16 
L 179.652603 531.16 
L 179.652603 530.435835 
L 177.2731 530.435835 
z
" clip-path="url(#pa68ff39e08)" style="fill: #87ceeb"/>
   </g>
   <g id="patch_35">
    <path d="M 180.247479 531.16 
L 182.626982 531.16 
L 182.626982 527.294136 
L 180.247479 527.294136 
z
" clip-path="url(#pa68ff39e08)" style="fill: #87ceeb"/>
   </g>
   <g id="patch_36">
    <path d="M 183.221858 531.16 
L 185.60136 531.16 
L 185.60136 497.996106 
L 183.221858 497.996106 
z
" clip-path="url(#pa68ff39e08)" style="fill: #87ceeb"/>
   </g>
   <g id="patch_37">
    <path d="M 186.196236 531.16 
L 188.575739 531.16 
L 188.575739 522.233839 
L 186.196236 522.233839 
z
" clip-path="url(#pa68ff39e08)" style="fill: #87ceeb"/>
   </g>
   <g id="patch_38">
    <path d="M 189.170615 531.16 
L 191.550118 531.16 
L 191.550118 530.784854 
L 189.170615 530.784854 
z
" clip-path="url(#pa68ff39e08)" style="fill: #87ceeb"/>
   </g>
   <g id="patch_39">
    <path d="M 192.144993 531.16 
L 194.524496 531.16 
L 194.524496 530.686055 
L 192.144993 530.686055 
z
" clip-path="url(#pa68ff39e08)" style="fill: #87ceeb"/>
   </g>
   <g id="patch_40">
    <path d="M 195.119372 531.16 
L 197.498875 531.16 
L 197.498875 530.734765 
L 195.119372 530.734765 
z
" clip-path="url(#pa68ff39e08)" style="fill: #87ceeb"/>
   </g>
   <g id="patch_41">
    <path d="M 198.09375 531.16 
L 200.473253 531.16 
L 200.473253 530.02915 
L 198.09375 530.02915 
z
" clip-path="url(#pa68ff39e08)" style="fill: #87ceeb"/>
   </g>
   <g id="patch_42">
    <path d="M 201.068129 531.16 
L 203.447632 531.16 
L 203.447632 531.079571 
L 201.068129 531.079571 
z
" clip-path="url(#pa68ff39e08)" style="fill: #87ceeb"/>
   </g>
   <g id="patch_43">
    <path d="M 204.042507 531.16 
L 206.42201 531.16 
L 206.42201 525.598396 
L 204.042507 525.598396 
z
" clip-path="url(#pa68ff39e08)" style="fill: #87ceeb"/>
   </g>
   <g id="patch_44">
    <path d="M 207.016886 531.16 
L 209.396389 531.16 
L 209.396389 530.435818 
L 207.016886 530.435818 
z
" clip-path="url(#pa68ff39e08)" style="fill: #87ceeb"/>
   </g>
   <g id="patch_45">
    <path d="M 209.991265 531.16 
L 212.370767 531.16 
L 212.370767 528.296784 
L 209.991265 528.296784 
z
" clip-path="url(#pa68ff39e08)" style="fill: #87ceeb"/>
   </g>
   <g id="patch_46">
    <path d="M 212.965643 531.16 
L 215.345146 531.16 
L 215.345146 530.705966 
L 212.965643 530.705966 
z
" clip-path="url(#pa68ff39e08)" style="fill: #87ceeb"/>
   </g>
   <g id="patch_47">
    <path d="M 215.940022 531.16 
L 218.319525 531.16 
L 218.319525 530.056351 
L 215.940022 530.056351 
z
" clip-path="url(#pa68ff39e08)" style="fill: #87ceeb"/>
   </g>
   <g id="patch_48">
    <path d="M 218.9144 531.16 
L 221.293903 531.16 
L 221.293903 528.550372 
L 218.9144 528.550372 
z
" clip-path="url(#pa68ff39e08)" style="fill: #87ceeb"/>
   </g>
   <g id="patch_49">
    <path d="M 221.888779 531.16 
L 224.268282 531.16 
L 224.268282 530.649246 
L 221.888779 530.649246 
z
" clip-path="url(#pa68ff39e08)" style="fill: #87ceeb"/>
   </g>
   <g id="patch_50">
    <path d="M 224.863157 531.16 
L 227.24266 531.16 
L 227.24266 531.090537 
L 224.863157 531.090537 
z
" clip-path="url(#pa68ff39e08)" style="fill: #87ceeb"/>
   </g>
   <g id="patch_51">
    <path d="M 227.837536 531.16 
L 230.217039 531.16 
L 230.217039 529.886533 
L 227.837536 529.886533 
z
" clip-path="url(#pa68ff39e08)" style="fill: #87ceeb"/>
   </g>
   <g id="patch_52">
    <path d="M 230.811915 531.16 
L 233.191417 531.16 
L 233.191417 531.052028 
L 230.811915 531.052028 
z
" clip-path="url(#pa68ff39e08)" style="fill: #87ceeb"/>
   </g>
   <g id="patch_53">
    <path d="M 233.786293 531.16 
L 236.165796 531.16 
L 236.165796 530.002552 
L 233.786293 530.002552 
z
" clip-path="url(#pa68ff39e08)" style="fill: #87ceeb"/>
   </g>
   <g id="patch_54">
    <path d="M 236.760672 531.16 
L 239.140175 531.16 
L 239.140175 530.67719 
L 236.760672 530.67719 
z
" clip-path="url(#pa68ff39e08)" style="fill: #87ceeb"/>
   </g>
   <g id="patch_55">
    <path d="M 239.73505 531.16 
L 242.114553 531.16 
L 242.114553 528.340115 
L 239.73505 528.340115 
z
" clip-path="url(#pa68ff39e08)" style="fill: #87ceeb"/>
   </g>
   <g id="patch_56">
    <path d="M 242.709429 531.16 
L 245.088932 531.16 
L 245.088932 529.592487 
L 242.709429 529.592487 
z
" clip-path="url(#pa68ff39e08)" style="fill: #87ceeb"/>
   </g>
   <g id="patch_57">
    <path d="M 245.683807 531.16 
L 248.06331 531.16 
L 248.06331 526.552909 
L 245.683807 526.552909 
z
" clip-path="url(#pa68ff39e08)" style="fill: #87ceeb"/>
   </g>
   <g id="patch_58">
    <path d="M 248.658186 531.16 
L 251.037689 531.16 
L 251.037689 511.989989 
L 248.658186 511.989989 
z
" clip-path="url(#pa68ff39e08)" style="fill: #87ceeb"/>
   </g>
   <g id="patch_59">
    <path d="M 251.632564 531.16 
L 254.012067 531.16 
L 254.012067 507.941566 
L 251.632564 507.941566 
z
" clip-path="url(#pa68ff39e08)" style="fill: #87ceeb"/>
   </g>
   <g id="patch_60">
    <path d="M 254.606943 531.16 
L 256.986446 531.16 
L 256.986446 461.83312 
L 254.606943 461.83312 
z
" clip-path="url(#pa68ff39e08)" style="fill: #87ceeb"/>
   </g>
   <g id="patch_61">
    <path d="M 400.351493 531.16 
L 402.730995 531.16 
L 402.730995 526.269374 
L 400.351493 526.269374 
z
" clip-path="url(#pa68ff39e08)" style="fill: #87ceeb"/>
   </g>
   <g id="patch_62">
    <path d="M 403.325871 531.16 
L 405.705374 531.16 
L 405.705374 528.048032 
L 403.325871 528.048032 
z
" clip-path="url(#pa68ff39e08)" style="fill: #87ceeb"/>
   </g>
   <g id="patch_63">
    <path d="M 406.30025 531.16 
L 408.679753 531.16 
L 408.679753 529.106414 
L 406.30025 529.106414 
z
" clip-path="url(#pa68ff39e08)" style="fill: #87ceeb"/>
   </g>
   <g id="patch_64">
    <path d="M 409.274628 531.16 
L 411.654131 531.16 
L 411.654131 530.936711 
L 409.274628 530.936711 
z
" clip-path="url(#pa68ff39e08)" style="fill: #87ceeb"/>
   </g>
   <g id="patch_65">
    <path d="M 412.249007 531.16 
L 414.62851 531.16 
L 414.62851 528.897524 
L 412.249007 528.897524 
z
" clip-path="url(#pa68ff39e08)" style="fill: #87ceeb"/>
   </g>
   <g id="patch_66">
    <path d="M 415.223385 531.16 
L 417.602888 531.16 
L 417.602888 530.996342 
L 415.223385 530.996342 
z
" clip-path="url(#pa68ff39e08)" style="fill: #87ceeb"/>
   </g>
   <g id="patch_67">
    <path d="M 418.197764 531.16 
L 420.577267 531.16 
L 420.577267 530.63607 
L 418.197764 530.63607 
z
" clip-path="url(#pa68ff39e08)" style="fill: #87ceeb"/>
   </g>
   <g id="patch_68">
    <path d="M 421.172143 531.16 
L 423.551645 531.16 
L 423.551645 518.764652 
L 421.172143 518.764652 
z
" clip-path="url(#pa68ff39e08)" style="fill: #87ceeb"/>
   </g>
   <g id="patch_69">
    <path d="M 424.146521 531.16 
L 426.526024 531.16 
L 426.526024 527.834423 
L 424.146521 527.834423 
z
" clip-path="url(#pa68ff39e08)" style="fill: #87ceeb"/>
   </g>
   <g id="patch_70">
    <path d="M 427.1209 531.16 
L 429.500403 531.16 
L 429.500403 481.249802 
L 427.1209 481.249802 
z
" clip-path="url(#pa68ff39e08)" style="fill: #87ceeb"/>
   </g>
   <g id="patch_71">
    <path d="M 430.095278 531.16 
L 432.474781 531.16 
L 432.474781 473.465658 
L 430.095278 473.465658 
z
" clip-path="url(#pa68ff39e08)" style="fill: #87ceeb"/>
   </g>
   <g id="patch_72">
    <path d="M 433.069657 531.16 
L 435.44916 531.16 
L 435.44916 416.326667 
L 433.069657 416.326667 
z
" clip-path="url(#pa68ff39e08)" style="fill: #87ceeb"/>
   </g>
   <g id="patch_73">
    <path d="M 436.044035 531.16 
L 438.423538 531.16 
L 438.423538 522.544391 
L 436.044035 522.544391 
z
" clip-path="url(#pa68ff39e08)" style="fill: #87ceeb"/>
   </g>
   <g id="patch_74">
    <path d="M 439.018414 531.16 
L 441.397917 531.16 
L 441.397917 439.097876 
L 439.018414 439.097876 
z
" clip-path="url(#pa68ff39e08)" style="fill: #87ceeb"/>
   </g>
   <g id="patch_75">
    <path d="M 441.992793 531.16 
L 444.372295 531.16 
L 444.372295 528.1925 
L 441.992793 528.1925 
z
" clip-path="url(#pa68ff39e08)" style="fill: #87ceeb"/>
   </g>
   <g id="patch_76">
    <path d="M 444.967171 531.16 
L 447.346674 531.16 
L 447.346674 531.15143 
L 444.967171 531.15143 
z
" clip-path="url(#pa68ff39e08)" style="fill: #87ceeb"/>
   </g>
   <g id="patch_77">
    <path d="M 447.94155 531.16 
L 450.321052 531.16 
L 450.321052 531.158968 
L 447.94155 531.158968 
z
" clip-path="url(#pa68ff39e08)" style="fill: #87ceeb"/>
   </g>
   <g id="patch_78">
    <path d="M 450.915928 531.16 
L 453.295431 531.16 
L 453.295431 531.136952 
L 450.915928 531.136952 
z
" clip-path="url(#pa68ff39e08)" style="fill: #87ceeb"/>
   </g>
   <g id="patch_79">
    <path d="M 453.890307 531.16 
L 456.26981 531.16 
L 456.26981 530.505618 
L 453.890307 530.505618 
z
" clip-path="url(#pa68ff39e08)" style="fill: #87ceeb"/>
   </g>
   <g id="patch_80">
    <path d="M 456.864685 531.16 
L 459.244188 531.16 
L 459.244188 529.921634 
L 456.864685 529.921634 
z
" clip-path="url(#pa68ff39e08)" style="fill: #87ceeb"/>
   </g>
   <g id="patch_81">
    <path d="M 459.839064 531.16 
L 462.218567 531.16 
L 462.218567 526.114504 
L 459.839064 526.114504 
z
" clip-path="url(#pa68ff39e08)" style="fill: #87ceeb"/>
   </g>
   <g id="patch_82">
    <path d="M 462.813442 531.16 
L 465.192945 531.16 
L 465.192945 526.716549 
L 462.813442 526.716549 
z
" clip-path="url(#pa68ff39e08)" style="fill: #87ceeb"/>
   </g>
   <g id="patch_83">
    <path d="M 465.787821 531.16 
L 468.167324 531.16 
L 468.167324 530.15398 
L 465.787821 530.15398 
z
" clip-path="url(#pa68ff39e08)" style="fill: #87ceeb"/>
   </g>
   <g id="patch_84">
    <path d="M 468.7622 531.16 
L 471.141702 531.16 
L 471.141702 492.033026 
L 468.7622 492.033026 
z
" clip-path="url(#pa68ff39e08)" style="fill: #87ceeb"/>
   </g>
   <g id="patch_85">
    <path d="M 471.736578 531.16 
L 474.116081 531.16 
L 474.116081 478.166161 
L 471.736578 478.166161 
z
" clip-path="url(#pa68ff39e08)" style="fill: #87ceeb"/>
   </g>
   <g id="patch_86">
    <path d="M 474.710957 531.16 
L 477.09046 531.16 
L 477.09046 512.993318 
L 474.710957 512.993318 
z
" clip-path="url(#pa68ff39e08)" style="fill: #87ceeb"/>
   </g>
   <g id="patch_87">
    <path d="M 477.685335 531.16 
L 480.064838 531.16 
L 480.064838 499.971326 
L 477.685335 499.971326 
z
" clip-path="url(#pa68ff39e08)" style="fill: #87ceeb"/>
   </g>
   <g id="patch_88">
    <path d="M 480.659714 531.16 
L 483.039217 531.16 
L 483.039217 521.543542 
L 480.659714 521.543542 
z
" clip-path="url(#pa68ff39e08)" style="fill: #87ceeb"/>
   </g>
   <g id="patch_89">
    <path d="M 483.634092 531.16 
L 486.013595 531.16 
L 486.013595 472.562507 
L 483.634092 472.562507 
z
" clip-path="url(#pa68ff39e08)" style="fill: #87ceeb"/>
   </g>
   <g id="patch_90">
    <path d="M 486.608471 531.16 
L 488.987974 531.16 
L 488.987974 508.201902 
L 486.608471 508.201902 
z
" clip-path="url(#pa68ff39e08)" style="fill: #87ceeb"/>
   </g>
   <g id="patch_91">
    <path d="M 489.58285 531.16 
L 491.962352 531.16 
L 491.962352 510.17509 
L 489.58285 510.17509 
z
" clip-path="url(#pa68ff39e08)" style="fill: #87ceeb"/>
   </g>
   <g id="patch_92">
    <path d="M 492.557228 531.16 
L 494.936731 531.16 
L 494.936731 528.572958 
L 492.557228 528.572958 
z
" clip-path="url(#pa68ff39e08)" style="fill: #87ceeb"/>
   </g>
   <g id="patch_93">
    <path d="M 495.531607 531.16 
L 497.911109 531.16 
L 497.911109 529.559241 
L 495.531607 529.559241 
z
" clip-path="url(#pa68ff39e08)" style="fill: #87ceeb"/>
   </g>
   <g id="patch_94">
    <path d="M 498.505985 531.16 
L 500.885488 531.16 
L 500.885488 530.309317 
L 498.505985 530.309317 
z
" clip-path="url(#pa68ff39e08)" style="fill: #87ceeb"/>
   </g>
   <g id="patch_95">
    <path d="M 501.480364 531.16 
L 503.859867 531.16 
L 503.859867 530.483459 
L 501.480364 530.483459 
z
" clip-path="url(#pa68ff39e08)" style="fill: #87ceeb"/>
   </g>
   <g id="patch_96">
    <path d="M 504.454742 531.16 
L 506.834245 531.16 
L 506.834245 519.303765 
L 504.454742 519.303765 
z
" clip-path="url(#pa68ff39e08)" style="fill: #87ceeb"/>
   </g>
   <g id="patch_97">
    <path d="M 507.429121 531.16 
L 509.808624 531.16 
L 509.808624 528.178387 
L 507.429121 528.178387 
z
" clip-path="url(#pa68ff39e08)" style="fill: #87ceeb"/>
   </g>
   <g id="patch_98">
    <path d="M 510.403499 531.16 
L 512.783002 531.16 
L 512.783002 522.733566 
L 510.403499 522.733566 
z
" clip-path="url(#pa68ff39e08)" style="fill: #87ceeb"/>
   </g>
   <g id="patch_99">
    <path d="M 513.377878 531.16 
L 515.757381 531.16 
L 515.757381 528.546051 
L 513.377878 528.546051 
z
" clip-path="url(#pa68ff39e08)" style="fill: #87ceeb"/>
   </g>
   <g id="patch_100">
    <path d="M 516.352257 531.16 
L 518.731759 531.16 
L 518.731759 528.417145 
L 516.352257 528.417145 
z
" clip-path="url(#pa68ff39e08)" style="fill: #87ceeb"/>
   </g>
   <g id="patch_101">
    <path d="M 519.326635 531.16 
L 521.706138 531.16 
L 521.706138 530.903356 
L 519.326635 530.903356 
z
" clip-path="url(#pa68ff39e08)" style="fill: #87ceeb"/>
   </g>
   <g id="patch_102">
    <path d="M 522.301014 531.16 
L 524.680517 531.16 
L 524.680517 530.271209 
L 522.301014 530.271209 
z
" clip-path="url(#pa68ff39e08)" style="fill: #87ceeb"/>
   </g>
   <g id="patch_103">
    <path d="M 525.275392 531.16 
L 527.654895 531.16 
L 527.654895 530.869958 
L 525.275392 530.869958 
z
" clip-path="url(#pa68ff39e08)" style="fill: #87ceeb"/>
   </g>
   <g id="patch_104">
    <path d="M 528.249771 531.16 
L 530.629274 531.16 
L 530.629274 530.897702 
L 528.249771 530.897702 
z
" clip-path="url(#pa68ff39e08)" style="fill: #87ceeb"/>
   </g>
   <g id="patch_105">
    <path d="M 531.224149 531.16 
L 533.603652 531.16 
L 533.603652 527.422132 
L 531.224149 527.422132 
z
" clip-path="url(#pa68ff39e08)" style="fill: #87ceeb"/>
   </g>
   <g id="patch_106">
    <path d="M 534.198528 531.16 
L 536.578031 531.16 
L 536.578031 526.516382 
L 534.198528 526.516382 
z
" clip-path="url(#pa68ff39e08)" style="fill: #87ceeb"/>
   </g>
   <g id="patch_107">
    <path d="M 537.172907 531.16 
L 539.552409 531.16 
L 539.552409 530.351411 
L 537.172907 530.351411 
z
" clip-path="url(#pa68ff39e08)" style="fill: #87ceeb"/>
   </g>
   <g id="patch_108">
    <path d="M 540.147285 531.16 
L 542.526788 531.16 
L 542.526788 523.57719 
L 540.147285 523.57719 
z
" clip-path="url(#pa68ff39e08)" style="fill: #87ceeb"/>
   </g>
   <g id="patch_109">
    <path d="M 552.044799 531.16 
L 554.424302 531.16 
L 554.424302 485.398735 
L 552.044799 485.398735 
z
" clip-path="url(#pa68ff39e08)" style="fill: #87ceeb"/>
   </g>
   <g id="LineCollection_2">
    <path d="M 544.311415 531.16 
L 544.311415 416.326667 
" clip-path="url(#pa68ff39e08)" style="fill: none; stroke-dasharray: 1.5,2.475; stroke-dashoffset: 0; stroke: #000000; stroke-width: 1.5"/>
   </g>
   <g id="patch_110">
    <path d="M 56.9 531.16 
L 56.9 410.585 
" style="fill: none; stroke: #ffffff; stroke-linejoin: miter; stroke-linecap: square"/>
   </g>
   <g id="patch_111">
    <path d="M 1069.2 531.16 
L 1069.2 410.585 
" style="fill: none; stroke: #ffffff; stroke-linejoin: miter; stroke-linecap: square"/>
   </g>
   <g id="patch_112">
    <path d="M 56.9 531.16 
L 1069.2 531.16 
" style="fill: none; stroke: #ffffff; stroke-linejoin: miter; stroke-linecap: square"/>
   </g>
   <g id="patch_113">
    <path d="M 56.9 410.585 
L 1069.2 410.585 
" style="fill: none; stroke: #ffffff; stroke-linejoin: miter; stroke-linecap: square"/>
   </g>
  </g>
  <g id="text_26">
   <!-- Synthetic Diff in Diff Estimation -->
   <g transform="translate(445.603125 20.638125) scale(0.12 -0.12)">
    <defs>
     <path id="DejaVuSans-66" d="M 2375 4863 
L 2375 4384 
L 1825 4384 
Q 1516 4384 1395 4259 
Q 1275 4134 1275 3809 
L 1275 3500 
L 2222 3500 
L 2222 3053 
L 1275 3053 
L 1275 0 
L 697 0 
L 697 3053 
L 147 3053 
L 147 3500 
L 697 3500 
L 697 3744 
Q 697 4328 969 4595 
Q 1241 4863 1831 4863 
L 2375 4863 
z
" transform="scale(0.015625)"/>
     <path id="DejaVuSans-45" d="M 628 4666 
L 3578 4666 
L 3578 4134 
L 1259 4134 
L 1259 2753 
L 3481 2753 
L 3481 2222 
L 1259 2222 
L 1259 531 
L 3634 531 
L 3634 0 
L 628 0 
L 628 4666 
z
" transform="scale(0.015625)"/>
    </defs>
    <use xlink:href="#DejaVuSans-53"/>
    <use xlink:href="#DejaVuSans-79" transform="translate(63.476562 0)"/>
    <use xlink:href="#DejaVuSans-6e" transform="translate(122.65625 0)"/>
    <use xlink:href="#DejaVuSans-74" transform="translate(186.035156 0)"/>
    <use xlink:href="#DejaVuSans-68" transform="translate(225.244141 0)"/>
    <use xlink:href="#DejaVuSans-65" transform="translate(288.623047 0)"/>
    <use xlink:href="#DejaVuSans-74" transform="translate(350.146484 0)"/>
    <use xlink:href="#DejaVuSans-69" transform="translate(389.355469 0)"/>
    <use xlink:href="#DejaVuSans-63" transform="translate(417.138672 0)"/>
    <use xlink:href="#DejaVuSans-20" transform="translate(472.119141 0)"/>
    <use xlink:href="#DejaVuSans-44" transform="translate(503.90625 0)"/>
    <use xlink:href="#DejaVuSans-69" transform="translate(580.908203 0)"/>
    <use xlink:href="#DejaVuSans-66" transform="translate(608.691406 0)"/>
    <use xlink:href="#DejaVuSans-66" transform="translate(643.896484 0)"/>
    <use xlink:href="#DejaVuSans-20" transform="translate(679.101562 0)"/>
    <use xlink:href="#DejaVuSans-69" transform="translate(710.888672 0)"/>
    <use xlink:href="#DejaVuSans-6e" transform="translate(738.671875 0)"/>
    <use xlink:href="#DejaVuSans-20" transform="translate(802.050781 0)"/>
    <use xlink:href="#DejaVuSans-44" transform="translate(833.837891 0)"/>
    <use xlink:href="#DejaVuSans-69" transform="translate(910.839844 0)"/>
    <use xlink:href="#DejaVuSans-66" transform="translate(938.623047 0)"/>
    <use xlink:href="#DejaVuSans-66" transform="translate(973.828125 0)"/>
    <use xlink:href="#DejaVuSans-20" transform="translate(1009.033203 0)"/>
    <use xlink:href="#DejaVuSans-45" transform="translate(1040.820312 0)"/>
    <use xlink:href="#DejaVuSans-73" transform="translate(1104.003906 0)"/>
    <use xlink:href="#DejaVuSans-74" transform="translate(1156.103516 0)"/>
    <use xlink:href="#DejaVuSans-69" transform="translate(1195.3125 0)"/>
    <use xlink:href="#DejaVuSans-6d" transform="translate(1223.095703 0)"/>
    <use xlink:href="#DejaVuSans-61" transform="translate(1320.507812 0)"/>
    <use xlink:href="#DejaVuSans-74" transform="translate(1381.787109 0)"/>
    <use xlink:href="#DejaVuSans-69" transform="translate(1420.996094 0)"/>
    <use xlink:href="#DejaVuSans-6f" transform="translate(1448.779297 0)"/>
    <use xlink:href="#DejaVuSans-6e" transform="translate(1509.960938 0)"/>
   </g>
  </g>
 </g>
 <defs>
  <clipPath id="pd99d7c7786">
   <rect x="56.9" y="34.56" width="1012.3" height="361.725"/>
  </clipPath>
  <clipPath id="pa68ff39e08">
   <rect x="56.9" y="410.585" width="1012.3" height="120.575"/>
  </clipPath>
 </defs>
</svg>
